<svg width="44" height="52" viewBox="0 0 44 52" fill="none" xmlns="http://www.w3.org/2000/svg">
<path d="M32.7745 51.8236L32.7745 51.8236L32.7774 51.8206L43.405 40.7381C43.5399 40.6051 43.6219 40.419 43.6219 40.2287L43.6216 9.48753C43.6216 6.87027 41.9238 4.68501 39.5706 3.83882C38.7291 1.51725 36.466 -0.15 33.8133 -0.15L7.11062 -0.149917C3.72526 -0.149917 0.976739 2.55279 0.976739 5.89285V42.4198C0.976739 45.0366 2.67421 47.2442 5.02841 48.0904C5.88887 50.4108 8.1305 52.058 10.7623 52.058H32.2151C32.4301 52.058 32.6182 51.9777 32.7745 51.8236ZM38.2433 4.59517V4.6197L38.2512 4.64295C38.3109 4.82061 38.3528 5.04288 38.3733 5.24808L38.3741 5.25575L38.3756 5.2633C38.4172 5.46579 38.4375 5.66784 38.4375 5.89249V35.8663H33.9429C30.5567 35.8663 27.809 38.569 27.809 41.9098V46.9502L7.11052 46.9505C6.90514 46.9505 6.67692 46.9307 6.4627 46.9089C6.35993 46.8886 6.25144 46.8632 6.1398 46.837L6.13849 46.8367C6.03159 46.8116 5.92177 46.7859 5.81619 46.7647C5.79158 46.7544 5.76704 46.7469 5.74015 46.7427C5.72717 46.7406 5.71443 46.7396 5.70263 46.739C5.69936 46.7378 5.69598 46.7366 5.6925 46.7356C5.6705 46.7291 5.64721 46.7273 5.62398 46.7306C5.6232 46.7308 5.62243 46.7309 5.62166 46.731C3.80244 46.1194 2.48623 44.4204 2.48623 42.42V5.89303C2.48623 3.36137 4.53397 1.34181 7.1105 1.34181H7.19051L7.19063 1.34163H33.814C35.9024 1.34163 37.6332 2.653 38.2234 4.49533C38.2262 4.52447 38.2326 4.54972 38.2363 4.56427L38.2372 4.56779C38.2434 4.59241 38.2433 4.59551 38.2433 4.59517ZM39.9484 5.88773C39.9484 5.83712 39.9484 5.78769 39.9474 5.73809C41.2388 6.52738 42.0904 7.88053 42.0904 9.48752V39.8913L31.8705 50.5658H10.7618C9.1292 50.5658 7.75459 49.7096 6.95243 48.4556C7.00324 48.4588 7.05655 48.4612 7.11023 48.4612H28.5846H28.6283H28.6898L28.7186 48.4328C28.7755 48.415 28.8385 48.3939 28.8895 48.3714C28.9252 48.3626 28.9516 48.3452 28.9661 48.3345C28.9757 48.3275 28.9846 48.32 28.9925 48.3128H29.1248V48.2032L39.7337 37.1403L39.7339 37.1405L39.7399 37.1334C39.8647 36.9861 39.9484 36.8041 39.9484 36.6114V5.89163V5.88773ZM8.49306 12.2313V12.2309L8.48268 12.2316C8.28171 12.2456 8.1056 12.3571 7.9854 12.5046C7.86495 12.6524 7.79001 12.8488 7.80376 13.0515L7.80343 13.0515L7.80476 13.0614C7.83214 13.2645 7.94755 13.4412 8.09768 13.5601C8.24477 13.6765 8.43715 13.7467 8.6331 13.7228H32.3232C32.7276 13.7228 33.0782 13.3817 33.0782 12.9769C33.0782 12.5726 32.7281 12.2309 32.3232 12.2309L8.62338 12.2313H8.49306ZM8.53339 23.4012C8.14458 23.4278 7.82021 23.7853 7.8467 24.1766C7.86027 24.3801 7.96258 24.5637 8.10316 24.6924C8.24212 24.8195 8.43023 24.9034 8.62833 24.8912H32.3232C32.7276 24.8912 33.0782 24.55 33.0782 24.1453C33.0782 23.7514 32.7372 23.3762 32.3188 23.3993L8.68022 23.3996C8.65589 23.3882 8.63096 23.3839 8.60953 23.3839C8.58038 23.3839 8.55484 23.3911 8.53339 23.4012ZM8.51472 34.569H8.50495L8.49526 34.5702C8.10309 34.6215 7.77262 34.9819 7.82577 35.3935C7.84115 35.5994 7.95205 35.7769 8.0977 35.898C8.24269 36.0185 8.4342 36.0934 8.62805 36.0812H26.2311C26.4309 36.0812 26.6187 35.9842 26.7538 35.8478C26.8893 35.711 26.9861 35.5205 26.9861 35.3142C26.9861 35.1068 26.8881 34.9208 26.7509 34.789C26.6141 34.6575 26.427 34.569 26.2311 34.569H8.62395H8.581H8.51529H8.51472ZM33.9429 37.3582H37.4147L29.3187 45.7909V41.909C29.3187 39.3774 31.3663 37.3583 33.9428 37.3582C33.9429 37.3582 33.9429 37.3582 33.9429 37.3582Z" fill="white" stroke="white" stroke-width="0.3"/>
</svg>
