<svg width="24" height="22" viewBox="0 0 24 22" fill="none" xmlns="http://www.w3.org/2000/svg">
<path d="M22.1773 3.1778H19.8662V4.60002H21.9995V20.2445H2.08842V4.60002H4.22175V3.1778H1.91064C1.74441 3.18057 1.58036 3.21607 1.42785 3.28226C1.27534 3.34845 1.13736 3.44404 1.0218 3.56357C0.906236 3.68309 0.815352 3.82421 0.754338 3.97886C0.693323 4.13352 0.663373 4.29868 0.666198 4.46491V20.3796C0.663373 20.5458 0.693323 20.711 0.754338 20.8656C0.815352 21.0203 0.906236 21.1614 1.0218 21.2809C1.13736 21.4004 1.27534 21.496 1.42785 21.5622C1.58036 21.6284 1.74441 21.6639 1.91064 21.6667H22.1773C22.3435 21.6639 22.5076 21.6284 22.6601 21.5622C22.8126 21.496 22.9506 21.4004 23.0662 21.2809C23.1817 21.1614 23.2726 21.0203 23.3336 20.8656C23.3946 20.711 23.4246 20.5458 23.4218 20.3796V4.46491C23.4246 4.29868 23.3946 4.13352 23.3336 3.97886C23.2726 3.82421 23.1817 3.68309 23.0662 3.56357C22.9506 3.44404 22.8126 3.34845 22.6601 3.28226C22.5076 3.21607 22.3435 3.18057 22.1773 3.1778V3.1778Z" fill="#01FFDB"/>
<path d="M4.93359 8.86667H6.35582V10.2889H4.93359V8.86667Z" fill="#01FFDB"/>
<path d="M9.19922 8.86667H10.6214V10.2889H9.19922V8.86667Z" fill="#01FFDB"/>
<path d="M13.4668 8.86667H14.889V10.2889H13.4668V8.86667Z" fill="#01FFDB"/>
<path d="M17.7324 8.86667H19.1546V10.2889H17.7324V8.86667Z" fill="#01FFDB"/>
<path d="M4.93359 12.4222H6.35582V13.8445H4.93359V12.4222Z" fill="#01FFDB"/>
<path d="M9.19922 12.4222H10.6214V13.8445H9.19922V12.4222Z" fill="#01FFDB"/>
<path d="M13.4668 12.4222H14.889V13.8445H13.4668V12.4222Z" fill="#01FFDB"/>
<path d="M17.7324 12.4222H19.1546V13.8445H17.7324V12.4222Z" fill="#01FFDB"/>
<path d="M4.93359 15.9778H6.35582V17.4H4.93359V15.9778Z" fill="#01FFDB"/>
<path d="M9.19922 15.9778H10.6214V17.4H9.19922V15.9778Z" fill="#01FFDB"/>
<path d="M13.4668 15.9778H14.889V17.4H13.4668V15.9778Z" fill="#01FFDB"/>
<path d="M17.7324 15.9778H19.1546V17.4H17.7324V15.9778Z" fill="#01FFDB"/>
<path d="M6.35564 6.02223C6.54424 6.02223 6.72511 5.94731 6.85847 5.81395C6.99183 5.68059 7.06675 5.49972 7.06675 5.31112V1.04445C7.06675 0.855856 6.99183 0.674982 6.85847 0.541623C6.72511 0.408264 6.54424 0.333344 6.35564 0.333344C6.16704 0.333344 5.98617 0.408264 5.85281 0.541623C5.71945 0.674982 5.64453 0.855856 5.64453 1.04445V5.31112C5.64453 5.49972 5.71945 5.68059 5.85281 5.81395C5.98617 5.94731 6.16704 6.02223 6.35564 6.02223Z" fill="#01FFDB"/>
<path d="M17.7326 6.02223C17.9212 6.02223 18.1021 5.94731 18.2354 5.81395C18.3688 5.68059 18.4437 5.49972 18.4437 5.31112V1.04445C18.4437 0.855856 18.3688 0.674982 18.2354 0.541623C18.1021 0.408264 17.9212 0.333344 17.7326 0.333344C17.544 0.333344 17.3631 0.408264 17.2298 0.541623C17.0964 0.674982 17.0215 0.855856 17.0215 1.04445V5.31112C17.0215 5.49972 17.0964 5.68059 17.2298 5.81395C17.3631 5.94731 17.544 6.02223 17.7326 6.02223Z" fill="#01FFDB"/>
<path d="M8.48828 3.1778H15.5994V4.60002H8.48828V3.1778Z" fill="#01FFDB"/>
</svg>
