<svg width="24" height="22" viewBox="0 0 24 22" fill="none" xmlns="http://www.w3.org/2000/svg">
<path d="M22.1783 3.17773H19.8672V4.59996H22.0005V20.2444H2.0894V4.59996H4.22273V3.17773H1.91162C1.74539 3.18051 1.58133 3.21601 1.42882 3.2822C1.27631 3.34839 1.13834 3.44398 1.02277 3.56351C0.907212 3.68303 0.816329 3.82415 0.755314 3.9788C0.6943 4.13346 0.66435 4.29862 0.667175 4.46485V20.3795C0.66435 20.5457 0.6943 20.7109 0.755314 20.8656C0.816329 21.0202 0.907212 21.1613 1.02277 21.2809C1.13834 21.4004 1.27631 21.496 1.42882 21.5622C1.58133 21.6283 1.74539 21.6638 1.91162 21.6666H22.1783C22.3445 21.6638 22.5086 21.6283 22.6611 21.5622C22.8136 21.496 22.9516 21.4004 23.0671 21.2809C23.1827 21.1613 23.2736 21.0202 23.3346 20.8656C23.3956 20.7109 23.4256 20.5457 23.4227 20.3795V4.46485C23.4256 4.29862 23.3956 4.13346 23.3346 3.9788C23.2736 3.82415 23.1827 3.68303 23.0671 3.56351C22.9516 3.44398 22.8136 3.34839 22.6611 3.2822C22.5086 3.21601 22.3445 3.18051 22.1783 3.17773V3.17773Z" fill="#01FFDB"/>
<path d="M4.93359 8.86572H6.35582V10.2879H4.93359V8.86572Z" fill="#01FFDB"/>
<path d="M9.20117 8.86572H10.6234V10.2879H9.20117V8.86572Z" fill="#01FFDB"/>
<path d="M13.4668 8.86572H14.889V10.2879H13.4668V8.86572Z" fill="#01FFDB"/>
<path d="M17.7344 8.86572H19.1566V10.2879H17.7344V8.86572Z" fill="#01FFDB"/>
<path d="M4.93359 12.4224H6.35582V13.8446H4.93359V12.4224Z" fill="#01FFDB"/>
<path d="M9.20117 12.4224H10.6234V13.8446H9.20117V12.4224Z" fill="#01FFDB"/>
<path d="M13.4668 12.4224H14.889V13.8446H13.4668V12.4224Z" fill="#01FFDB"/>
<path d="M17.7344 12.4224H19.1566V13.8446H17.7344V12.4224Z" fill="#01FFDB"/>
<path d="M4.93359 15.9775H6.35582V17.3997H4.93359V15.9775Z" fill="#01FFDB"/>
<path d="M9.2002 15.9775H10.6224V17.3997H9.2002V15.9775Z" fill="#01FFDB"/>
<path d="M13.4668 15.9775H14.889V17.3998H13.4668V15.9775Z" fill="#01FFDB"/>
<path d="M17.7344 15.9775H19.1566V17.3997H17.7344V15.9775Z" fill="#01FFDB"/>
<path d="M6.35662 6.0219C6.54522 6.0219 6.72609 5.94698 6.85945 5.81362C6.99281 5.68026 7.06773 5.49938 7.06773 5.31079V1.04412C7.06773 0.855521 6.99281 0.674647 6.85945 0.541287C6.72609 0.407928 6.54522 0.333008 6.35662 0.333008C6.16802 0.333008 5.98715 0.407928 5.85379 0.541287C5.72043 0.674647 5.64551 0.855521 5.64551 1.04412V5.31079C5.64551 5.49938 5.72043 5.68026 5.85379 5.81362C5.98715 5.94698 6.16802 6.0219 6.35662 6.0219Z" fill="#01FFDB"/>
<path d="M17.7345 6.0219C17.9231 6.0219 18.104 5.94698 18.2374 5.81362C18.3707 5.68026 18.4457 5.49938 18.4457 5.31079V1.04412C18.4457 0.855521 18.3707 0.674647 18.2374 0.541287C18.104 0.407928 17.9231 0.333008 17.7345 0.333008C17.5459 0.333008 17.3651 0.407928 17.2317 0.541287C17.0984 0.674647 17.0234 0.855521 17.0234 1.04412V5.31079C17.0234 5.49938 17.0984 5.68026 17.2317 5.81362C17.3651 5.94698 17.5459 6.0219 17.7345 6.0219Z" fill="#01FFDB"/>
<path d="M8.48926 3.17773H15.6004V4.59996H8.48926V3.17773Z" fill="#01FFDB"/>
</svg>
