<svg width="11" height="11" viewBox="0 0 11 11" fill="none" xmlns="http://www.w3.org/2000/svg">
<path d="M9.73647 1.22C9.80471 1.15036 9.88617 1.09504 9.97606 1.05728C10.0659 1.01951 10.1625 1.00006 10.26 1.00006C10.3575 1.00006 10.454 1.01951 10.5439 1.05728C10.6338 1.09504 10.7152 1.15036 10.7835 1.22C11.0695 1.509 11.0735 1.97599 10.7935 2.26999L4.88047 9.26C4.81333 9.33372 4.73187 9.39297 4.64105 9.43412C4.55023 9.47527 4.45197 9.49746 4.35227 9.49934C4.25258 9.50121 4.15356 9.48272 4.06126 9.44501C3.96896 9.40729 3.88532 9.35114 3.81547 9.27999L0.217469 5.634C0.0787056 5.49248 0.000976562 5.30219 0.000976562 5.104C0.000976562 4.9058 0.0787056 4.71551 0.217469 4.57399C0.285714 4.50436 0.367167 4.44904 0.457057 4.41128C0.546947 4.37351 0.643468 4.35406 0.740968 4.35406C0.838469 4.35406 0.93499 4.37351 1.02488 4.41128C1.11477 4.44904 1.19622 4.50436 1.26447 4.57399L4.31647 7.667L9.71647 1.242C9.72269 1.23427 9.72937 1.22692 9.73647 1.22Z" fill="#01FFDB"/>
</svg>
