<svg width="16" height="16" viewBox="0 0 16 16" fill="none" xmlns="http://www.w3.org/2000/svg">
<path d="M14.1617 1.77455C14.261 1.67327 14.3794 1.59281 14.5102 1.53788C14.6409 1.48294 14.7813 1.45465 14.9231 1.45465C15.065 1.45465 15.2054 1.48294 15.3361 1.53788C15.4669 1.59281 15.5853 1.67327 15.6846 1.77455C16.1006 2.19492 16.1064 2.87419 15.6991 3.30183L7.09842 13.4691C7.00077 13.5763 6.88227 13.6625 6.75017 13.7224C6.61807 13.7822 6.47514 13.8145 6.33014 13.8172C6.18513 13.82 6.0411 13.7931 5.90684 13.7382C5.77259 13.6834 5.65094 13.6017 5.54933 13.4982L0.315874 8.19492C0.114037 7.98908 0.000976562 7.71229 0.000976562 7.42401C0.000976562 7.13573 0.114037 6.85894 0.315874 6.6531C0.415141 6.55181 0.533617 6.47135 0.664366 6.41642C0.795115 6.36149 0.935509 6.3332 1.07733 6.3332C1.21915 6.3332 1.35954 6.36149 1.49029 6.41642C1.62104 6.47135 1.73952 6.55181 1.83878 6.6531L6.27806 11.152L14.1326 1.80655C14.1416 1.79531 14.1514 1.78463 14.1617 1.77455Z" fill="white"/>
</svg>
