<svg width="24" height="24" viewBox="0 0 24 24" fill="none" xmlns="http://www.w3.org/2000/svg">
<path d="M22.5932 10.8117C23.1356 11.5212 23.1356 12.479 22.5932 13.1873C20.8847 15.4176 16.7857 20.0098 12.0002 20.0098C7.21461 20.0098 3.11563 15.4176 1.40716 13.1873C1.14326 12.8476 1 12.4297 1 11.9995C1 11.5694 1.14326 11.1514 1.40716 10.8117C3.11563 8.58143 7.21461 3.98926 12.0002 3.98926C16.7857 3.98926 20.8847 8.58143 22.5932 10.8117V10.8117Z" stroke="#E0E0E0" stroke-width="2" stroke-linecap="round" stroke-linejoin="round"/>
<path d="M12.0004 15.4324C13.8963 15.4324 15.4333 13.8954 15.4333 11.9994C15.4333 10.1034 13.8963 8.56641 12.0004 8.56641C10.1044 8.56641 8.56738 10.1034 8.56738 11.9994C8.56738 13.8954 10.1044 15.4324 12.0004 15.4324Z" stroke="#E0E0E0" stroke-width="2" stroke-linecap="round" stroke-linejoin="round"/>
</svg>
