<svg width="20" height="24" viewBox="0 0 20 24" fill="none" xmlns="http://www.w3.org/2000/svg">
<path d="M17.407 0H6.38306C5.89577 0 5.42844 0.193574 5.08387 0.538139C4.73931 0.882703 4.54573 1.35003 4.54573 1.83732V3.67464H2.70841C2.22113 3.67464 1.7538 3.86822 1.40923 4.21278C1.06467 4.55734 0.871094 5.02467 0.871094 5.51196V22.9665C0.871094 23.2102 0.967881 23.4438 1.14016 23.6161C1.31245 23.7884 1.54611 23.8852 1.78975 23.8852C1.98307 23.8845 2.17151 23.8244 2.32947 23.7129L8.22038 19.4986L14.1228 23.7129C14.2589 23.8132 14.4207 23.8729 14.5894 23.8851C14.758 23.8973 14.9267 23.8615 15.0759 23.7818C15.2241 23.7031 15.3482 23.5858 15.4351 23.4422C15.5221 23.2987 15.5686 23.1343 15.5697 22.9665V18.4536L17.7974 20.0383C17.9504 20.151 18.1356 20.2114 18.3256 20.2105C18.5693 20.2105 18.8029 20.1137 18.9752 19.9415C19.1475 19.7692 19.2443 19.5355 19.2443 19.2919V1.83732C19.2443 1.35003 19.0507 0.882703 18.7062 0.538139C18.3616 0.193574 17.8943 0 17.407 0ZM13.7323 21.1866L8.74861 17.6268C8.59561 17.5141 8.41039 17.4537 8.22038 17.4545C8.02706 17.4552 7.83862 17.5153 7.68066 17.6268L2.70841 21.1866V5.51196H13.7323V21.1866ZM17.407 17.512L15.5697 16.1914V5.51196C15.5697 5.02467 15.3761 4.55734 15.0315 4.21278C14.687 3.86822 14.2196 3.67464 13.7323 3.67464H6.38306V1.83732H17.407V17.512Z" fill="#01FFDB"/>
</svg>
