<svg width="387" height="208" viewBox="0 0 387 208" fill="none" xmlns="http://www.w3.org/2000/svg">
<g clip-path="url(#clip0_657_21140)">
<line x1="19" y1="151.5" x2="387" y2="151.5" stroke="white" stroke-opacity="0.15"/>
<line x1="19" y1="113.5" x2="387" y2="113.5" stroke="white" stroke-opacity="0.15"/>
<line x1="19" y1="75.5" x2="387" y2="75.5" stroke="white" stroke-opacity="0.15"/>
<line x1="19" y1="37.5" x2="387" y2="37.5" stroke="white" stroke-opacity="0.15"/>
<line x1="296.5" y1="190" x2="296.5" y2="3.05397e-05" stroke="white" stroke-opacity="0.15"/>
<line x1="344.5" y1="190" x2="344.5" y2="3.05397e-05" stroke="white" stroke-opacity="0.15"/>
<line x1="248.5" y1="190" x2="248.5" y2="3.05397e-05" stroke="white" stroke-opacity="0.15"/>
<line x1="200.5" y1="190" x2="200.5" y2="3.05397e-05" stroke="white" stroke-opacity="0.15"/>
<line x1="152.5" y1="190" x2="152.5" y2="3.05397e-05" stroke="white" stroke-opacity="0.15"/>
<line x1="104.5" y1="190" x2="104.5" y2="3.05397e-05" stroke="white" stroke-opacity="0.15"/>
<line x1="56.5" y1="190" x2="56.5" y2="3.05397e-05" stroke="white" stroke-opacity="0.15"/>
<g filter="url(#filter0_d_657_21140)">
<path d="M17 158C17 158 81.0573 121.337 119.736 127.5C136.317 130.142 143.879 139.051 160.555 141C214.233 147.273 222.093 80.0222 275 69C299 64 315.433 78.9111 331.306 64C351 45.5 386 45 386 45" stroke="url(#paint0_linear_657_21140)" stroke-width="2"/>
</g>
</g>
<path d="M103.565 201.431C103.565 202.671 103.365 203.592 102.965 204.194C102.568 204.797 101.959 205.098 101.139 205.098C100.344 205.098 99.7422 204.787 99.332 204.165C98.9219 203.543 98.7168 202.632 98.7168 201.431C98.7168 200.171 98.9154 199.243 99.3125 198.647C99.7129 198.049 100.322 197.749 101.139 197.749C101.936 197.749 102.54 198.062 102.95 198.687C103.36 199.312 103.565 200.226 103.565 201.431ZM99.8789 201.431C99.8789 202.404 99.9782 203.099 100.177 203.516C100.379 203.932 100.699 204.141 101.139 204.141C101.578 204.141 101.899 203.929 102.101 203.506C102.306 203.083 102.408 202.391 102.408 201.431C102.408 200.474 102.306 199.782 102.101 199.355C101.899 198.926 101.578 198.711 101.139 198.711C100.699 198.711 100.379 198.921 100.177 199.341C99.9782 199.761 99.8789 200.457 99.8789 201.431ZM106.861 200.542C107.581 200.542 108.15 200.732 108.57 201.113C108.99 201.494 109.2 202.013 109.2 202.671C109.2 203.433 108.961 204.028 108.482 204.458C108.007 204.884 107.33 205.098 106.451 205.098C105.654 205.098 105.027 204.969 104.571 204.712V203.672C104.835 203.822 105.138 203.937 105.479 204.019C105.821 204.1 106.139 204.141 106.432 204.141C106.949 204.141 107.343 204.025 107.613 203.794C107.883 203.563 108.019 203.224 108.019 202.778C108.019 201.925 107.475 201.499 106.388 201.499C106.235 201.499 106.046 201.515 105.821 201.548C105.597 201.577 105.4 201.611 105.23 201.65L104.718 201.348L104.991 197.861H108.702V198.882H106.002L105.841 200.649C105.955 200.63 106.093 200.607 106.256 200.581C106.422 200.555 106.624 200.542 106.861 200.542Z" fill="white"/>
<path d="M55.5654 201.431C55.5654 202.671 55.3652 203.592 54.9648 204.194C54.5677 204.797 53.959 205.098 53.1387 205.098C52.3444 205.098 51.7422 204.787 51.332 204.165C50.9219 203.543 50.7168 202.632 50.7168 201.431C50.7168 200.171 50.9154 199.243 51.3125 198.647C51.7129 198.049 52.3216 197.749 53.1387 197.749C53.9362 197.749 54.54 198.062 54.9502 198.687C55.3604 199.312 55.5654 200.226 55.5654 201.431ZM51.8789 201.431C51.8789 202.404 51.9782 203.099 52.1768 203.516C52.3786 203.932 52.6992 204.141 53.1387 204.141C53.5781 204.141 53.8988 203.929 54.1006 203.506C54.3057 203.083 54.4082 202.391 54.4082 201.431C54.4082 200.474 54.3057 199.782 54.1006 199.355C53.8988 198.926 53.5781 198.711 53.1387 198.711C52.6992 198.711 52.3786 198.921 52.1768 199.341C51.9782 199.761 51.8789 200.457 51.8789 201.431ZM59.8086 205H58.6611V200.391C58.6611 199.84 58.6742 199.404 58.7002 199.082C58.6253 199.16 58.5326 199.246 58.4219 199.341C58.3145 199.435 57.9499 199.735 57.3281 200.239L56.752 199.512L58.8516 197.861H59.8086V205Z" fill="white"/>
<path d="M150.096 205H148.948V200.391C148.948 199.84 148.961 199.404 148.987 199.082C148.912 199.16 148.82 199.246 148.709 199.341C148.602 199.435 148.237 199.735 147.615 200.239L147.039 199.512L149.139 197.861H150.096V205ZM157.278 201.431C157.278 202.671 157.078 203.592 156.678 204.194C156.281 204.797 155.672 205.098 154.852 205.098C154.057 205.098 153.455 204.787 153.045 204.165C152.635 203.543 152.43 202.632 152.43 201.431C152.43 200.171 152.628 199.243 153.025 198.647C153.426 198.049 154.035 197.749 154.852 197.749C155.649 197.749 156.253 198.062 156.663 198.687C157.073 199.312 157.278 200.226 157.278 201.431ZM153.592 201.431C153.592 202.404 153.691 203.099 153.89 203.516C154.091 203.932 154.412 204.141 154.852 204.141C155.291 204.141 155.612 203.929 155.813 203.506C156.019 203.083 156.121 202.391 156.121 201.431C156.121 200.474 156.019 199.782 155.813 199.355C155.612 198.926 155.291 198.711 154.852 198.711C154.412 198.711 154.091 198.921 153.89 199.341C153.691 199.761 153.592 200.457 153.592 201.431Z" fill="white"/>
<path d="M198.096 205H196.948V200.391C196.948 199.84 196.961 199.404 196.987 199.082C196.912 199.16 196.82 199.246 196.709 199.341C196.602 199.435 196.237 199.735 195.615 200.239L195.039 199.512L197.139 197.861H198.096V205ZM202.861 200.542C203.581 200.542 204.15 200.732 204.57 201.113C204.99 201.494 205.2 202.013 205.2 202.671C205.2 203.433 204.961 204.028 204.482 204.458C204.007 204.884 203.33 205.098 202.451 205.098C201.654 205.098 201.027 204.969 200.571 204.712V203.672C200.835 203.822 201.138 203.937 201.479 204.019C201.821 204.1 202.139 204.141 202.432 204.141C202.949 204.141 203.343 204.025 203.613 203.794C203.883 203.563 204.019 203.224 204.019 202.778C204.019 201.925 203.475 201.499 202.388 201.499C202.235 201.499 202.046 201.515 201.821 201.548C201.597 201.577 201.4 201.611 201.23 201.65L200.718 201.348L200.991 197.861H204.702V198.882H202.002L201.841 200.649C201.955 200.63 202.093 200.607 202.256 200.581C202.422 200.555 202.624 200.542 202.861 200.542Z" fill="white"/>
<path d="M247.565 205H242.727V204.131L244.567 202.28C245.111 201.724 245.471 201.33 245.646 201.099C245.826 200.864 245.956 200.645 246.037 200.439C246.118 200.234 246.159 200.015 246.159 199.78C246.159 199.458 246.062 199.204 245.866 199.019C245.674 198.833 245.407 198.74 245.065 198.74C244.792 198.74 244.527 198.791 244.27 198.892C244.016 198.993 243.721 199.175 243.386 199.438L242.766 198.682C243.163 198.346 243.549 198.109 243.923 197.969C244.297 197.829 244.696 197.759 245.119 197.759C245.783 197.759 246.315 197.933 246.716 198.281C247.116 198.626 247.316 199.092 247.316 199.678C247.316 200 247.258 200.306 247.141 200.596C247.027 200.885 246.849 201.185 246.608 201.494C246.371 201.8 245.974 202.215 245.417 202.739L244.177 203.94V203.989H247.565V205ZM253.278 201.431C253.278 202.671 253.078 203.592 252.678 204.194C252.281 204.797 251.672 205.098 250.852 205.098C250.057 205.098 249.455 204.787 249.045 204.165C248.635 203.543 248.43 202.632 248.43 201.431C248.43 200.171 248.628 199.243 249.025 198.647C249.426 198.049 250.035 197.749 250.852 197.749C251.649 197.749 252.253 198.062 252.663 198.687C253.073 199.312 253.278 200.226 253.278 201.431ZM249.592 201.431C249.592 202.404 249.691 203.099 249.89 203.516C250.091 203.932 250.412 204.141 250.852 204.141C251.291 204.141 251.612 203.929 251.813 203.506C252.019 203.083 252.121 202.391 252.121 201.431C252.121 200.474 252.019 199.782 251.813 199.355C251.612 198.926 251.291 198.711 250.852 198.711C250.412 198.711 250.091 198.921 249.89 199.341C249.691 199.761 249.592 200.457 249.592 201.431Z" fill="white"/>
<path d="M295.565 205H290.727V204.131L292.567 202.28C293.111 201.724 293.471 201.33 293.646 201.099C293.826 200.864 293.956 200.645 294.037 200.439C294.118 200.234 294.159 200.015 294.159 199.78C294.159 199.458 294.062 199.204 293.866 199.019C293.674 198.833 293.407 198.74 293.065 198.74C292.792 198.74 292.527 198.791 292.27 198.892C292.016 198.993 291.721 199.175 291.386 199.438L290.766 198.682C291.163 198.346 291.549 198.109 291.923 197.969C292.297 197.829 292.696 197.759 293.119 197.759C293.783 197.759 294.315 197.933 294.716 198.281C295.116 198.626 295.316 199.092 295.316 199.678C295.316 200 295.258 200.306 295.141 200.596C295.027 200.885 294.849 201.185 294.608 201.494C294.371 201.8 293.974 202.215 293.417 202.739L292.177 203.94V203.989H295.565V205ZM298.861 200.542C299.581 200.542 300.15 200.732 300.57 201.113C300.99 201.494 301.2 202.013 301.2 202.671C301.2 203.433 300.961 204.028 300.482 204.458C300.007 204.884 299.33 205.098 298.451 205.098C297.654 205.098 297.027 204.969 296.571 204.712V203.672C296.835 203.822 297.138 203.937 297.479 204.019C297.821 204.1 298.139 204.141 298.432 204.141C298.949 204.141 299.343 204.025 299.613 203.794C299.883 203.563 300.019 203.224 300.019 202.778C300.019 201.925 299.475 201.499 298.388 201.499C298.235 201.499 298.046 201.515 297.821 201.548C297.597 201.577 297.4 201.611 297.23 201.65L296.718 201.348L296.991 197.861H300.702V198.882H298.002L297.841 200.649C297.955 200.63 298.093 200.607 298.256 200.581C298.422 200.555 298.624 200.542 298.861 200.542Z" fill="white"/>
<path d="M343.565 205H338.727V204.131L340.567 202.28C341.111 201.724 341.471 201.33 341.646 201.099C341.826 200.864 341.956 200.645 342.037 200.439C342.118 200.234 342.159 200.015 342.159 199.78C342.159 199.458 342.062 199.204 341.866 199.019C341.674 198.833 341.407 198.74 341.065 198.74C340.792 198.74 340.527 198.791 340.27 198.892C340.016 198.993 339.721 199.175 339.386 199.438L338.766 198.682C339.163 198.346 339.549 198.109 339.923 197.969C340.297 197.829 340.696 197.759 341.119 197.759C341.783 197.759 342.315 197.933 342.716 198.281C343.116 198.626 343.316 199.092 343.316 199.678C343.316 200 343.258 200.306 343.141 200.596C343.027 200.885 342.849 201.185 342.608 201.494C342.371 201.8 341.974 202.215 341.417 202.739L340.177 203.94V203.989H343.565V205ZM346.861 200.542C347.581 200.542 348.15 200.732 348.57 201.113C348.99 201.494 349.2 202.013 349.2 202.671C349.2 203.433 348.961 204.028 348.482 204.458C348.007 204.884 347.33 205.098 346.451 205.098C345.654 205.098 345.027 204.969 344.571 204.712V203.672C344.835 203.822 345.138 203.937 345.479 204.019C345.821 204.1 346.139 204.141 346.432 204.141C346.949 204.141 347.343 204.025 347.613 203.794C347.883 203.563 348.019 203.224 348.019 202.778C348.019 201.925 347.475 201.499 346.388 201.499C346.235 201.499 346.046 201.515 345.821 201.548C345.597 201.577 345.4 201.611 345.23 201.65L344.718 201.348L344.991 197.861H348.702V198.882H346.002L345.841 200.649C345.955 200.63 346.093 200.607 346.256 200.581C346.422 200.555 346.624 200.542 346.861 200.542Z" fill="white"/>
<path d="M4.0957 154H2.94824V149.391C2.94824 148.84 2.96126 148.404 2.9873 148.082C2.91243 148.16 2.81966 148.246 2.70898 148.341C2.60156 148.435 2.23698 148.735 1.61523 149.239L1.03906 148.512L3.13867 146.861H4.0957V154ZM11.2783 150.431C11.2783 151.671 11.0781 152.592 10.6777 153.194C10.2806 153.797 9.67188 154.098 8.85156 154.098C8.05729 154.098 7.45508 153.787 7.04492 153.165C6.63477 152.543 6.42969 151.632 6.42969 150.431C6.42969 149.171 6.62826 148.243 7.02539 147.647C7.42578 147.049 8.03451 146.749 8.85156 146.749C9.64909 146.749 10.2529 147.062 10.6631 147.687C11.0732 148.312 11.2783 149.226 11.2783 150.431ZM7.5918 150.431C7.5918 151.404 7.69108 152.099 7.88965 152.516C8.09147 152.932 8.41211 153.141 8.85156 153.141C9.29102 153.141 9.61165 152.929 9.81348 152.506C10.0186 152.083 10.1211 151.391 10.1211 150.431C10.1211 149.474 10.0186 148.782 9.81348 148.355C9.61165 147.926 9.29102 147.711 8.85156 147.711C8.41211 147.711 8.09147 147.921 7.88965 148.341C7.69108 148.761 7.5918 149.457 7.5918 150.431Z" fill="white"/>
<path d="M8.42188 201.431C8.42188 202.671 8.22168 203.592 7.82129 204.194C7.42415 204.797 6.81543 205.098 5.99512 205.098C5.20085 205.098 4.59863 204.787 4.18848 204.165C3.77832 203.543 3.57324 202.632 3.57324 201.431C3.57324 200.171 3.77181 199.243 4.16895 198.647C4.56934 198.049 5.17806 197.749 5.99512 197.749C6.79264 197.749 7.39648 198.062 7.80664 198.687C8.2168 199.312 8.42188 200.226 8.42188 201.431ZM4.73535 201.431C4.73535 202.404 4.83464 203.099 5.0332 203.516C5.23503 203.932 5.55566 204.141 5.99512 204.141C6.43457 204.141 6.75521 203.929 6.95703 203.506C7.16211 203.083 7.26465 202.391 7.26465 201.431C7.26465 200.474 7.16211 199.782 6.95703 199.355C6.75521 198.926 6.43457 198.711 5.99512 198.711C5.55566 198.711 5.23503 198.921 5.0332 199.341C4.83464 199.761 4.73535 200.457 4.73535 201.431Z" fill="white"/>
<path d="M5.29688 111.502C5.29688 111.954 5.16504 112.332 4.90137 112.635C4.6377 112.934 4.2666 113.136 3.78809 113.24V113.279C4.361 113.351 4.79069 113.53 5.07715 113.816C5.36361 114.1 5.50684 114.477 5.50684 114.949C5.50684 115.636 5.26432 116.167 4.7793 116.541C4.29427 116.912 3.60417 117.098 2.70898 117.098C1.91797 117.098 1.25065 116.969 0.707031 116.712V115.691C1.00977 115.841 1.3304 115.957 1.66895 116.038C2.00749 116.119 2.33301 116.16 2.64551 116.16C3.19889 116.16 3.6123 116.058 3.88574 115.853C4.15918 115.647 4.2959 115.33 4.2959 114.9C4.2959 114.52 4.14453 114.24 3.8418 114.061C3.53906 113.882 3.0638 113.792 2.41602 113.792H1.7959V112.859H2.42578C3.5651 112.859 4.13477 112.465 4.13477 111.678C4.13477 111.372 4.03548 111.136 3.83691 110.97C3.63835 110.804 3.34538 110.721 2.95801 110.721C2.68783 110.721 2.42741 110.76 2.17676 110.838C1.92611 110.913 1.62988 111.061 1.28809 111.282L0.726562 110.481C1.38086 110 2.14095 109.759 3.00684 109.759C3.72624 109.759 4.28776 109.913 4.69141 110.223C5.09505 110.532 5.29688 110.958 5.29688 111.502ZM11.2783 113.431C11.2783 114.671 11.0781 115.592 10.6777 116.194C10.2806 116.797 9.67188 117.098 8.85156 117.098C8.05729 117.098 7.45508 116.787 7.04492 116.165C6.63477 115.543 6.42969 114.632 6.42969 113.431C6.42969 112.171 6.62826 111.243 7.02539 110.647C7.42578 110.049 8.03451 109.749 8.85156 109.749C9.64909 109.749 10.2529 110.062 10.6631 110.687C11.0732 111.312 11.2783 112.226 11.2783 113.431ZM7.5918 113.431C7.5918 114.404 7.69108 115.099 7.88965 115.516C8.09147 115.932 8.41211 116.141 8.85156 116.141C9.29102 116.141 9.61165 115.929 9.81348 115.506C10.0186 115.083 10.1211 114.391 10.1211 113.431C10.1211 112.474 10.0186 111.782 9.81348 111.355C9.61165 110.926 9.29102 110.711 8.85156 110.711C8.41211 110.711 8.09147 110.921 7.88965 111.341C7.69108 111.761 7.5918 112.457 7.5918 113.431Z" fill="white"/>
<path d="M3.14844 75.542C3.86784 75.542 4.4375 75.7324 4.85742 76.1133C5.27734 76.4941 5.4873 77.0133 5.4873 77.6709C5.4873 78.4326 5.24805 79.0283 4.76953 79.458C4.29427 79.8844 3.61719 80.0977 2.73828 80.0977C1.94076 80.0977 1.31413 79.9691 0.858398 79.7119V78.6719C1.12207 78.8216 1.4248 78.9372 1.7666 79.0186C2.1084 79.0999 2.42578 79.1406 2.71875 79.1406C3.23633 79.1406 3.63021 79.0251 3.90039 78.7939C4.17057 78.5628 4.30566 78.2243 4.30566 77.7783C4.30566 76.9255 3.76204 76.499 2.6748 76.499C2.52181 76.499 2.33301 76.5153 2.1084 76.5479C1.88379 76.5771 1.68685 76.6113 1.51758 76.6504L1.00488 76.3477L1.27832 72.8613H4.98926V73.8818H2.28906L2.12793 75.6494C2.24186 75.6299 2.38021 75.6071 2.54297 75.5811C2.70898 75.555 2.91081 75.542 3.14844 75.542ZM11.2783 76.4307C11.2783 77.6709 11.0781 78.5921 10.6777 79.1943C10.2806 79.7965 9.67188 80.0977 8.85156 80.0977C8.05729 80.0977 7.45508 79.7868 7.04492 79.165C6.63477 78.5433 6.42969 77.6318 6.42969 76.4307C6.42969 75.1709 6.62826 74.2432 7.02539 73.6475C7.42578 73.0485 8.03451 72.749 8.85156 72.749C9.64909 72.749 10.2529 73.0615 10.6631 73.6865C11.0732 74.3115 11.2783 75.2262 11.2783 76.4307ZM7.5918 76.4307C7.5918 77.404 7.69108 78.099 7.88965 78.5156C8.09147 78.9323 8.41211 79.1406 8.85156 79.1406C9.29102 79.1406 9.61165 78.929 9.81348 78.5059C10.0186 78.0827 10.1211 77.391 10.1211 76.4307C10.1211 75.4736 10.0186 74.7819 9.81348 74.3555C9.61165 73.9258 9.29102 73.7109 8.85156 73.7109C8.41211 73.7109 8.09147 73.9209 7.88965 74.3408C7.69108 74.7607 7.5918 75.4574 7.5918 76.4307Z" fill="white"/>
<path d="M1.53711 43L4.35938 36.8818H0.648438V35.8711H5.58496V36.6719L2.77734 43H1.53711ZM11.2783 39.4307C11.2783 40.6709 11.0781 41.5921 10.6777 42.1943C10.2806 42.7965 9.67188 43.0977 8.85156 43.0977C8.05729 43.0977 7.45508 42.7868 7.04492 42.165C6.63477 41.5433 6.42969 40.6318 6.42969 39.4307C6.42969 38.1709 6.62826 37.2432 7.02539 36.6475C7.42578 36.0485 8.03451 35.749 8.85156 35.749C9.64909 35.749 10.2529 36.0615 10.6631 36.6865C11.0732 37.3115 11.2783 38.2262 11.2783 39.4307ZM7.5918 39.4307C7.5918 40.404 7.69108 41.099 7.88965 41.5156C8.09147 41.9323 8.41211 42.1406 8.85156 42.1406C9.29102 42.1406 9.61165 41.929 9.81348 41.5059C10.0186 41.0827 10.1211 40.391 10.1211 39.4307C10.1211 38.4736 10.0186 37.7819 9.81348 37.3555C9.61165 36.9258 9.29102 36.7109 8.85156 36.7109C8.41211 36.7109 8.09147 36.9209 7.88965 37.3408C7.69108 37.7607 7.5918 38.4574 7.5918 39.4307Z" fill="white"/>
<defs>
<filter id="filter0_d_657_21140" x="11.5043" y="43.0002" width="379.51" height="124.868" filterUnits="userSpaceOnUse" color-interpolation-filters="sRGB">
<feFlood flood-opacity="0" result="BackgroundImageFix"/>
<feColorMatrix in="SourceAlpha" type="matrix" values="0 0 0 0 0 0 0 0 0 0 0 0 0 0 0 0 0 0 127 0" result="hardAlpha"/>
<feOffset dy="4"/>
<feGaussianBlur stdDeviation="2.5"/>
<feComposite in2="hardAlpha" operator="out"/>
<feColorMatrix type="matrix" values="0 0 0 0 0.415686 0 0 0 0 0.752941 0 0 0 0 0.6 0 0 0 0.25 0"/>
<feBlend mode="normal" in2="BackgroundImageFix" result="effect1_dropShadow_657_21140"/>
<feBlend mode="normal" in="SourceGraphic" in2="effect1_dropShadow_657_21140" result="shape"/>
</filter>
<linearGradient id="paint0_linear_657_21140" x1="144.424" y1="-32.4597" x2="193.008" y2="312.984" gradientUnits="userSpaceOnUse">
<stop stop-color="#01FFDB"/>
<stop offset="1" stop-color="#048086"/>
</linearGradient>
<clipPath id="clip0_657_21140">
<rect width="190" height="368" fill="white" transform="translate(19 190) rotate(-90)"/>
</clipPath>
</defs>
</svg>
