<svg width="32" height="32" viewBox="0 0 32 32" fill="none" xmlns="http://www.w3.org/2000/svg">
<path d="M0 10C0 4.47715 4.47715 0 10 0H22C27.5228 0 32 4.47715 32 10V22C32 27.5228 27.5228 32 22 32H10C4.47715 32 0 27.5228 0 22V10Z" fill="white"/>
<path d="M12.7273 8C10.12 8 8 10.12 8 12.7273V19.2727C8 21.88 10.12 24 12.7273 24H19.2727C21.88 24 24 21.88 24 19.2727V12.7273C24 10.12 21.88 8 19.2727 8H12.7273ZM20.3636 10.9091C20.7636 10.9091 21.0909 11.2364 21.0909 11.6364C21.0909 12.0364 20.7636 12.3636 20.3636 12.3636C19.9636 12.3636 19.6364 12.0364 19.6364 11.6364C19.6364 11.2364 19.9636 10.9091 20.3636 10.9091ZM16 12C18.2073 12 20 13.7927 20 16C20 18.2073 18.2073 20 16 20C13.7927 20 12 18.2073 12 16C12 13.7927 13.7927 12 16 12ZM16 12.7273C14.1964 12.7273 12.7273 14.1964 12.7273 16C12.7273 17.8036 14.1964 19.2727 16 19.2727C17.8036 19.2727 19.2727 17.8036 19.2727 16C19.2727 14.1964 17.8036 12.7273 16 12.7273Z" fill="#009393"/>
</svg>
