<svg width="24" height="26" viewBox="0 0 24 26" fill="#01FFDB" xmlns="http://www.w3.org/2000/svg">
<path d="M21.1 24.2501V24.25V4C21.1 3.17783 20.7734 2.38933 20.192 1.80797C19.6107 1.22661 18.8222 0.9 18 0.9H6C5.17783 0.9 4.38933 1.22661 3.80797 1.80797C3.22661 2.38933 2.9 3.17783 2.9 4L2.9 24.25L2.9 24.2501C2.90008 24.4038 2.94186 24.5547 3.02089 24.6865C3.09993 24.8184 3.21325 24.9264 3.3488 24.999C3.48435 25.0715 3.63704 25.106 3.79061 25.0986C3.9426 25.0914 4.08982 25.0434 4.21691 24.9599L12 20.7651L19.7831 24.9599C19.9102 25.0434 20.0574 25.0914 20.2094 25.0986C20.363 25.106 20.5157 25.0715 20.6512 24.999C20.7867 24.9264 20.9001 24.8184 20.9791 24.6865C21.0581 24.5547 21.0999 24.4038 21.1 24.2501ZM5.01005 3.01005C5.2726 2.7475 5.6287 2.6 6 2.6H18C18.3713 2.6 18.7274 2.7475 18.9899 3.01005C19.2525 3.2726 19.4 3.6287 19.4 4V22.6835L12.4664 19.0398C12.3279 18.9489 12.1658 18.9004 12 18.9004C11.8342 18.9004 11.6721 18.9489 11.5336 19.0398L4.6 22.6835V4C4.6 3.6287 4.7475 3.2726 5.01005 3.01005Z" fill="#01FFDB" stroke="#01FFDB" stroke-width="1"/>
</svg>
