<svg width="32" height="32" viewBox="0 0 32 32" fill="none" xmlns="http://www.w3.org/2000/svg">
<path d="M26.582 12.549C26.582 9.82594 25.5003 7.21439 23.5748 5.28889C21.6493 3.36338 19.0377 2.28164 16.3146 2.28164C13.5916 2.28164 10.98 3.36338 9.05451 5.28889C7.129 7.21439 6.04726 9.82594 6.04726 12.549C6.04726 16.7609 9.41725 22.2506 16.3146 28.8262C23.212 22.2506 26.582 16.7609 26.582 12.549ZM16.3146 31.943C7.94787 24.3383 3.76562 17.8721 3.76562 12.549C3.76562 9.22081 5.08775 6.02892 7.44115 3.67552C9.79454 1.32213 12.9864 0 16.3146 0C19.6428 0 22.8347 1.32213 25.1881 3.67552C27.5415 6.02892 28.8637 9.22081 28.8637 12.549C28.8637 17.8721 24.6814 24.3383 16.3146 31.943Z" fill="#01FFDB"/>
<path d="M16.3135 15.9715C17.2212 15.9715 18.0917 15.6109 18.7335 14.9691C19.3754 14.3272 19.7359 13.4567 19.7359 12.549C19.7359 11.6413 19.3754 10.7708 18.7335 10.129C18.0917 9.48713 17.2212 9.12655 16.3135 9.12655C15.4058 9.12655 14.5353 9.48713 13.8934 10.129C13.2516 10.7708 12.891 11.6413 12.891 12.549C12.891 13.4567 13.2516 14.3272 13.8934 14.9691C14.5353 15.6109 15.4058 15.9715 16.3135 15.9715ZM16.3135 18.2531C14.8007 18.2531 13.3498 17.6521 12.2801 16.5824C11.2103 15.5127 10.6094 14.0618 10.6094 12.549C10.6094 11.0362 11.2103 9.58533 12.2801 8.5156C13.3498 7.44588 14.8007 6.84491 16.3135 6.84491C17.8263 6.84491 19.2772 7.44588 20.3469 8.5156C21.4166 9.58533 22.0176 11.0362 22.0176 12.549C22.0176 14.0618 21.4166 15.5127 20.3469 16.5824C19.2772 17.6521 17.8263 18.2531 16.3135 18.2531Z" fill="#01FFDB"/>
</svg>
