<svg width="32" height="32" viewBox="0 0 32 32" fill="none" xmlns="http://www.w3.org/2000/svg">
<path d="M20.8133 16C20.8133 18.6533 18.6533 20.8133 16 20.8133C13.3467 20.8133 11.1867 18.6533 11.1867 16C11.1867 13.3467 13.3467 11.1867 16 11.1867C18.6533 11.1867 20.8133 13.3467 20.8133 16ZM16 0C7.17733 0 0 7.17733 0 16C0 24.8227 7.17733 32 16 32C19.232 32 22.348 31.0373 25.0133 29.2173L25.0587 29.1853L22.9027 26.68L22.8667 26.7027C20.8195 28.0216 18.4353 28.7221 16 28.72C8.98667 28.72 3.28 23.0133 3.28 16C3.28 8.98667 8.98667 3.28 16 3.28C23.0133 3.28 28.72 8.98667 28.72 16C28.7181 16.9192 28.6176 17.8356 28.42 18.7333C28.0187 20.3853 26.8613 20.8907 25.9933 20.824C25.1213 20.7533 24.1 20.1307 24.092 18.6093V16C24.0899 13.8544 23.2367 11.7973 21.7197 10.28C20.2026 8.76266 18.1456 7.90914 16 7.90667C13.8542 7.90878 11.7968 8.76215 10.2795 10.2795C8.76215 11.7968 7.90878 13.8542 7.90667 16C7.90878 18.1458 8.76215 20.2032 10.2795 21.7205C11.7968 23.2378 13.8542 24.0912 16 24.0933C17.0665 24.0959 18.1227 23.886 19.1071 23.4757C20.0916 23.0655 20.9843 22.4632 21.7333 21.704C22.2068 22.4474 22.8614 23.0583 23.6357 23.4793C24.41 23.9003 25.2787 24.1175 26.16 24.1107C27.3253 24.1107 28.48 23.7213 29.4093 23.016C30.368 22.2867 31.084 21.2347 31.48 19.9693C31.5427 19.764 31.66 19.2973 31.66 19.2933L31.6627 19.276C31.896 18.2627 32 17.2493 32 16C32 7.17733 24.8227 0 16 0" fill="#01FFDB"/>
</svg>
