<svg width="31" height="31" viewBox="0 0 31 31" fill="none" xmlns="http://www.w3.org/2000/svg">
<path d="M27.2705 30.8148H27.0691C3.78018 29.4756 0.473511 9.82519 0.0112887 3.82815C-0.0259555 3.36187 0.0291715 2.89283 0.173511 2.44789C0.31785 2.00296 0.548565 1.59088 0.852435 1.23526C1.15631 0.879645 1.52736 0.587482 1.94434 0.375513C2.36132 0.163545 2.81602 0.035937 3.2824 1.11122e-06H9.81277C10.2875 -0.00045846 10.7514 0.141642 11.1445 0.407897C11.5375 0.674151 11.8416 1.05229 12.0172 1.49333L13.8187 5.92593C13.9921 6.3568 14.0352 6.82913 13.9425 7.28426C13.8498 7.73938 13.6254 8.15724 13.2972 8.48593L10.7728 11.0341C11.1671 13.275 12.2402 15.3406 13.847 16.9517C15.4538 18.5627 17.5166 19.6412 19.7565 20.0415L22.3283 17.4933C22.662 17.1688 23.0837 16.9496 23.5411 16.8632C23.9985 16.7768 24.4711 16.827 24.9002 17.0074L29.3683 18.797C29.8027 18.9782 30.1733 19.2846 30.433 19.6772C30.6926 20.0698 30.8294 20.5308 30.8261 21.0015V27.2593C30.8261 28.2023 30.4515 29.1066 29.7847 29.7734C29.1179 30.4402 28.2135 30.8148 27.2705 30.8148ZM3.56684 2.37037C3.25251 2.37037 2.95106 2.49524 2.72879 2.7175C2.50653 2.93977 2.38166 3.24123 2.38166 3.55556V3.65037C2.92684 10.6667 6.42314 27.2593 27.1994 28.4444C27.3551 28.4541 27.5112 28.4329 27.6587 28.382C27.8062 28.3312 27.9422 28.2518 28.0589 28.1483C28.1756 28.0448 28.2708 27.9192 28.3389 27.7789C28.407 27.6385 28.4467 27.4861 28.4557 27.3304V21.0015L23.9876 19.2119L20.5861 22.5896L20.0172 22.5185C9.7061 21.2267 8.30759 10.9156 8.30759 10.8089L8.23647 10.24L11.6024 6.83852L9.82462 2.37037H3.56684Z" fill="#01FFDB"/>
</svg>
