<svg width="10" height="10" viewBox="0 0 10 10" fill="none" xmlns="http://www.w3.org/2000/svg">
<path d="M5 0C4.63664 0 4.34211 0.294553 4.34211 0.657895V4.34212H0.657895C0.294553 4.34212 0 4.63666 0 5.00002C0 5.36337 0.294553 5.65791 0.657895 5.65791H4.34211V9.34211C4.34211 9.70545 4.63664 10 5 10C5.36336 10 5.6579 9.70545 5.6579 9.34211V5.65791H9.34211C9.70545 5.65791 10 5.36337 10 5.00002C10 4.63666 9.70545 4.34212 9.34211 4.34212H5.6579V0.657895C5.6579 0.294553 5.36336 0 5 0Z" fill="white"/>
</svg>
