<svg width="71" height="71" viewBox="0 0 71 71" fill="none" xmlns="http://www.w3.org/2000/svg">
<g clip-path="url(#clip0_150_2184)">
<path d="M50.1729 70.7201L50.1758 70.7171L64.6853 55.5865C64.6859 55.5859 64.6865 55.5853 64.6871 55.5847C64.8617 55.4128 64.9675 55.1723 64.9675 54.9276L64.967 12.9541C64.967 9.39649 62.6534 6.42621 59.4478 5.28436C58.3137 2.12339 55.2375 -0.15 51.6297 -0.15L15.1703 -0.149886C10.5775 -0.149886 6.85 3.5166 6.85 8.04601V57.9193C6.85 61.4765 9.16326 64.4772 12.3698 65.6189C13.5303 68.7787 16.5772 71.0243 20.1562 71.0243H49.4475C49.726 71.0243 49.9693 70.9209 50.1729 70.7201ZM57.7332 6.27418V6.2987L57.7411 6.32196C57.8242 6.56947 57.8821 6.87721 57.9104 7.16019L57.9112 7.16786L57.9127 7.17541C57.9703 7.45569 57.9984 7.73526 57.9984 8.04551V49.0261H51.8067C47.2128 49.0261 43.4864 52.6926 43.4864 57.223V64.1598L15.1702 64.1603C14.886 64.1603 14.571 64.1328 14.2776 64.103C14.1354 64.0749 13.9854 64.0398 13.8322 64.0039L13.8312 64.0036C13.6829 63.9688 13.5316 63.9334 13.3866 63.9045C13.3545 63.8906 13.3239 63.8811 13.2906 63.8759C13.2719 63.8729 13.2535 63.8716 13.2364 63.8711C13.2307 63.8687 13.2248 63.8665 13.2185 63.8647C13.1959 63.858 13.172 63.8561 13.1483 63.8595C13.1431 63.8603 13.1382 63.8613 13.1336 63.8624C10.6215 63.0242 8.80143 60.6808 8.80143 57.9196V8.04625C8.80143 4.55849 11.6227 1.77728 15.1701 1.77728H15.2501L15.2502 1.77704H51.6307C54.508 1.77704 56.8938 3.58555 57.7053 6.12688C57.7083 6.16432 57.7167 6.19779 57.7221 6.21903L57.7232 6.22346C57.7313 6.25583 57.7332 6.26671 57.7332 6.27418ZM59.9516 8.04033C59.9516 7.93643 59.9516 7.83723 59.9474 7.73606C61.7737 8.81475 62.9859 10.7035 62.9859 12.9541V54.4889L49.0004 69.0965H20.1556C17.8666 69.0965 15.9462 67.8748 14.8506 66.0985L14.8532 66.0987C14.9522 66.1058 15.0606 66.1134 15.1698 66.1134H44.4905H44.5502H44.6117L44.6445 66.081L44.6545 66.0779C44.7347 66.0529 44.8214 66.0237 44.8894 65.9933C44.9301 65.9842 44.9609 65.9643 44.979 65.951C44.9966 65.9381 45.0125 65.9236 45.0256 65.9107H45.1734V65.7939L59.6738 50.6729L59.674 50.6731L59.68 50.666C59.8443 50.4721 59.9516 50.2357 59.9516 49.9887V8.04434V8.04033ZM17.0579 16.7552V16.7548L17.0475 16.7555C16.7913 16.7733 16.5639 16.916 16.4072 17.1083C16.2503 17.3008 16.1537 17.5556 16.1714 17.8166L16.171 17.8166L16.1724 17.8265C16.2076 18.0878 16.3565 18.3169 16.552 18.4717C16.7445 18.6241 16.9942 18.7138 17.2457 18.6822H49.5952C50.1179 18.6822 50.5712 18.24 50.5712 17.7184C50.5712 17.1974 50.1185 16.7547 49.5952 16.7547L17.2358 16.7552H17.0579ZM17.1274 32.0057C16.6212 32.034 16.1957 32.4997 16.23 33.0067C16.2475 33.2686 16.3794 33.5066 16.5625 33.6741C16.7439 33.8402 16.9874 33.9474 17.2408 33.9313H49.5952C50.1179 33.9313 50.5712 33.4892 50.5712 32.9676C50.5712 32.457 50.1276 31.9734 49.5908 32.0038L17.3002 32.0043C17.272 31.9886 17.2422 31.9828 17.2169 31.9828C17.1824 31.9828 17.1524 31.9925 17.1274 32.0057ZM17.0874 47.2547H17.0777L17.068 47.256C16.5575 47.3228 16.1322 47.7919 16.2013 48.3202C16.2206 48.5845 16.3631 48.8145 16.5531 48.9724C16.7425 49.1299 16.9912 49.2261 17.2404 49.2099H41.2771C41.5323 49.2099 41.7753 49.0856 41.9519 48.9074C42.1288 48.7288 42.2531 48.4819 42.2531 48.2175C42.2531 47.9519 42.1275 47.7115 41.9489 47.5398C41.7706 47.3686 41.5282 47.2547 41.2771 47.2547H17.2366H17.1779H17.0882H17.0874ZM51.8067 50.9535H56.6757L45.438 62.6585V57.222C45.438 53.7343 48.2592 50.9536 51.8066 50.9535C51.8066 50.9535 51.8067 50.9535 51.8067 50.9535Z" fill="white" stroke="white" stroke-width="0.3"/>
</g>
<defs>
<clipPath id="clip0_150_2184">
<rect width="71" height="71" fill="white"/>
</clipPath>
</defs>
</svg>
