<svg width="10" height="18" viewBox="0 0 10 18" fill="none" xmlns="http://www.w3.org/2000/svg">
<path d="M0.372001 16.323C-0.0021744 16.7292 0.0237999 17.3618 0.430016 17.736C0.836232 18.1102 1.46886 18.0842 1.84304 17.678L0.372001 16.323ZM8.47656 9.00043L9.21208 9.67793C9.56472 9.29509 9.56472 8.70576 9.21208 8.32292L8.47656 9.00043ZM1.84304 0.322859C1.46886 -0.0833562 0.83623 -0.10933 0.430014 0.264844C0.0237986 0.63902 -0.00217564 1.27165 0.371999 1.67787L1.84304 0.322859ZM1.84304 17.678L9.21208 9.67793L7.74104 8.32292L0.372001 16.323L1.84304 17.678ZM9.21208 8.32292L1.84304 0.322859L0.371999 1.67787L7.74104 9.67793L9.21208 8.32292Z" fill="#009393"/>
</svg>
