<svg width="24" height="24" viewBox="0 0 24 24" fill="none" xmlns="http://www.w3.org/2000/svg">
<path d="M23.9999 22.7884L17.5268 16.3153C19.0823 14.4478 19.858 12.0526 19.6925 9.62776C19.527 7.20296 18.433 4.93532 16.6381 3.29657C14.8433 1.65782 12.4857 0.774134 10.0559 0.829344C7.62607 0.884554 5.31108 1.87441 3.59249 3.59299C1.87391 5.31157 0.884058 7.62656 0.828848 10.0564C0.773638 12.4862 1.65732 14.8438 3.29607 16.6386C4.93482 18.4335 7.20246 19.5275 9.62726 19.693C12.0521 19.8585 14.4473 19.0828 16.3148 17.5273L22.7879 24.0004L23.9999 22.7884ZM2.57135 10.2861C2.57135 8.76039 3.02378 7.26891 3.87144 6.0003C4.71909 4.73169 5.9239 3.74293 7.3335 3.15906C8.7431 2.57518 10.2942 2.42241 11.7906 2.72007C13.287 3.01773 14.6616 3.75244 15.7405 4.8313C16.8193 5.91017 17.554 7.28472 17.8517 8.78115C18.1493 10.2776 17.9966 11.8287 17.4127 13.2383C16.8288 14.6479 15.8401 15.8527 14.5715 16.7003C13.3029 17.548 11.8114 18.0004 10.2856 18.0004C8.24037 17.9981 6.27953 17.1847 4.83331 15.7384C3.3871 14.2922 2.57361 12.3314 2.57135 10.2861Z" fill="#01FFDB"/>
</svg>
