<svg width="24" height="24" viewBox="0 0 24 24" fill="none" xmlns="http://www.w3.org/2000/svg">
<path d="M-0.00163456 22.788L6.47151 16.3148C4.91597 14.4474 4.14028 12.0521 4.3058 9.62733C4.47131 7.20253 5.56529 4.93489 7.36016 3.29614C9.15503 1.65739 11.5126 0.773707 13.9424 0.828917C16.3722 0.884127 18.6872 1.87398 20.4058 3.59256C22.1244 5.31115 23.1142 7.62613 23.1694 10.0559C23.2246 12.4858 22.341 14.8433 20.7022 16.6382C19.0635 18.4331 16.7958 19.527 14.371 19.6926C11.9462 19.8581 9.55095 19.0824 7.68351 17.5268L1.21037 24L-0.00163456 22.788ZM21.4269 10.2857C21.4269 8.75996 20.9745 7.26848 20.1268 5.99987C19.2792 4.73127 18.0744 3.74251 16.6648 3.15863C15.2552 2.57475 13.7041 2.42198 12.2077 2.71964C10.7112 3.0173 9.33669 3.75201 8.25783 4.83088C7.17897 5.90974 6.44425 7.28429 6.14659 8.78072C5.84894 10.2771 6.0017 11.8282 6.58558 13.2378C7.16946 14.6474 8.15822 15.8522 9.42682 16.6999C10.6954 17.5476 12.1869 18 13.7127 18C15.7579 17.9977 17.7188 17.1842 19.165 15.738C20.6112 14.2918 21.4247 12.331 21.4269 10.2857V10.2857Z" fill="white"/>
</svg>
