<svg width="32" height="32" viewBox="0 0 32 32" fill="none" xmlns="http://www.w3.org/2000/svg">
<path d="M0 10C0 4.47715 4.47715 0 10 0H22C27.5228 0 32 4.47715 32 10V22C32 27.5228 27.5228 32 22 32H10C4.47715 32 0 27.5228 0 22V10Z" fill="white"/>
<path fill-rule="evenodd" clip-rule="evenodd" d="M22.2576 8.28379C21.6278 8.56954 14.5276 11.8842 8.74437 14.5703C8.2863 14.7989 8 15.2561 8 15.7133C8 16.1705 8.34356 16.5134 8.74437 16.5705C9.08793 16.6277 12.5235 17.142 12.5235 17.142L13.4969 22.857L14.0122 20.3424L13.2679 16.5705L20.2535 11.427L14.5276 17.7135L16.5317 19.9995C16.6462 20.1138 19.1083 22.9713 19.2801 23.1428C19.5664 23.4285 20.0245 24 20.2535 24C20.6544 24 21.0552 23.4285 21.2269 22.5713C21.3987 21.7712 22.5439 16.2276 23.9754 8.85529C24.1472 8.05519 23.4028 7.71229 22.2576 8.28379Z" fill="#009393"/>
</svg>
