<svg width="20" height="24" viewBox="0 0 20 24" fill="none" xmlns="http://www.w3.org/2000/svg">
<path d="M2.4 0C1.76348 0 1.15303 0.252856 0.702944 0.702944C0.252856 1.15303 0 1.76348 0 2.4V21.6C0 22.2365 0.252856 22.847 0.702944 23.2971C1.15303 23.7471 1.76348 24 2.4 24H17.6C18.2365 24 18.847 23.7471 19.2971 23.2971C19.7471 22.847 20 22.2365 20 21.6V9.578C20 8.849 19.71 8.15 19.195 7.634L12.264 0.703C11.8139 0.252906 11.2035 2.98497e-05 10.567 0H2.4ZM1.5 2.4C1.5 2.16131 1.59482 1.93239 1.7636 1.7636C1.93239 1.59482 2.16131 1.5 2.4 1.5H10V8C10 8.53043 10.2107 9.03914 10.5858 9.41421C10.9609 9.78929 11.4696 10 12 10H18.5V21.6C18.5 21.8387 18.4052 22.0676 18.2364 22.2364C18.0676 22.4052 17.8387 22.5 17.6 22.5H2.4C2.16131 22.5 1.93239 22.4052 1.7636 22.2364C1.59482 22.0676 1.5 21.8387 1.5 21.6V2.4ZM17.94 8.5H12C11.8674 8.5 11.7402 8.44732 11.6464 8.35355C11.5527 8.25979 11.5 8.13261 11.5 8V2.06L17.94 8.5Z" fill="#01FFDB"/>
</svg>
