<svg width="32" height="32" viewBox="0 0 32 32" fill="none" xmlns="http://www.w3.org/2000/svg">
<path d="M0 10C0 4.47715 4.47715 0 10 0H22C27.5228 0 32 4.47715 32 10V22C32 27.5228 27.5228 32 22 32H10C4.47715 32 0 27.5228 0 22V10Z" fill="white"/>
<path d="M23.8514 19.3395C23.8514 19.2758 23.7877 19.2758 23.7877 19.2122C23.5331 18.7029 22.9601 18.0663 22.1962 17.366C21.8143 17.0477 21.6233 16.7931 21.4959 16.6657C21.305 16.4111 21.305 16.2201 21.3686 15.9655C21.4323 15.7745 21.6869 15.4562 22.1326 14.8833C22.3872 14.565 22.5145 14.374 22.7055 14.183C23.6604 12.9098 24.106 12.0822 23.9787 11.7003L23.915 11.6366C23.8514 11.5729 23.7877 11.5093 23.6604 11.5093C23.5331 11.4456 23.3421 11.4456 23.1511 11.5093H20.732C20.6684 11.5093 20.6684 11.5093 20.541 11.5093C20.4774 11.5093 20.4137 11.5093 20.4137 11.5093H20.3501H20.2864L20.2227 11.5729C20.1591 11.6366 20.1591 11.6366 20.1591 11.7003C19.9044 12.4005 19.5861 12.9735 19.2678 13.6101C19.0769 13.9284 18.8859 14.2467 18.6949 14.5013C18.5039 14.7559 18.3766 14.9469 18.2493 15.0742C18.122 15.2016 17.9946 15.2652 17.931 15.3925C17.8673 15.4562 17.74 15.5199 17.74 15.4562C17.6763 15.4562 17.6127 15.4562 17.6127 15.3925C17.549 15.3289 17.4854 15.2652 17.4217 15.2016C17.358 15.1379 17.358 15.0106 17.2944 14.8833C17.2944 14.7559 17.2944 14.6286 17.2944 14.565C17.2944 14.5013 17.2944 14.3103 17.2944 14.183C17.2944 13.992 17.2944 13.8647 17.2944 13.801C17.2944 13.6101 17.2944 13.3554 17.2944 13.1008C17.2944 12.8461 17.2944 12.6552 17.2944 12.5278C17.2944 12.4005 17.2944 12.2095 17.2944 12.0822C17.2944 11.8912 17.2944 11.7639 17.2944 11.7003C17.2944 11.6366 17.2307 11.5093 17.2307 11.4456C17.1671 11.382 17.1034 11.3183 17.0397 11.2546C16.9761 11.191 16.8488 11.191 16.7851 11.1273C16.4668 11.0637 16.0848 11 15.6392 11C14.6207 11 13.9204 11.0637 13.6658 11.191C13.5384 11.2546 13.4111 11.3183 13.3475 11.4456C13.2201 11.5729 13.2201 11.6366 13.2838 11.6366C13.6021 11.7003 13.8567 11.8276 13.9841 12.0186L14.0477 12.1459C14.1114 12.2095 14.1114 12.3369 14.175 12.5278C14.2387 12.7188 14.2387 12.9098 14.2387 13.1644C14.2387 13.5464 14.2387 13.9284 14.2387 14.183C14.2387 14.5013 14.175 14.6923 14.175 14.8833C14.175 15.0742 14.1114 15.2016 14.0477 15.2652C13.9841 15.3925 13.9841 15.4562 13.9204 15.4562C13.9204 15.4562 13.9204 15.5199 13.8567 15.5199C13.7931 15.5199 13.7294 15.5835 13.6021 15.5835C13.5384 15.5835 13.4111 15.5199 13.3475 15.4562C13.2201 15.3925 13.0928 15.2652 13.0292 15.1379C12.9018 15.0106 12.7745 14.8196 12.6472 14.565C12.5199 14.3103 12.3289 14.0557 12.2016 13.6737L12.0743 13.4191C12.0106 13.2918 11.8833 13.0371 11.756 12.7188C11.6286 12.4005 11.5013 12.1459 11.374 11.8276C11.3103 11.7003 11.2467 11.6366 11.183 11.5729H11.1194C11.1194 11.5729 11.0557 11.5093 10.992 11.5093C10.9284 11.5093 10.8647 11.4456 10.8011 11.4456H8.50928C8.25464 11.4456 8.12732 11.5093 8.06366 11.5729L8 11.6366C8 11.6366 8 11.7003 8 11.7639C8 11.8276 8 11.8912 8.06366 12.0186C8.38196 12.7825 8.76392 13.5464 9.14588 14.3103C9.52785 15.0106 9.90981 15.6472 10.1645 16.0928C10.4828 16.5384 10.7374 16.9841 11.0557 17.366C11.374 17.748 11.565 18.0026 11.6286 18.1299C11.7559 18.2573 11.8196 18.3209 11.8833 18.3846L12.0743 18.5756C12.2016 18.7029 12.3926 18.8939 12.6472 19.0848C12.9018 19.2758 13.2201 19.4668 13.5384 19.6578C13.8567 19.8488 14.2387 19.9761 14.6207 20.1034C15.0663 20.2307 15.4482 20.2944 15.8302 20.2307H16.7851C16.9761 20.2307 17.1034 20.1671 17.2307 20.0397L17.2944 19.9761C17.2944 19.9124 17.358 19.9124 17.358 19.8488C17.358 19.7851 17.358 19.7214 17.358 19.5941C17.358 19.3395 17.358 19.1485 17.4217 18.9575C17.4854 18.7665 17.4854 18.6392 17.549 18.5119C17.6127 18.3846 17.6763 18.3209 17.74 18.2573C17.8037 18.1936 17.8673 18.1299 17.8673 18.1299H17.931C18.0583 18.0663 18.2493 18.1299 18.3766 18.2573C18.5676 18.3846 18.7586 18.5756 18.8859 18.7665C19.0132 18.9575 19.2042 19.1485 19.4588 19.4031C19.7135 19.6578 19.9045 19.8488 20.0318 19.9124L20.2227 20.0397C20.3501 20.1034 20.4774 20.1671 20.6684 20.2307C20.8594 20.2944 20.9867 20.2944 21.114 20.2944L23.2784 20.2307C23.4694 20.2307 23.6604 20.1671 23.7877 20.1034C23.915 20.0397 23.9787 19.9761 23.9787 19.8488C23.9787 19.7851 23.9787 19.6578 23.9787 19.5941C23.8514 19.4668 23.8514 19.4031 23.8514 19.3395Z" fill="#009393"/>
</svg>
