<svg width="32" height="32" viewBox="0 0 32 32" fill="none" xmlns="http://www.w3.org/2000/svg">
<path d="M0 10C0 4.47715 4.47715 0 10 0H22C27.5228 0 32 4.47715 32 10V22C32 27.5228 27.5228 32 22 32H10C4.47715 32 0 27.5228 0 22V10Z" fill="white"/>
<path d="M21.6585 10.3333C20.1533 8.83333 18.1463 8 16.0279 8C11.6237 8 8.05575 11.5556 8.05575 15.9444C8.05575 17.3333 8.44599 18.7222 9.11498 19.8889L8 24L12.2369 22.8889C13.4077 23.5 14.6899 23.8333 16.0279 23.8333C20.4321 23.8333 24 20.2778 24 15.8889C23.9443 13.8333 23.1638 11.8333 21.6585 10.3333ZM19.8746 18.7778C19.7073 19.2222 18.9268 19.6667 18.5366 19.7222C18.2021 19.7778 17.7561 19.7778 17.3101 19.6667C17.0314 19.5556 16.6411 19.4444 16.1951 19.2222C14.1882 18.3889 12.9059 16.3889 12.7944 16.2222C12.6829 16.1111 11.9582 15.1667 11.9582 14.1667C11.9582 13.1667 12.4599 12.7222 12.6272 12.5C12.7944 12.2778 13.0174 12.2778 13.1847 12.2778C13.2962 12.2778 13.4634 12.2778 13.5749 12.2778C13.6864 12.2778 13.8537 12.2222 14.0209 12.6111C14.1882 13 14.5784 14 14.6341 14.0556C14.6899 14.1667 14.6899 14.2778 14.6341 14.3889C14.5784 14.5 14.5226 14.6111 14.4111 14.7222C14.2996 14.8333 14.1882 15 14.1324 15.0556C14.0209 15.1667 13.9094 15.2778 14.0209 15.4444C14.1324 15.6667 14.5226 16.2778 15.1359 16.8333C15.9164 17.5 16.5296 17.7222 16.7526 17.8333C16.9756 17.9444 17.0871 17.8889 17.1986 17.7778C17.3101 17.6667 17.7003 17.2222 17.8118 17C17.9233 16.7778 18.0906 16.8333 18.2578 16.8889C18.4251 16.9444 19.4286 17.4444 19.5958 17.5556C19.8188 17.6667 19.9303 17.7222 19.9861 17.7778C20.0418 17.9444 20.0418 18.3333 19.8746 18.7778Z" fill="#009393"/>
</svg>
