<svg width="8" height="8" viewBox="0 0 8 8" fill="none" xmlns="http://www.w3.org/2000/svg">
<path d="M1.1121 0.405493C1.0178 0.314414 0.891495 0.264016 0.760397 0.265156C0.629298 0.266295 0.503892 0.318879 0.411188 0.411583C0.318484 0.504288 0.265899 0.629694 0.26476 0.760792C0.263621 0.89189 0.314018 1.01819 0.405097 1.11249L3.2926 3.99999L0.404597 6.88749C0.356842 6.93362 0.318751 6.98879 0.292546 7.04979C0.266342 7.11079 0.252549 7.1764 0.251972 7.24279C0.251395 7.30918 0.264046 7.37502 0.289186 7.43647C0.314327 7.49792 0.351453 7.55374 0.3984 7.60069C0.445346 7.64764 0.501172 7.68476 0.56262 7.7099C0.624068 7.73504 0.689908 7.7477 0.756298 7.74712C0.822687 7.74654 0.888297 7.73275 0.949299 7.70654C1.0103 7.68034 1.06547 7.64225 1.1116 7.59449L3.9996 4.70699L6.8871 7.59449C6.9814 7.68557 7.1077 7.73597 7.2388 7.73483C7.3699 7.73369 7.4953 7.68111 7.58801 7.5884C7.68071 7.4957 7.73329 7.37029 7.73443 7.23919C7.73557 7.1081 7.68518 6.98179 7.5941 6.88749L4.7066 3.99999L7.5941 1.11249C7.68518 1.01819 7.73557 0.89189 7.73443 0.760792C7.73329 0.629694 7.68071 0.504288 7.58801 0.411583C7.4953 0.318879 7.3699 0.266295 7.2388 0.265156C7.1077 0.264016 6.9814 0.314414 6.8871 0.405493L3.9996 3.29299L1.1121 0.404993V0.405493Z" fill="#01FFDB"/>
</svg>
