<svg width="52" height="52" viewBox="0 0 52 52" fill="none" xmlns="http://www.w3.org/2000/svg">
<path d="M23 36C23.5523 36 24 35.5523 24 35C24 34.4477 23.5523 34 23 34C22.4477 34 22 34.4477 22 35C22 35.5523 22.4477 36 23 36Z" stroke="#01FFDB" stroke-width="2" stroke-linecap="round" stroke-linejoin="round"/>
<path d="M34 36C34.5523 36 35 35.5523 35 35C35 34.4477 34.5523 34 34 34C33.4477 34 33 34.4477 33 35C33 35.5523 33.4477 36 34 36Z" stroke="#01FFDB" stroke-width="2" stroke-linecap="round" stroke-linejoin="round"/>
<path d="M15 15H19L21.68 28.39C21.7714 28.8504 22.0219 29.264 22.3875 29.5583C22.7532 29.8526 23.2107 30.009 23.68 30H33.4C33.8693 30.009 34.3268 29.8526 34.6925 29.5583C35.0581 29.264 35.3086 28.8504 35.4 28.39L37 20H20" stroke="#01FFDB" stroke-width="2" stroke-linecap="round" stroke-linejoin="round"/>
</svg>
