<svg width="24" height="24" viewBox="0 0 24 24" fill="none" xmlns="http://www.w3.org/2000/svg">
<path d="M22.5932 10.8122C23.1356 11.5217 23.1356 12.4795 22.5932 13.1878C20.8847 15.4181 16.7857 20.0103 12.0002 20.0103C7.21461 20.0103 3.11563 15.4181 1.40716 13.1878C1.14326 12.8481 1 12.4302 1 12C1 11.5699 1.14326 11.1519 1.40716 10.8122C3.11563 8.58192 7.21461 3.98975 12.0002 3.98975C16.7857 3.98975 20.8847 8.58192 22.5932 10.8122V10.8122Z" stroke="#01FFDB" stroke-width="2" stroke-linecap="round" stroke-linejoin="round"/>
<path d="M12.0004 15.4328C13.8963 15.4328 15.4333 13.8958 15.4333 11.9999C15.4333 10.1039 13.8963 8.56689 12.0004 8.56689C10.1044 8.56689 8.56738 10.1039 8.56738 11.9999C8.56738 13.8958 10.1044 15.4328 12.0004 15.4328Z" stroke="#01FFDB" stroke-width="2" stroke-linecap="round" stroke-linejoin="round"/>
</svg>
