<svg width="11" height="9" viewBox="0 0 11 9" fill="none" xmlns="http://www.w3.org/2000/svg">
<path d="M9.73647 0.219934C9.80471 0.1503 9.88617 0.0949814 9.97606 0.0572166C10.0659 0.0194519 10.1625 0 10.26 0C10.3575 0 10.454 0.0194519 10.5439 0.0572166C10.6338 0.0949814 10.7152 0.1503 10.7835 0.219934C11.0695 0.508934 11.0735 0.975934 10.7935 1.26993L4.88047 8.25993C4.81333 8.33366 4.73187 8.3929 4.64105 8.43406C4.55023 8.47521 4.45197 8.4974 4.35227 8.49927C4.25258 8.50115 4.15356 8.48266 4.06126 8.44495C3.96896 8.40723 3.88532 8.35108 3.81547 8.27993L0.217469 4.63393C0.0787056 4.49242 0.000976562 4.30213 0.000976562 4.10393C0.000976562 3.90574 0.0787056 3.71545 0.217469 3.57393C0.285714 3.5043 0.367167 3.44898 0.457057 3.41122C0.546947 3.37345 0.643468 3.354 0.740968 3.354C0.838469 3.354 0.93499 3.37345 1.02488 3.41122C1.11477 3.44898 1.19622 3.5043 1.26447 3.57393L4.31647 6.66693L9.71647 0.241934C9.72269 0.234206 9.72937 0.226859 9.73647 0.219934Z" fill="#009393"/>
</svg>
