<svg width="16" height="17" viewBox="0 0 16 17" fill="none" xmlns="http://www.w3.org/2000/svg">
<path d="M14.53 2.00101C14.1586 2.01339 13.8066 2.17021 13.5489 2.43814C10.7847 5.20879 8.26334 7.93417 5.59302 10.654L2.31968 8.04029C2.17327 7.92314 2.00523 7.83599 1.82514 7.7838C1.64505 7.73161 1.45644 7.71541 1.27009 7.73611C1.08374 7.75682 0.903298 7.81403 0.739057 7.90449C0.574815 7.99495 0.429996 8.11687 0.312868 8.2633C0.195739 8.40974 0.108596 8.57781 0.0564124 8.75793C0.00422883 8.93805 -0.0119729 9.12669 0.00873263 9.31307C0.0505494 9.68948 0.240158 10.0339 0.535847 10.2705L4.81705 13.696C5.09146 13.9149 5.43691 14.0251 5.78738 14.0053C6.13785 13.9856 6.46876 13.8373 6.71684 13.5889C9.79059 10.5081 12.5496 7.47628 15.5647 4.4542C15.7717 4.25403 15.9134 3.99589 15.9711 3.71368C16.0288 3.43148 15.9997 3.13843 15.8878 2.87304C15.7759 2.60764 15.5863 2.38232 15.344 2.22669C15.1016 2.07105 14.8179 1.99238 14.53 2.00101V2.00101Z" fill="#01FFDB"/>
</svg>
