<svg width="14" height="16" viewBox="0 0 14 16" fill="none" xmlns="http://www.w3.org/2000/svg">
<path d="M1.93325 0C1.50891 0 1.10194 0.168571 0.801881 0.468629C0.501823 0.768687 0.333252 1.17565 0.333252 1.6V14.4C0.333252 14.8243 0.501823 15.2313 0.801881 15.5314C1.10194 15.8314 1.50891 16 1.93325 16H12.0666C12.4909 16 12.8979 15.8314 13.198 15.5314C13.498 15.2313 13.6666 14.8243 13.6666 14.4V6.38533C13.6666 5.89933 13.4733 5.43333 13.1299 5.08933L8.50925 0.468667C8.20921 0.168604 7.80226 1.98998e-05 7.37792 0H1.93325ZM1.33325 1.6C1.33325 1.44087 1.39647 1.28826 1.50899 1.17574C1.62151 1.06321 1.77412 1 1.93325 1H6.99992V5.33333C6.99992 5.68696 7.14039 6.02609 7.39044 6.27614C7.64049 6.52619 7.97963 6.66667 8.33325 6.66667H12.6666V14.4C12.6666 14.5591 12.6034 14.7117 12.4909 14.8243C12.3783 14.9368 12.2257 15 12.0666 15H1.93325C1.77412 15 1.62151 14.9368 1.50899 14.8243C1.39647 14.7117 1.33325 14.5591 1.33325 14.4V1.6ZM12.2933 5.66667H8.33325C8.24485 5.66667 8.16006 5.63155 8.09755 5.56904C8.03504 5.50652 7.99992 5.42174 7.99992 5.33333V1.37333L12.2933 5.66667Z" fill="#01FFDB"/>
</svg>
