<svg width="24" height="24" viewBox="0 0 24 24" fill="none" xmlns="http://www.w3.org/2000/svg">
<path d="M4.4 0C3.76348 0 3.15303 0.252856 2.70294 0.702944C2.25286 1.15303 2 1.76348 2 2.4V21.6C2 22.2365 2.25286 22.847 2.70294 23.2971C3.15303 23.7471 3.76348 24 4.4 24H19.6C20.2365 24 20.847 23.7471 21.2971 23.2971C21.7471 22.847 22 22.2365 22 21.6V9.578C22 8.849 21.71 8.15 21.195 7.634L14.264 0.703C13.8139 0.252906 13.2035 2.98497e-05 12.567 0H4.4ZM3.5 2.4C3.5 2.16131 3.59482 1.93239 3.7636 1.7636C3.93239 1.59482 4.16131 1.5 4.4 1.5H12V8C12 8.53043 12.2107 9.03914 12.5858 9.41421C12.9609 9.78929 13.4696 10 14 10H20.5V21.6C20.5 21.8387 20.4052 22.0676 20.2364 22.2364C20.0676 22.4052 19.8387 22.5 19.6 22.5H4.4C4.16131 22.5 3.93239 22.4052 3.7636 22.2364C3.59482 22.0676 3.5 21.8387 3.5 21.6V2.4ZM19.94 8.5H14C13.8674 8.5 13.7402 8.44732 13.6464 8.35355C13.5527 8.25979 13.5 8.13261 13.5 8V2.06L19.94 8.5Z" fill="#01FFDB"/>
</svg>
