<svg width="10" height="10" viewBox="0 0 10 10" fill="none" xmlns="http://www.w3.org/2000/svg">
<path d="M1.39159 0.506988C1.27371 0.393139 1.11583 0.330143 0.951961 0.331567C0.788088 0.332991 0.63133 0.398721 0.51545 0.514601C0.39957 0.630482 0.333839 0.787239 0.332415 0.951112C0.330991 1.11499 0.393987 1.27286 0.507836 1.39074L4.11721 5.00011L0.507211 8.60949C0.447517 8.66714 0.399903 8.73611 0.367148 8.81236C0.334392 8.88861 0.317151 8.97063 0.31643 9.05361C0.315709 9.1366 0.331522 9.2189 0.362948 9.29571C0.394373 9.37252 0.440781 9.4423 0.499464 9.50099C0.558147 9.55967 0.62793 9.60608 0.70474 9.6375C0.78155 9.66893 0.86385 9.68474 0.946837 9.68402C1.02982 9.6833 1.11184 9.66606 1.18809 9.6333C1.26434 9.60055 1.33331 9.55293 1.39096 9.49324L5.00096 5.88386L8.61034 9.49324C8.72821 9.60709 8.88609 9.67008 9.04996 9.66866C9.21383 9.66724 9.37059 9.60151 9.48647 9.48563C9.60235 9.36975 9.66808 9.21299 9.66951 9.04911C9.67093 8.88524 9.60793 8.72737 9.49409 8.60949L5.88471 5.00011L9.49409 1.39074C9.60793 1.27286 9.67093 1.11499 9.66951 0.951112C9.66808 0.787239 9.60235 0.630482 9.48647 0.514601C9.37059 0.398721 9.21383 0.332991 9.04996 0.331567C8.88609 0.330143 8.72821 0.393139 8.61034 0.506988L5.00096 4.11636L1.39159 0.506363V0.506988Z" fill="#D05359"/>
</svg>
