<svg width="52" height="52" viewBox="0 0 52 52" fill="none" xmlns="http://www.w3.org/2000/svg">
<path d="M33.4065 14H22.3826C21.8953 14 21.428 14.1936 21.0834 14.5381C20.7388 14.8827 20.5452 15.35 20.5452 15.8373V17.6746H18.7079C18.2206 17.6746 17.7533 17.8682 17.4087 18.2128C17.0642 18.5573 16.8706 19.0247 16.8706 19.512V36.9665C16.8706 37.2102 16.9674 37.4438 17.1397 37.6161C17.312 37.7884 17.5456 37.8852 17.7893 37.8852C17.9826 37.8845 18.171 37.8244 18.329 37.7129L24.2199 33.4986L30.1223 37.7129C30.2584 37.8132 30.4202 37.8729 30.5889 37.8851C30.7575 37.8973 30.9262 37.8615 31.0754 37.7818C31.2236 37.7031 31.3477 37.5858 31.4347 37.4422C31.5216 37.2987 31.5681 37.1343 31.5692 36.9665V32.4536L33.7969 34.0383C33.9499 34.151 34.1351 34.2114 34.3252 34.2105C34.5688 34.2105 34.8025 34.1137 34.9747 33.9415C35.147 33.7692 35.2438 33.5355 35.2438 33.2919V15.8373C35.2438 15.35 35.0502 14.8827 34.7057 14.5381C34.3611 14.1936 33.8938 14 33.4065 14V14ZM29.7318 35.1866L24.7481 31.6268C24.5951 31.5141 24.4099 31.4537 24.2199 31.4545C24.0266 31.4552 23.8381 31.5153 23.6802 31.6268L18.7079 35.1866V19.512H29.7318V35.1866ZM33.4065 31.512L31.5692 30.1914V19.512C31.5692 19.0247 31.3756 18.5573 31.031 18.2128C30.6865 17.8682 30.2191 17.6746 29.7318 17.6746H22.3826V15.8373H33.4065V31.512Z" fill="#01FFDB"/>
</svg>
