<svg width="447" height="360" viewBox="0 0 447 360" fill="none" xmlns="http://www.w3.org/2000/svg">
<g filter="url(#filter0_d_628_21086)">
<line x1="34" y1="250.5" x2="422" y2="250.5" stroke="#424754"/>
<line x1="34" y1="217.5" x2="422" y2="217.5" stroke="#424754"/>
<line x1="34" y1="184.5" x2="422" y2="184.5" stroke="#424754"/>
<line x1="34" y1="151.5" x2="422" y2="151.5" stroke="#424754"/>
<line x1="227.5" y1="284" x2="227.5" y2="119" stroke="#424754"/>
<line x1="293.5" y1="284" x2="293.5" y2="119" stroke="#424754"/>
<line x1="359.5" y1="284" x2="359.5" y2="119" stroke="#424754"/>
<line x1="392.5" y1="284" x2="392.5" y2="119" stroke="#424754"/>
<line x1="260.5" y1="284" x2="260.5" y2="119" stroke="#424754"/>
<line x1="326.5" y1="284" x2="326.5" y2="119" stroke="#424754"/>
<line x1="194.5" y1="284" x2="194.5" y2="119" stroke="#424754"/>
<line x1="161.5" y1="284" x2="161.5" y2="119" stroke="#424754"/>
<line x1="128.5" y1="284" x2="128.5" y2="119" stroke="#424754"/>
<line x1="95.5" y1="284" x2="95.5" y2="119" stroke="#424754"/>
<line x1="62.5" y1="284" x2="62.5" y2="119" stroke="#424754"/>
<g filter="url(#filter1_d_628_21086)">
<path d="M34 252C34 252 88.5631 215.49 121.509 221.627C135.633 224.257 142.073 233.13 156.278 235.071C202 241.318 208.696 174.346 253.761 163.369C274.203 158.39 288.201 173.239 301.721 158.39C318.496 139.967 422 132 422 132" stroke="url(#paint0_linear_628_21086)" stroke-width="2"/>
</g>
<path d="M21.4247 50.064V45.168H16.6007V43.056H21.4247V38.28H23.6087V43.056H28.4087V45.168H23.6087V50.064H21.4247Z" fill="white"/>
<path d="M43.6531 54L54.7251 32.976V34.256H42.3731V31.44H57.7331V33.904L47.3011 54H43.6531ZM67.6406 54.288C66.446 54.288 65.2513 54.0533 64.0566 53.584C62.862 53.0933 61.8593 52.4533 61.0486 51.664L62.2326 49.136C63.022 49.904 63.886 50.4907 64.8246 50.896C65.7633 51.28 66.7126 51.472 67.6726 51.472C69.7206 51.472 71.2886 50.7573 72.3766 49.328C73.486 47.8773 74.0406 45.7227 74.0406 42.864V40.144H74.3606C74.2326 41.2747 73.87 42.2667 73.2726 43.12C72.6753 43.9733 71.918 44.624 71.0006 45.072C70.1046 45.52 69.0913 45.744 67.9606 45.744C66.638 45.744 65.4433 45.4347 64.3766 44.816C63.3313 44.1973 62.51 43.344 61.9126 42.256C61.3366 41.168 61.0486 39.9413 61.0486 38.576C61.0486 37.1253 61.3686 35.8453 62.0086 34.736C62.6486 33.6053 63.5233 32.7307 64.6326 32.112C65.742 31.472 67.022 31.152 68.4726 31.152C71.2886 31.152 73.4433 32.1227 74.9366 34.064C76.4513 35.984 77.2086 38.704 77.2086 42.224C77.2086 44.8053 76.8246 46.992 76.0566 48.784C75.31 50.576 74.222 51.9413 72.7926 52.88C71.3633 53.8187 69.646 54.288 67.6406 54.288ZM68.6966 43.024C69.5926 43.024 70.382 42.832 71.0646 42.448C71.7473 42.064 72.2806 41.5307 72.6646 40.848C73.0486 40.144 73.2406 39.344 73.2406 38.448C73.2406 37.5307 73.0486 36.7307 72.6646 36.048C72.2806 35.344 71.7473 34.8 71.0646 34.416C70.382 34.0107 69.5926 33.808 68.6966 33.808C67.8006 33.808 67.0113 34.0107 66.3286 34.416C65.6673 34.8 65.1446 35.344 64.7606 36.048C64.3766 36.7307 64.1846 37.5307 64.1846 38.448C64.1846 39.344 64.3766 40.144 64.7606 40.848C65.1446 41.5307 65.6673 42.064 66.3286 42.448C67.0113 42.832 67.8006 43.024 68.6966 43.024ZM97.1834 54H94.3674L107.743 31.44H110.559L97.1834 54ZM94.5274 44.944C92.7567 44.944 91.3594 44.336 90.3354 43.12C89.3327 41.8827 88.8314 40.1867 88.8314 38.032C88.8314 35.856 89.3434 34.1707 90.3674 32.976C91.3914 31.76 92.778 31.152 94.5274 31.152C96.298 31.152 97.6847 31.7707 98.6874 33.008C99.69 34.224 100.191 35.8987 100.191 38.032C100.191 40.1867 99.69 41.8827 98.6874 43.12C97.6847 44.336 96.298 44.944 94.5274 44.944ZM94.5274 42.768C95.4447 42.768 96.1594 42.384 96.6714 41.616C97.2047 40.8267 97.4714 39.632 97.4714 38.032C97.4714 36.4107 97.2047 35.2267 96.6714 34.48C96.1594 33.712 95.4447 33.328 94.5274 33.328C93.61 33.328 92.8847 33.712 92.3514 34.48C91.8394 35.2267 91.5834 36.4107 91.5834 38.032C91.5834 39.6533 91.8394 40.848 92.3514 41.616C92.8847 42.384 93.61 42.768 94.5274 42.768ZM110.399 54.288C108.629 54.288 107.242 53.68 106.239 52.464C105.237 51.2267 104.735 49.5307 104.735 47.376C104.735 45.2 105.237 43.5147 106.239 42.32C107.263 41.104 108.65 40.496 110.399 40.496C112.17 40.496 113.557 41.1147 114.559 42.352C115.562 43.568 116.063 45.2427 116.063 47.376C116.063 49.5307 115.562 51.2267 114.559 52.464C113.557 53.68 112.17 54.288 110.399 54.288ZM110.399 52.112C111.317 52.112 112.031 51.728 112.543 50.96C113.077 50.192 113.343 48.9973 113.343 47.376C113.343 45.7547 113.077 44.5707 112.543 43.824C112.031 43.056 111.317 42.672 110.399 42.672C109.482 42.672 108.757 43.056 108.223 43.824C107.711 44.5707 107.455 45.7547 107.455 47.376C107.455 48.9973 107.711 50.192 108.223 50.96C108.757 51.728 109.482 52.112 110.399 52.112Z" fill="white"/>
<path d="M55.6781 299L56.4681 297.64C56.5948 297.42 56.7548 297.243 56.9481 297.11C57.1481 296.97 57.3515 296.9 57.5581 296.9H57.7381L57.7281 297C57.1548 297 56.7081 296.87 56.3881 296.61C56.0681 296.35 55.9081 295.977 55.9081 295.49C55.9081 295.003 56.0681 294.627 56.3881 294.36C56.7081 294.093 57.1781 293.96 57.7981 293.96H60.1581V299H59.2281V297.13H58.5581C58.3048 297.13 58.0881 297.193 57.9081 297.32C57.7348 297.447 57.5915 297.613 57.4781 297.82L56.7981 299H55.6781ZM57.9781 296.45H59.2281V294.64H57.9781C57.6048 294.64 57.3248 294.72 57.1381 294.88C56.9581 295.04 56.8681 295.26 56.8681 295.54C56.8681 295.833 56.9581 296.06 57.1381 296.22C57.3248 296.373 57.6048 296.45 57.9781 296.45ZM61.6741 299V293.96H62.6741V296.01H65.2241V293.96H66.2241V299H65.2241V296.8H62.6741V299H61.6741ZM67.7483 299V293.96H70.2883C70.8949 293.96 71.3416 294.077 71.6283 294.31C71.9216 294.537 72.0683 294.86 72.0683 295.28C72.0683 295.607 71.9583 295.877 71.7383 296.09C71.5249 296.303 71.2416 296.433 70.8883 296.48V296.35C71.3083 296.37 71.6383 296.493 71.8783 296.72C72.1183 296.947 72.2383 297.24 72.2383 297.6C72.2383 298.033 72.0749 298.377 71.7483 298.63C71.4283 298.877 70.9716 299 70.3783 299H67.7483ZM68.6983 298.35H70.2983C70.6249 298.35 70.8749 298.283 71.0483 298.15C71.2216 298.01 71.3083 297.81 71.3083 297.55C71.3083 297.29 71.2216 297.093 71.0483 296.96C70.8749 296.827 70.6249 296.76 70.2983 296.76H68.6983V298.35ZM68.6983 296.11H70.1883C70.4883 296.11 70.7216 296.043 70.8883 295.91C71.0549 295.777 71.1383 295.593 71.1383 295.36C71.1383 295.12 71.0549 294.937 70.8883 294.81C70.7216 294.677 70.4883 294.61 70.1883 294.61H68.6983V296.11Z" fill="white"/>
<path d="M89.8704 301.16V297.94H89.9704C89.8704 298.313 89.6938 298.6 89.4404 298.8C89.1938 298.993 88.8904 299.09 88.5304 299.09C88.1704 299.09 87.8504 298.983 87.5704 298.77C87.2904 298.557 87.0738 298.257 86.9204 297.87C86.7671 297.477 86.6904 297.013 86.6904 296.48C86.6904 295.94 86.7671 295.477 86.9204 295.09C87.0738 294.703 87.2871 294.403 87.5604 294.19C87.8404 293.977 88.1638 293.87 88.5304 293.87C88.8904 293.87 89.1938 293.97 89.4404 294.17C89.6938 294.37 89.8704 294.65 89.9704 295.01H89.8704V291.64H90.8704V295.01H90.7704C90.8771 294.65 91.0538 294.37 91.3004 294.17C91.5471 293.97 91.8504 293.87 92.2104 293.87C92.5771 293.87 92.9004 293.977 93.1804 294.19C93.4604 294.403 93.6738 294.703 93.8204 295.09C93.9738 295.477 94.0504 295.94 94.0504 296.48C94.0504 297.013 93.9738 297.477 93.8204 297.87C93.6738 298.257 93.4604 298.557 93.1804 298.77C92.9071 298.983 92.5838 299.09 92.2104 299.09C91.8571 299.09 91.5538 298.993 91.3004 298.8C91.0538 298.6 90.8771 298.313 90.7704 297.94H90.8704V301.16H89.8704ZM88.7904 298.32C89.1304 298.32 89.3971 298.167 89.5904 297.86C89.7904 297.547 89.8904 297.087 89.8904 296.48C89.8904 295.88 89.7904 295.423 89.5904 295.11C89.3971 294.797 89.1304 294.64 88.7904 294.64C88.4504 294.64 88.1804 294.797 87.9804 295.11C87.7871 295.423 87.6904 295.88 87.6904 296.48C87.6904 297.087 87.7871 297.547 87.9804 297.86C88.1804 298.167 88.4504 298.32 88.7904 298.32ZM91.9504 298.32C92.2904 298.32 92.5571 298.167 92.7504 297.86C92.9504 297.547 93.0504 297.087 93.0504 296.48C93.0504 295.88 92.9504 295.423 92.7504 295.11C92.5504 294.797 92.2838 294.64 91.9504 294.64C91.6104 294.64 91.3438 294.797 91.1504 295.11C90.9571 295.423 90.8604 295.88 90.8604 296.48C90.8604 297.087 90.9571 297.547 91.1504 297.86C91.3438 298.167 91.6104 298.32 91.9504 298.32ZM97.6798 299.09C96.8665 299.09 96.2265 298.86 95.7598 298.4C95.2931 297.94 95.0598 297.303 95.0598 296.49C95.0598 295.963 95.1598 295.503 95.3598 295.11C95.5665 294.717 95.8498 294.413 96.2098 294.2C96.5765 293.98 96.9998 293.87 97.4798 293.87C97.9531 293.87 98.3498 293.97 98.6698 294.17C98.9898 294.37 99.2331 294.653 99.3998 295.02C99.5665 295.38 99.6498 295.807 99.6498 296.3V296.62H95.8498V296.04H98.9598L98.7898 296.17C98.7898 295.67 98.6765 295.283 98.4498 295.01C98.2298 294.73 97.9098 294.59 97.4898 294.59C97.0231 294.59 96.6631 294.753 96.4098 295.08C96.1565 295.4 96.0298 295.843 96.0298 296.41V296.51C96.0298 297.103 96.1731 297.55 96.4598 297.85C96.7531 298.15 97.1665 298.3 97.6998 298.3C97.9931 298.3 98.2665 298.26 98.5198 298.18C98.7798 298.093 99.0265 297.953 99.2598 297.76L99.5898 298.45C99.3565 298.657 99.0731 298.817 98.7398 298.93C98.4065 299.037 98.0531 299.09 97.6798 299.09ZM100.886 299V293.96H103.426C104.033 293.96 104.479 294.077 104.766 294.31C105.059 294.537 105.206 294.86 105.206 295.28C105.206 295.607 105.096 295.877 104.876 296.09C104.663 296.303 104.379 296.433 104.026 296.48V296.35C104.446 296.37 104.776 296.493 105.016 296.72C105.256 296.947 105.376 297.24 105.376 297.6C105.376 298.033 105.213 298.377 104.886 298.63C104.566 298.877 104.109 299 103.516 299H100.886ZM101.836 298.35H103.436C103.763 298.35 104.013 298.283 104.186 298.15C104.359 298.01 104.446 297.81 104.446 297.55C104.446 297.29 104.359 297.093 104.186 296.96C104.013 296.827 103.763 296.76 103.436 296.76H101.836V298.35ZM101.836 296.11H103.326C103.626 296.11 103.859 296.043 104.026 295.91C104.193 295.777 104.276 295.593 104.276 295.36C104.276 295.12 104.193 294.937 104.026 294.81C103.859 294.677 103.626 294.61 103.326 294.61H101.836V296.11Z" fill="white"/>
<path d="M116.792 299V293.96H117.632L119.452 297.18L121.272 293.96H122.112V299H121.222V295.09H121.442L119.692 298.19H119.212L117.462 295.09H117.682V299H116.792ZM125.598 299.09C125.151 299.09 124.761 298.987 124.428 298.78C124.095 298.573 123.835 298.273 123.648 297.88C123.468 297.487 123.378 297.02 123.378 296.48C123.378 295.933 123.468 295.467 123.648 295.08C123.835 294.693 124.095 294.397 124.428 294.19C124.761 293.977 125.151 293.87 125.598 293.87C126.038 293.87 126.421 293.98 126.748 294.2C127.075 294.42 127.291 294.72 127.398 295.1H127.288L127.388 293.96H128.368C128.348 294.167 128.328 294.373 128.308 294.58C128.295 294.78 128.288 294.977 128.288 295.17V299H127.278V297.88H127.388C127.281 298.253 127.061 298.55 126.728 298.77C126.401 298.983 126.025 299.09 125.598 299.09ZM125.848 298.3C126.281 298.3 126.628 298.147 126.888 297.84C127.155 297.533 127.288 297.08 127.288 296.48C127.288 295.88 127.155 295.43 126.888 295.13C126.628 294.823 126.281 294.67 125.848 294.67C125.408 294.67 125.055 294.823 124.788 295.13C124.528 295.43 124.398 295.88 124.398 296.48C124.398 297.08 124.528 297.533 124.788 297.84C125.048 298.147 125.401 298.3 125.848 298.3ZM129.879 301.16V295.17C129.879 294.977 129.869 294.78 129.849 294.58C129.836 294.373 129.819 294.167 129.799 293.96H130.779L130.879 295.1H130.769C130.876 294.72 131.089 294.42 131.409 294.2C131.736 293.98 132.122 293.87 132.569 293.87C133.016 293.87 133.406 293.977 133.739 294.19C134.072 294.397 134.329 294.693 134.509 295.08C134.696 295.467 134.789 295.933 134.789 296.48C134.789 297.02 134.696 297.487 134.509 297.88C134.329 298.273 134.072 298.573 133.739 298.78C133.406 298.987 133.016 299.09 132.569 299.09C132.129 299.09 131.746 298.983 131.419 298.77C131.099 298.55 130.886 298.253 130.779 297.88H130.889V301.16H129.879ZM132.319 298.3C132.759 298.3 133.109 298.147 133.369 297.84C133.636 297.533 133.769 297.08 133.769 296.48C133.769 295.88 133.636 295.43 133.369 295.13C133.109 294.823 132.759 294.67 132.319 294.67C131.879 294.67 131.526 294.823 131.259 295.13C130.999 295.43 130.869 295.88 130.869 296.48C130.869 297.08 130.999 297.533 131.259 297.84C131.526 298.147 131.879 298.3 132.319 298.3ZM137.13 299V294.77H135.35V293.96H139.92V294.77H138.13V299H137.13Z" fill="white"/>
<path d="M153.501 299.09C153.055 299.09 152.665 298.987 152.331 298.78C151.998 298.573 151.738 298.273 151.551 297.88C151.371 297.487 151.281 297.02 151.281 296.48C151.281 295.933 151.371 295.467 151.551 295.08C151.738 294.693 151.998 294.397 152.331 294.19C152.665 293.977 153.055 293.87 153.501 293.87C153.941 293.87 154.325 293.98 154.651 294.2C154.978 294.42 155.195 294.72 155.301 295.1H155.191L155.291 293.96H156.271C156.251 294.167 156.231 294.373 156.211 294.58C156.198 294.78 156.191 294.977 156.191 295.17V299H155.181V297.88H155.291C155.185 298.253 154.965 298.55 154.631 298.77C154.305 298.983 153.928 299.09 153.501 299.09ZM153.751 298.3C154.185 298.3 154.531 298.147 154.791 297.84C155.058 297.533 155.191 297.08 155.191 296.48C155.191 295.88 155.058 295.43 154.791 295.13C154.531 294.823 154.185 294.67 153.751 294.67C153.311 294.67 152.958 294.823 152.691 295.13C152.431 295.43 152.301 295.88 152.301 296.48C152.301 297.08 152.431 297.533 152.691 297.84C152.951 298.147 153.305 298.3 153.751 298.3ZM157.742 299V293.96H162.262V299H161.262V294.75H158.742V299H157.742ZM163.818 301.16V295.17C163.818 294.977 163.808 294.78 163.788 294.58C163.774 294.373 163.758 294.167 163.738 293.96H164.718L164.818 295.1H164.708C164.814 294.72 165.028 294.42 165.348 294.2C165.674 293.98 166.061 293.87 166.508 293.87C166.954 293.87 167.344 293.977 167.678 294.19C168.011 294.397 168.268 294.693 168.448 295.08C168.634 295.467 168.728 295.933 168.728 296.48C168.728 297.02 168.634 297.487 168.448 297.88C168.268 298.273 168.011 298.573 167.678 298.78C167.344 298.987 166.954 299.09 166.508 299.09C166.068 299.09 165.684 298.983 165.358 298.77C165.038 298.55 164.824 298.253 164.718 297.88H164.828V301.16H163.818ZM166.258 298.3C166.698 298.3 167.048 298.147 167.308 297.84C167.574 297.533 167.708 297.08 167.708 296.48C167.708 295.88 167.574 295.43 167.308 295.13C167.048 294.823 166.698 294.67 166.258 294.67C165.818 294.67 165.464 294.823 165.198 295.13C164.938 295.43 164.808 295.88 164.808 296.48C164.808 297.08 164.938 297.533 165.198 297.84C165.464 298.147 165.818 298.3 166.258 298.3Z" fill="white"/>
<path d="M183.219 299V293.96H184.059L185.879 297.18L187.699 293.96H188.539V299H187.649V295.09H187.869L186.119 298.19H185.639L183.889 295.09H184.109V299H183.219ZM192.025 299.09C191.578 299.09 191.188 298.987 190.855 298.78C190.522 298.573 190.262 298.273 190.075 297.88C189.895 297.487 189.805 297.02 189.805 296.48C189.805 295.933 189.895 295.467 190.075 295.08C190.262 294.693 190.522 294.397 190.855 294.19C191.188 293.977 191.578 293.87 192.025 293.87C192.465 293.87 192.848 293.98 193.175 294.2C193.502 294.42 193.718 294.72 193.825 295.1H193.715L193.815 293.96H194.795C194.775 294.167 194.755 294.373 194.735 294.58C194.722 294.78 194.715 294.977 194.715 295.17V299H193.705V297.88H193.815C193.708 298.253 193.488 298.55 193.155 298.77C192.828 298.983 192.452 299.09 192.025 299.09ZM192.275 298.3C192.708 298.3 193.055 298.147 193.315 297.84C193.582 297.533 193.715 297.08 193.715 296.48C193.715 295.88 193.582 295.43 193.315 295.13C193.055 294.823 192.708 294.67 192.275 294.67C191.835 294.67 191.482 294.823 191.215 295.13C190.955 295.43 190.825 295.88 190.825 296.48C190.825 297.08 190.955 297.533 191.215 297.84C191.475 298.147 191.828 298.3 192.275 298.3ZM196.266 299V293.96H197.186V298.03H196.906L199.946 293.96H200.786V299H199.876V294.92H200.166L197.106 299H196.266ZM198.526 293.5C198.219 293.5 197.946 293.45 197.706 293.35C197.466 293.25 197.259 293.103 197.086 292.91C196.919 292.71 196.793 292.47 196.706 292.19L197.266 291.99C197.379 292.303 197.539 292.537 197.746 292.69C197.953 292.837 198.213 292.91 198.526 292.91C198.846 292.91 199.106 292.84 199.306 292.7C199.513 292.56 199.689 292.327 199.836 292L200.356 292.19C200.196 292.643 199.956 292.977 199.636 293.19C199.323 293.397 198.953 293.5 198.526 293.5Z" fill="white"/>
<path d="M211.884 299V293.96H212.804V298.03H212.524L215.564 293.96H216.404V299H215.494V294.92H215.784L212.724 299H211.884ZM222.279 299.09C221.593 299.09 221.033 298.89 220.599 298.49C220.166 298.083 219.916 297.52 219.849 296.8H218.899V299H217.919V293.96H218.899V296.01H219.859C219.953 295.337 220.213 294.813 220.639 294.44C221.066 294.06 221.613 293.87 222.279 293.87C222.779 293.87 223.213 293.977 223.579 294.19C223.953 294.397 224.239 294.693 224.439 295.08C224.646 295.467 224.749 295.933 224.749 296.48C224.749 297.02 224.646 297.487 224.439 297.88C224.239 298.267 223.953 298.567 223.579 298.78C223.213 298.987 222.779 299.09 222.279 299.09ZM222.279 298.31C222.719 298.31 223.069 298.157 223.329 297.85C223.596 297.543 223.729 297.087 223.729 296.48C223.729 295.88 223.596 295.427 223.329 295.12C223.069 294.813 222.719 294.66 222.279 294.66C221.839 294.66 221.486 294.813 221.219 295.12C220.959 295.427 220.829 295.88 220.829 296.48C220.829 297.087 220.959 297.543 221.219 297.85C221.486 298.157 221.839 298.31 222.279 298.31ZM226.005 299V293.96H227.005V296.01H229.555V293.96H230.555V299H229.555V296.8H227.005V299H226.005ZM232.079 299V293.96H233.079V295.72H234.509C235.169 295.72 235.666 295.86 235.999 296.14C236.333 296.413 236.499 296.813 236.499 297.34C236.499 297.68 236.423 297.977 236.269 298.23C236.116 298.477 235.889 298.667 235.589 298.8C235.296 298.933 234.936 299 234.509 299H232.079ZM233.079 298.31H234.399C234.773 298.31 235.059 298.233 235.259 298.08C235.459 297.92 235.559 297.677 235.559 297.35C235.559 297.023 235.459 296.787 235.259 296.64C235.066 296.487 234.779 296.41 234.399 296.41H233.079V298.31Z" fill="white"/>
<path d="M243.987 299V293.96H244.907V298.03H244.627L247.667 293.96H248.507V299H247.597V294.92H247.887L244.827 299H243.987ZM254.382 299.09C253.695 299.09 253.135 298.89 252.702 298.49C252.268 298.083 252.018 297.52 251.952 296.8H251.002V299H250.022V293.96H251.002V296.01H251.962C252.055 295.337 252.315 294.813 252.742 294.44C253.168 294.06 253.715 293.87 254.382 293.87C254.882 293.87 255.315 293.977 255.682 294.19C256.055 294.397 256.342 294.693 256.542 295.08C256.748 295.467 256.852 295.933 256.852 296.48C256.852 297.02 256.748 297.487 256.542 297.88C256.342 298.267 256.055 298.567 255.682 298.78C255.315 298.987 254.882 299.09 254.382 299.09ZM254.382 298.31C254.822 298.31 255.172 298.157 255.432 297.85C255.698 297.543 255.832 297.087 255.832 296.48C255.832 295.88 255.698 295.427 255.432 295.12C255.172 294.813 254.822 294.66 254.382 294.66C253.942 294.66 253.588 294.813 253.322 295.12C253.062 295.427 252.932 295.88 252.932 296.48C252.932 297.087 253.062 297.543 253.322 297.85C253.588 298.157 253.942 298.31 254.382 298.31ZM257.8 299.13L257.46 298.33C257.687 298.237 257.877 298.12 258.03 297.98C258.19 297.833 258.313 297.647 258.4 297.42C258.493 297.193 258.56 296.913 258.6 296.58C258.64 296.247 258.66 295.843 258.66 295.37V293.96H262.46V299H261.46V294.75H259.59V295.4C259.59 296.16 259.53 296.79 259.41 297.29C259.29 297.79 259.097 298.187 258.83 298.48C258.57 298.767 258.227 298.983 257.8 299.13ZM263.977 299V293.96H264.977V295.72H266.407C267.067 295.72 267.563 295.86 267.897 296.14C268.23 296.413 268.397 296.813 268.397 297.34C268.397 297.68 268.32 297.977 268.167 298.23C268.013 298.477 267.787 298.667 267.487 298.8C267.193 298.933 266.833 299 266.407 299H263.977ZM264.977 298.31H266.297C266.67 298.31 266.957 298.233 267.157 298.08C267.357 297.92 267.457 297.677 267.457 297.35C267.457 297.023 267.357 296.787 267.157 296.64C266.963 296.487 266.677 296.41 266.297 296.41H264.977V298.31Z" fill="white"/>
<path d="M282.507 299.09C282.061 299.09 281.671 298.987 281.337 298.78C281.004 298.573 280.744 298.273 280.557 297.88C280.377 297.487 280.287 297.02 280.287 296.48C280.287 295.933 280.377 295.467 280.557 295.08C280.744 294.693 281.004 294.397 281.337 294.19C281.671 293.977 282.061 293.87 282.507 293.87C282.947 293.87 283.331 293.98 283.657 294.2C283.984 294.42 284.201 294.72 284.307 295.1H284.197L284.297 293.96H285.277C285.257 294.167 285.237 294.373 285.217 294.58C285.204 294.78 285.197 294.977 285.197 295.17V299H284.187V297.88H284.297C284.191 298.253 283.971 298.55 283.637 298.77C283.311 298.983 282.934 299.09 282.507 299.09ZM282.757 298.3C283.191 298.3 283.537 298.147 283.797 297.84C284.064 297.533 284.197 297.08 284.197 296.48C284.197 295.88 284.064 295.43 283.797 295.13C283.537 294.823 283.191 294.67 282.757 294.67C282.317 294.67 281.964 294.823 281.697 295.13C281.437 295.43 281.307 295.88 281.307 296.48C281.307 297.08 281.437 297.533 281.697 297.84C281.957 298.147 282.311 298.3 282.757 298.3ZM286.748 299V293.96H289.288C289.895 293.96 290.342 294.077 290.628 294.31C290.922 294.537 291.068 294.86 291.068 295.28C291.068 295.607 290.958 295.877 290.738 296.09C290.525 296.303 290.242 296.433 289.888 296.48V296.35C290.308 296.37 290.638 296.493 290.878 296.72C291.118 296.947 291.238 297.24 291.238 297.6C291.238 298.033 291.075 298.377 290.748 298.63C290.428 298.877 289.972 299 289.378 299H286.748ZM287.698 298.35H289.298C289.625 298.35 289.875 298.283 290.048 298.15C290.222 298.01 290.308 297.81 290.308 297.55C290.308 297.29 290.222 297.093 290.048 296.96C289.875 296.827 289.625 296.76 289.298 296.76H287.698V298.35ZM287.698 296.11H289.188C289.488 296.11 289.722 296.043 289.888 295.91C290.055 295.777 290.138 295.593 290.138 295.36C290.138 295.12 290.055 294.937 289.888 294.81C289.722 294.677 289.488 294.61 289.188 294.61H287.698V296.11ZM292.432 299V293.96H296.062V294.77H293.442V299H292.432Z" fill="white"/>
<path d="M312.292 299.09C311.786 299.09 311.342 298.987 310.962 298.78C310.589 298.567 310.299 298.263 310.092 297.87C309.892 297.47 309.792 296.997 309.792 296.45C309.792 295.91 309.896 295.447 310.102 295.06C310.309 294.673 310.599 294.38 310.972 294.18C311.346 293.973 311.786 293.87 312.292 293.87C312.619 293.87 312.936 293.927 313.242 294.04C313.549 294.147 313.802 294.3 314.002 294.5L313.672 295.21C313.486 295.03 313.276 294.897 313.042 294.81C312.809 294.717 312.582 294.67 312.362 294.67C311.882 294.67 311.506 294.823 311.232 295.13C310.959 295.437 310.822 295.88 310.822 296.46C310.822 297.047 310.959 297.497 311.232 297.81C311.506 298.123 311.882 298.28 312.362 298.28C312.576 298.28 312.799 298.24 313.032 298.16C313.266 298.073 313.479 297.937 313.672 297.75L314.002 298.46C313.796 298.66 313.536 298.817 313.222 298.93C312.916 299.037 312.606 299.09 312.292 299.09ZM317.52 299.09C316.706 299.09 316.066 298.86 315.6 298.4C315.133 297.94 314.9 297.303 314.9 296.49C314.9 295.963 315 295.503 315.2 295.11C315.406 294.717 315.69 294.413 316.05 294.2C316.416 293.98 316.84 293.87 317.32 293.87C317.793 293.87 318.19 293.97 318.51 294.17C318.83 294.37 319.073 294.653 319.24 295.02C319.406 295.38 319.49 295.807 319.49 296.3V296.62H315.69V296.04H318.8L318.63 296.17C318.63 295.67 318.516 295.283 318.29 295.01C318.07 294.73 317.75 294.59 317.33 294.59C316.863 294.59 316.503 294.753 316.25 295.08C315.996 295.4 315.87 295.843 315.87 296.41V296.51C315.87 297.103 316.013 297.55 316.3 297.85C316.593 298.15 317.006 298.3 317.54 298.3C317.833 298.3 318.106 298.26 318.36 298.18C318.62 298.093 318.866 297.953 319.1 297.76L319.43 298.45C319.196 298.657 318.913 298.817 318.58 298.93C318.246 299.037 317.893 299.09 317.52 299.09ZM320.726 299V293.96H321.726V296.01H324.276V293.96H325.276V299H324.276V296.8H321.726V299H320.726ZM327.88 299V294.77H326.1V293.96H330.67V294.77H328.88V299H327.88Z" fill="white"/>
<path d="M346.903 299.09C346.403 299.09 345.97 298.987 345.603 298.78C345.237 298.567 344.953 298.267 344.753 297.88C344.553 297.487 344.453 297.02 344.453 296.48C344.453 295.94 344.553 295.477 344.753 295.09C344.953 294.697 345.237 294.397 345.603 294.19C345.97 293.977 346.403 293.87 346.903 293.87C347.403 293.87 347.837 293.977 348.203 294.19C348.577 294.397 348.863 294.697 349.063 295.09C349.27 295.477 349.373 295.94 349.373 296.48C349.373 297.02 349.27 297.487 349.063 297.88C348.863 298.267 348.577 298.567 348.203 298.78C347.837 298.987 347.403 299.09 346.903 299.09ZM346.903 298.3C347.343 298.3 347.693 298.147 347.953 297.84C348.213 297.533 348.343 297.08 348.343 296.48C348.343 295.88 348.213 295.43 347.953 295.13C347.693 294.823 347.343 294.67 346.903 294.67C346.47 294.67 346.123 294.823 345.863 295.13C345.603 295.43 345.473 295.88 345.473 296.48C345.473 297.08 345.6 297.533 345.853 297.84C346.113 298.147 346.463 298.3 346.903 298.3ZM350.621 299V293.96H351.621V296.02H352.491L354.061 293.96H355.161L353.281 296.44L353.031 296.12C353.225 296.14 353.391 296.19 353.531 296.27C353.671 296.343 353.808 296.453 353.941 296.6C354.075 296.747 354.211 296.94 354.351 297.18L355.401 299H354.321L353.421 297.46C353.321 297.287 353.225 297.153 353.131 297.06C353.038 296.96 352.931 296.893 352.811 296.86C352.691 296.82 352.545 296.8 352.371 296.8H351.621V299H350.621ZM357.219 299V294.77H355.439V293.96H360.009V294.77H358.219V299H357.219Z" fill="white"/>
<path d="M373.007 299V293.96H374.007V296.01H376.557V293.96H377.557V299H376.557V296.8H374.007V299H373.007ZM381.281 299.09C380.781 299.09 380.348 298.987 379.981 298.78C379.615 298.567 379.331 298.267 379.131 297.88C378.931 297.487 378.831 297.02 378.831 296.48C378.831 295.94 378.931 295.477 379.131 295.09C379.331 294.697 379.615 294.397 379.981 294.19C380.348 293.977 380.781 293.87 381.281 293.87C381.781 293.87 382.215 293.977 382.581 294.19C382.955 294.397 383.241 294.697 383.441 295.09C383.648 295.477 383.751 295.94 383.751 296.48C383.751 297.02 383.648 297.487 383.441 297.88C383.241 298.267 382.955 298.567 382.581 298.78C382.215 298.987 381.781 299.09 381.281 299.09ZM381.281 298.3C381.721 298.3 382.071 298.147 382.331 297.84C382.591 297.533 382.721 297.08 382.721 296.48C382.721 295.88 382.591 295.43 382.331 295.13C382.071 294.823 381.721 294.67 381.281 294.67C380.848 294.67 380.501 294.823 380.241 295.13C379.981 295.43 379.851 295.88 379.851 296.48C379.851 297.08 379.978 297.533 380.231 297.84C380.491 298.147 380.841 298.3 381.281 298.3ZM384.589 299L385.379 297.64C385.506 297.42 385.666 297.243 385.859 297.11C386.059 296.97 386.263 296.9 386.469 296.9H386.649L386.639 297C386.066 297 385.619 296.87 385.299 296.61C384.979 296.35 384.819 295.977 384.819 295.49C384.819 295.003 384.979 294.627 385.299 294.36C385.619 294.093 386.089 293.96 386.709 293.96H389.069V299H388.139V297.13H387.469C387.216 297.13 386.999 297.193 386.819 297.32C386.646 297.447 386.503 297.613 386.389 297.82L385.709 299H384.589ZM386.889 296.45H388.139V294.64H386.889C386.516 294.64 386.236 294.72 386.049 294.88C385.869 295.04 385.779 295.26 385.779 295.54C385.779 295.833 385.869 296.06 386.049 296.22C386.236 296.373 386.516 296.45 386.889 296.45ZM392.825 299.09C392.065 299.09 391.459 298.853 391.005 298.38C390.559 297.907 390.335 297.21 390.335 296.29V295.42C390.335 294.48 390.535 293.723 390.935 293.15C391.342 292.577 391.969 292.19 392.815 291.99L394.655 291.55L394.945 292.36L392.885 292.84C392.525 292.92 392.229 293.07 391.995 293.29C391.762 293.51 391.585 293.77 391.465 294.07C391.352 294.37 391.295 294.69 391.295 295.03V295.49H391.145C391.225 295.183 391.352 294.923 391.525 294.71C391.705 294.49 391.925 294.32 392.185 294.2C392.452 294.073 392.749 294.01 393.075 294.01C393.509 294.01 393.889 294.11 394.215 294.31C394.542 294.51 394.795 294.8 394.975 295.18C395.162 295.553 395.255 295.997 395.255 296.51C395.255 297.043 395.155 297.503 394.955 297.89C394.755 298.277 394.472 298.573 394.105 298.78C393.745 298.987 393.319 299.09 392.825 299.09ZM392.795 298.31C393.249 298.31 393.602 298.163 393.855 297.87C394.115 297.57 394.245 297.13 394.245 296.55C394.245 295.977 394.115 295.54 393.855 295.24C393.595 294.94 393.242 294.79 392.795 294.79C392.349 294.79 391.995 294.94 391.735 295.24C391.475 295.533 391.345 295.953 391.345 296.5C391.345 297.1 391.472 297.553 391.725 297.86C391.985 298.16 392.342 298.31 392.795 298.31Z" fill="white"/>
<path d="M407.617 300.3V298.22H408.177C408.397 297.887 408.557 297.497 408.657 297.05C408.757 296.603 408.807 296.063 408.807 295.43V293.96H412.497V298.22H413.307V300.3H412.437V299H408.487V300.3H407.617ZM409.107 298.23H411.547V294.74H409.677V295.63C409.677 296.117 409.627 296.593 409.527 297.06C409.434 297.52 409.294 297.91 409.107 298.23ZM416.679 299.09C415.865 299.09 415.225 298.86 414.759 298.4C414.292 297.94 414.059 297.303 414.059 296.49C414.059 295.963 414.159 295.503 414.359 295.11C414.565 294.717 414.849 294.413 415.209 294.2C415.575 293.98 415.999 293.87 416.479 293.87C416.952 293.87 417.349 293.97 417.669 294.17C417.989 294.37 418.232 294.653 418.399 295.02C418.565 295.38 418.649 295.807 418.649 296.3V296.62H414.849V296.04H417.959L417.789 296.17C417.789 295.67 417.675 295.283 417.449 295.01C417.229 294.73 416.909 294.59 416.489 294.59C416.022 294.59 415.662 294.753 415.409 295.08C415.155 295.4 415.029 295.843 415.029 296.41V296.51C415.029 297.103 415.172 297.55 415.459 297.85C415.752 298.15 416.165 298.3 416.699 298.3C416.992 298.3 417.265 298.26 417.519 298.18C417.779 298.093 418.025 297.953 418.259 297.76L418.589 298.45C418.355 298.657 418.072 298.817 417.739 298.93C417.405 299.037 417.052 299.09 416.679 299.09ZM419.885 299V293.96H420.885V296.02H421.755L423.325 293.96H424.425L422.545 296.44L422.295 296.12C422.488 296.14 422.655 296.19 422.795 296.27C422.935 296.343 423.072 296.453 423.205 296.6C423.338 296.747 423.475 296.94 423.615 297.18L424.665 299H423.585L422.685 297.46C422.585 297.287 422.488 297.153 422.395 297.06C422.302 296.96 422.195 296.893 422.075 296.86C421.955 296.82 421.808 296.8 421.635 296.8H420.885V299H419.885Z" fill="white"/>
<path d="M15.8339 254V253.23L18.2539 250.7C18.5672 250.373 18.8006 250.067 18.9539 249.78C19.1072 249.493 19.1839 249.197 19.1839 248.89C19.1839 248.51 19.0639 248.223 18.8239 248.03C18.5906 247.837 18.2506 247.74 17.8039 247.74C17.4506 247.74 17.1172 247.803 16.8039 247.93C16.4972 248.057 16.2006 248.25 15.9139 248.51L15.5539 247.72C15.8339 247.46 16.1806 247.253 16.5939 247.1C17.0139 246.94 17.4572 246.86 17.9239 246.86C18.6572 246.86 19.2206 247.027 19.6139 247.36C20.0139 247.693 20.2139 248.17 20.2139 248.79C20.2139 249.23 20.1072 249.653 19.8939 250.06C19.6806 250.46 19.3606 250.873 18.9339 251.3L16.8439 253.41V253.13H20.5039V254H15.8339ZM24 254.09C23.1867 254.09 22.56 253.78 22.12 253.16C21.6867 252.533 21.47 251.637 21.47 250.47C21.47 249.283 21.6867 248.387 22.12 247.78C22.56 247.167 23.1867 246.86 24 246.86C24.82 246.86 25.4467 247.167 25.88 247.78C26.3133 248.387 26.53 249.28 26.53 250.46C26.53 251.633 26.31 252.533 25.87 253.16C25.4367 253.78 24.8133 254.09 24 254.09ZM24 253.22C24.5133 253.22 24.8933 252.997 25.14 252.55C25.3933 252.103 25.52 251.407 25.52 250.46C25.52 249.507 25.3933 248.813 25.14 248.38C24.8933 247.94 24.5133 247.72 24 247.72C23.4933 247.72 23.1133 247.94 22.86 248.38C22.6067 248.813 22.48 249.503 22.48 250.45C22.48 251.403 22.6067 252.103 22.86 252.55C23.12 252.997 23.5 253.22 24 253.22Z" fill="white"/>
<path d="M18.7239 221V219.54H15.4639V218.8L18.8939 213.95H19.7339V218.73H20.7839V219.54H19.7339V221H18.7239ZM18.7239 218.73V215.18H18.9539L16.2739 218.98V218.73H18.7239ZM24 221.09C23.1867 221.09 22.56 220.78 22.12 220.16C21.6867 219.533 21.47 218.637 21.47 217.47C21.47 216.283 21.6867 215.387 22.12 214.78C22.56 214.167 23.1867 213.86 24 213.86C24.82 213.86 25.4467 214.167 25.88 214.78C26.3133 215.387 26.53 216.28 26.53 217.46C26.53 218.633 26.31 219.533 25.87 220.16C25.4367 220.78 24.8133 221.09 24 221.09ZM24 220.22C24.5133 220.22 24.8933 219.997 25.14 219.55C25.3933 219.103 25.52 218.407 25.52 217.46C25.52 216.507 25.3933 215.813 25.14 215.38C24.8933 214.94 24.5133 214.72 24 214.72C23.4933 214.72 23.1133 214.94 22.86 215.38C22.6067 215.813 22.48 216.503 22.48 217.45C22.48 218.403 22.6067 219.103 22.86 219.55C23.12 219.997 23.5 220.22 24 220.22Z" fill="white"/>
<path d="M18.2439 188.09C17.3706 188.09 16.6972 187.787 16.2239 187.18C15.7572 186.573 15.5239 185.723 15.5239 184.63C15.5239 183.817 15.6439 183.133 15.8839 182.58C16.1239 182.02 16.4639 181.593 16.9039 181.3C17.3506 181.007 17.8872 180.86 18.5139 180.86C18.8872 180.86 19.2606 180.933 19.6339 181.08C20.0072 181.22 20.3206 181.42 20.5739 181.68L20.2039 182.46C19.9572 182.22 19.6872 182.04 19.3939 181.92C19.1006 181.8 18.8039 181.74 18.5039 181.74C17.8572 181.74 17.3639 181.967 17.0239 182.42C16.6839 182.867 16.5139 183.537 16.5139 184.43V185.28H16.4139C16.4606 184.92 16.5739 184.61 16.7539 184.35C16.9339 184.083 17.1672 183.88 17.4539 183.74C17.7406 183.6 18.0606 183.53 18.4139 183.53C18.8339 183.53 19.2039 183.627 19.5239 183.82C19.8506 184.013 20.1072 184.28 20.2939 184.62C20.4806 184.953 20.5739 185.337 20.5739 185.77C20.5739 186.217 20.4739 186.617 20.2739 186.97C20.0739 187.323 19.7972 187.6 19.4439 187.8C19.0972 187.993 18.6972 188.09 18.2439 188.09ZM18.1839 187.25C18.4639 187.25 18.7072 187.19 18.9139 187.07C19.1272 186.95 19.2939 186.783 19.4139 186.57C19.5339 186.35 19.5939 186.097 19.5939 185.81C19.5939 185.523 19.5339 185.273 19.4139 185.06C19.2939 184.847 19.1272 184.68 18.9139 184.56C18.7072 184.433 18.4639 184.37 18.1839 184.37C17.9039 184.37 17.6572 184.433 17.4439 184.56C17.2306 184.68 17.0639 184.847 16.9439 185.06C16.8239 185.273 16.7639 185.523 16.7639 185.81C16.7639 186.097 16.8239 186.35 16.9439 186.57C17.0639 186.783 17.2306 186.95 17.4439 187.07C17.6572 187.19 17.9039 187.25 18.1839 187.25ZM24 188.09C23.1867 188.09 22.56 187.78 22.12 187.16C21.6867 186.533 21.47 185.637 21.47 184.47C21.47 183.283 21.6867 182.387 22.12 181.78C22.56 181.167 23.1867 180.86 24 180.86C24.82 180.86 25.4467 181.167 25.88 181.78C26.3133 182.387 26.53 183.28 26.53 184.46C26.53 185.633 26.31 186.533 25.87 187.16C25.4367 187.78 24.8133 188.09 24 188.09ZM24 187.22C24.5133 187.22 24.8933 186.997 25.14 186.55C25.3933 186.103 25.52 185.407 25.52 184.46C25.52 183.507 25.3933 182.813 25.14 182.38C24.8933 181.94 24.5133 181.72 24 181.72C23.4933 181.72 23.1133 181.94 22.86 182.38C22.6067 182.813 22.48 183.503 22.48 184.45C22.48 185.403 22.6067 186.103 22.86 186.55C23.12 186.997 23.5 187.22 24 187.22Z" fill="white"/>
<path d="M18.0039 155.09C17.1906 155.09 16.5572 154.917 16.1039 154.57C15.6506 154.223 15.4239 153.74 15.4239 153.12C15.4239 152.627 15.5739 152.22 15.8739 151.9C16.1739 151.573 16.5672 151.377 17.0539 151.31V151.49C16.6139 151.397 16.2606 151.193 15.9939 150.88C15.7339 150.567 15.6039 150.187 15.6039 149.74C15.6039 149.153 15.8172 148.693 16.2439 148.36C16.6706 148.027 17.2572 147.86 18.0039 147.86C18.7572 147.86 19.3472 148.027 19.7739 148.36C20.2006 148.693 20.4139 149.153 20.4139 149.74C20.4139 150.187 20.2872 150.57 20.0339 150.89C19.7872 151.203 19.4472 151.4 19.0139 151.48V151.31C19.4939 151.377 19.8772 151.573 20.1639 151.9C20.4506 152.22 20.5939 152.627 20.5939 153.12C20.5939 153.74 20.3672 154.223 19.9139 154.57C19.4606 154.917 18.8239 155.09 18.0039 155.09ZM18.0039 154.27C18.5439 154.27 18.9472 154.17 19.2139 153.97C19.4806 153.763 19.6139 153.457 19.6139 153.05C19.6139 152.643 19.4806 152.34 19.2139 152.14C18.9472 151.94 18.5439 151.84 18.0039 151.84C17.4639 151.84 17.0606 151.94 16.7939 152.14C16.5272 152.34 16.3939 152.643 16.3939 153.05C16.3939 153.457 16.5272 153.763 16.7939 153.97C17.0672 154.17 17.4706 154.27 18.0039 154.27ZM18.0039 151.02C18.4706 151.02 18.8239 150.917 19.0639 150.71C19.3106 150.497 19.4339 150.207 19.4339 149.84C19.4339 149.48 19.3106 149.197 19.0639 148.99C18.8239 148.783 18.4706 148.68 18.0039 148.68C17.5439 148.68 17.1906 148.783 16.9439 148.99C16.6972 149.197 16.5739 149.48 16.5739 149.84C16.5739 150.207 16.6972 150.497 16.9439 150.71C17.1906 150.917 17.5439 151.02 18.0039 151.02ZM24 155.09C23.1867 155.09 22.56 154.78 22.12 154.16C21.6867 153.533 21.47 152.637 21.47 151.47C21.47 150.283 21.6867 149.387 22.12 148.78C22.56 148.167 23.1867 147.86 24 147.86C24.82 147.86 25.4467 148.167 25.88 148.78C26.3133 149.387 26.53 150.28 26.53 151.46C26.53 152.633 26.31 153.533 25.87 154.16C25.4367 154.78 24.8133 155.09 24 155.09ZM24 154.22C24.5133 154.22 24.8933 153.997 25.14 153.55C25.3933 153.103 25.52 152.407 25.52 151.46C25.52 150.507 25.3933 149.813 25.14 149.38C24.8933 148.94 24.5133 148.72 24 148.72C23.4933 148.72 23.1133 148.94 22.86 149.38C22.6067 149.813 22.48 150.503 22.48 151.45C22.48 152.403 22.6067 153.103 22.86 153.55C23.12 153.997 23.5 154.22 24 154.22Z" fill="white"/>
<path d="M15.6269 90.58V87.364H16.5069C16.8696 86.82 17.1309 86.18 17.2909 85.444C17.4616 84.708 17.5469 83.8333 17.5469 82.82V80.452H23.3229V87.364H24.6029V90.58H23.3549V88.5H16.8909V90.58H15.6269ZM17.8829 87.38H21.9629V81.572H18.8269V83.076C18.8269 83.8867 18.7469 84.676 18.5869 85.444C18.4269 86.2013 18.1923 86.8467 17.8829 87.38ZM26.2871 88.5V80.452H27.6151V87.124H27.1831L32.1751 80.452H33.3911V88.5H32.0631V81.812H32.5111L27.5031 88.5H26.2871ZM35.8808 88.5V80.452H37.3208V83.78H41.5768V80.452H43.0168V88.5H41.5768V84.932H37.3208V88.5H35.8808ZM48.6258 88.644C47.9218 88.644 47.3031 88.4787 46.7698 88.148C46.2365 87.8173 45.8205 87.3373 45.5218 86.708C45.2231 86.0787 45.0738 85.332 45.0738 84.468C45.0738 83.604 45.2231 82.8627 45.5218 82.244C45.8205 81.6147 46.2365 81.1347 46.7698 80.804C47.3031 80.4733 47.9218 80.308 48.6258 80.308C49.3405 80.308 49.9591 80.4893 50.4818 80.852C51.0151 81.204 51.3671 81.6893 51.5378 82.308H51.3458L51.5218 80.452H52.9298C52.8978 80.772 52.8658 81.092 52.8338 81.412C52.8125 81.732 52.8018 82.0467 52.8018 82.356V88.5H51.3458V86.66H51.5218C51.3511 87.268 50.9991 87.7533 50.4658 88.116C49.9431 88.468 49.3298 88.644 48.6258 88.644ZM48.9618 87.492C49.6871 87.492 50.2685 87.236 50.7058 86.724C51.1431 86.212 51.3618 85.46 51.3618 84.468C51.3618 83.476 51.1431 82.7293 50.7058 82.228C50.2685 81.7267 49.6871 81.476 48.9618 81.476C48.2365 81.476 47.6498 81.7267 47.2018 82.228C46.7645 82.7293 46.5458 83.476 46.5458 84.468C46.5458 85.46 46.7645 86.212 47.2018 86.724C47.6391 87.236 48.2258 87.492 48.9618 87.492ZM55.3652 88.5V80.452H56.5812L59.5412 85.716L62.5172 80.452H63.7172V88.5H62.4372V82.084H62.7892L59.9092 87.204H59.1892L56.3092 82.068H56.6452V88.5H55.3652ZM66.2089 88.5V80.452H67.5369V87.124H67.1049L72.0969 80.452H73.3129V88.5H71.9849V81.812H72.4329L67.4249 88.5H66.2089ZM75.8027 88.5V80.452H77.2427V83.78H78.6987L81.2907 80.452H82.8747L79.8667 84.372L79.4827 83.924C79.792 83.956 80.0587 84.036 80.2827 84.164C80.5067 84.2813 80.72 84.4573 80.9227 84.692C81.136 84.9267 81.3654 85.2413 81.6107 85.636L83.2747 88.5H81.7067L80.2507 86.02C80.0907 85.732 79.9307 85.508 79.7707 85.348C79.6107 85.188 79.4294 85.076 79.2267 85.012C79.0347 84.948 78.7894 84.916 78.4907 84.916H77.2427V88.5H75.8027ZM87.6414 88.644C86.9374 88.644 86.3188 88.4787 85.7854 88.148C85.2521 87.8173 84.8361 87.3373 84.5374 86.708C84.2388 86.0787 84.0894 85.332 84.0894 84.468C84.0894 83.604 84.2388 82.8627 84.5374 82.244C84.8361 81.6147 85.2521 81.1347 85.7854 80.804C86.3188 80.4733 86.9374 80.308 87.6414 80.308C88.3561 80.308 88.9748 80.4893 89.4974 80.852C90.0308 81.204 90.3828 81.6893 90.5534 82.308H90.3614L90.5374 80.452H91.9454C91.9134 80.772 91.8814 81.092 91.8494 81.412C91.8281 81.732 91.8174 82.0467 91.8174 82.356V88.5H90.3614V86.66H90.5374C90.3668 87.268 90.0148 87.7533 89.4814 88.116C88.9588 88.468 88.3454 88.644 87.6414 88.644ZM87.9774 87.492C88.7028 87.492 89.2841 87.236 89.7214 86.724C90.1588 86.212 90.3774 85.46 90.3774 84.468C90.3774 83.476 90.1588 82.7293 89.7214 82.228C89.2841 81.7267 88.7028 81.476 87.9774 81.476C87.2521 81.476 86.6654 81.7267 86.2174 82.228C85.7801 82.7293 85.5614 83.476 85.5614 84.468C85.5614 85.46 85.7801 86.212 86.2174 86.724C86.6548 87.236 87.2414 87.492 87.9774 87.492ZM105.56 90.58V88.5H98.5996V80.452H100.04V87.364H104.072V80.452H105.512V87.364H106.792V90.58H105.56ZM112.171 88.644C110.891 88.644 109.878 88.276 109.131 87.54C108.395 86.804 108.027 85.7907 108.027 84.5C108.027 83.6467 108.187 82.9107 108.507 82.292C108.838 81.6627 109.291 81.1773 109.867 80.836C110.443 80.484 111.115 80.308 111.883 80.308C112.619 80.308 113.243 80.468 113.755 80.788C114.267 81.0973 114.656 81.54 114.923 82.116C115.19 82.692 115.323 83.3747 115.323 84.164V84.644H109.163V83.78H114.331L114.059 83.988C114.059 83.156 113.872 82.5107 113.499 82.052C113.136 81.5933 112.598 81.364 111.883 81.364C111.104 81.364 110.502 81.636 110.075 82.18C109.648 82.7133 109.435 83.444 109.435 84.372V84.516C109.435 85.4973 109.675 86.2387 110.155 86.74C110.646 87.2413 111.323 87.492 112.187 87.492C112.667 87.492 113.115 87.4227 113.531 87.284C113.947 87.1453 114.347 86.916 114.731 86.596L115.211 87.604C114.848 87.9347 114.395 88.1907 113.851 88.372C113.318 88.5533 112.758 88.644 112.171 88.644ZM117.35 88.5V80.452H118.79V83.78H123.046V80.452H124.486V88.5H123.046V84.932H118.79V88.5H117.35ZM126.975 88.5V80.452H128.415V83.3H130.783C131.828 83.3 132.612 83.524 133.135 83.972C133.668 84.4093 133.935 85.044 133.935 85.876C133.935 86.4093 133.812 86.8733 133.567 87.268C133.321 87.6627 132.964 87.9667 132.495 88.18C132.025 88.3933 131.455 88.5 130.783 88.5H126.975ZM128.415 87.492H130.623C131.263 87.492 131.743 87.364 132.063 87.108C132.393 86.8413 132.559 86.436 132.559 85.892C132.559 85.348 132.393 84.948 132.063 84.692C131.743 84.436 131.263 84.308 130.623 84.308H128.415V87.492ZM135.103 88.5V80.452H136.543V88.5H135.103Z" fill="white"/>
<circle cx="158" cy="83" r="12" fill="#424754"/>
<path d="M157.647 85.074V84.514C157.647 84.0753 157.731 83.6693 157.899 83.296C158.067 82.9227 158.356 82.5167 158.767 82.078C159.075 81.7513 159.29 81.4667 159.411 81.224C159.542 80.972 159.607 80.72 159.607 80.468C159.607 80.1507 159.486 79.9033 159.243 79.726C159.01 79.5487 158.683 79.46 158.263 79.46C157.899 79.46 157.54 79.516 157.185 79.628C156.83 79.74 156.494 79.8893 156.177 80.076V78.564C156.504 78.3773 156.872 78.2373 157.283 78.144C157.703 78.0413 158.114 77.99 158.515 77.99C159.066 77.99 159.556 78.074 159.985 78.242C160.424 78.4007 160.764 78.648 161.007 78.984C161.259 79.3107 161.385 79.7307 161.385 80.244C161.385 80.552 161.329 80.8507 161.217 81.14C161.114 81.42 160.965 81.6907 160.769 81.952C160.573 82.2133 160.33 82.4747 160.041 82.736C159.584 83.1373 159.266 83.4873 159.089 83.786C158.912 84.0847 158.804 84.3833 158.767 84.682L158.711 85.074H157.647ZM157.199 88V86.054H159.159V88H157.199Z" fill="#BCBCBC"/>
</g>
<line x1="12" y1="332" x2="422" y2="332" stroke="#6F727D" stroke-width="2"/>
<line x1="16.5039" y1="331.882" x2="419.134" y2="331.882" stroke="#01FFDB" stroke-width="2"/>
<circle cx="421.584" cy="332" r="6" fill="#01FFDB"/>
<circle cx="18" cy="332" r="6" fill="#01FFDB"/>
<path d="M80.7922 357V351.96H81.6322L83.4522 355.18L85.2722 351.96H86.1122V357H85.2222V353.09H85.4422L83.6922 356.19H83.2122L81.4622 353.09H81.6822V357H80.7922ZM89.5982 357.09C89.1515 357.09 88.7615 356.987 88.4282 356.78C88.0948 356.573 87.8348 356.273 87.6482 355.88C87.4682 355.487 87.3782 355.02 87.3782 354.48C87.3782 353.933 87.4682 353.467 87.6482 353.08C87.8348 352.693 88.0948 352.397 88.4282 352.19C88.7615 351.977 89.1515 351.87 89.5982 351.87C90.0382 351.87 90.4215 351.98 90.7482 352.2C91.0748 352.42 91.2915 352.72 91.3982 353.1H91.2882L91.3882 351.96H92.3682C92.3482 352.167 92.3282 352.373 92.3082 352.58C92.2948 352.78 92.2882 352.977 92.2882 353.17V357H91.2782V355.88H91.3882C91.2815 356.253 91.0615 356.55 90.7282 356.77C90.4015 356.983 90.0248 357.09 89.5982 357.09ZM89.8482 356.3C90.2815 356.3 90.6282 356.147 90.8882 355.84C91.1548 355.533 91.2882 355.08 91.2882 354.48C91.2882 353.88 91.1548 353.43 90.8882 353.13C90.6282 352.823 90.2815 352.67 89.8482 352.67C89.4082 352.67 89.0548 352.823 88.7882 353.13C88.5282 353.43 88.3982 353.88 88.3982 354.48C88.3982 355.08 88.5282 355.533 88.7882 355.84C89.0482 356.147 89.4015 356.3 89.8482 356.3ZM93.8791 359.16V353.17C93.8791 352.977 93.8691 352.78 93.8491 352.58C93.8358 352.373 93.8191 352.167 93.7991 351.96H94.7791L94.8791 353.1H94.7691C94.8758 352.72 95.0891 352.42 95.4091 352.2C95.7358 351.98 96.1224 351.87 96.5691 351.87C97.0158 351.87 97.4058 351.977 97.7391 352.19C98.0724 352.397 98.3291 352.693 98.5091 353.08C98.6958 353.467 98.7891 353.933 98.7891 354.48C98.7891 355.02 98.6958 355.487 98.5091 355.88C98.3291 356.273 98.0724 356.573 97.7391 356.78C97.4058 356.987 97.0158 357.09 96.5691 357.09C96.1291 357.09 95.7458 356.983 95.4191 356.77C95.0991 356.55 94.8858 356.253 94.7791 355.88H94.8891V359.16H93.8791ZM96.3191 356.3C96.7591 356.3 97.1091 356.147 97.3691 355.84C97.6358 355.533 97.7691 355.08 97.7691 354.48C97.7691 353.88 97.6358 353.43 97.3691 353.13C97.1091 352.823 96.7591 352.67 96.3191 352.67C95.8791 352.67 95.5258 352.823 95.2591 353.13C94.9991 353.43 94.8691 353.88 94.8691 354.48C94.8691 355.08 94.9991 355.533 95.2591 355.84C95.5258 356.147 95.8791 356.3 96.3191 356.3ZM101.13 357V352.77H99.35V351.96H103.92V352.77H102.13V357H101.13Z" fill="white"/>
<path d="M48.8704 359.16V355.94H48.9704C48.8704 356.313 48.6938 356.6 48.4404 356.8C48.1938 356.993 47.8904 357.09 47.5304 357.09C47.1704 357.09 46.8504 356.983 46.5704 356.77C46.2904 356.557 46.0738 356.257 45.9204 355.87C45.7671 355.477 45.6904 355.013 45.6904 354.48C45.6904 353.94 45.7671 353.477 45.9204 353.09C46.0738 352.703 46.2871 352.403 46.5604 352.19C46.8404 351.977 47.1638 351.87 47.5304 351.87C47.8904 351.87 48.1938 351.97 48.4404 352.17C48.6938 352.37 48.8704 352.65 48.9704 353.01H48.8704V349.64H49.8704V353.01H49.7704C49.8771 352.65 50.0538 352.37 50.3004 352.17C50.5471 351.97 50.8504 351.87 51.2104 351.87C51.5771 351.87 51.9004 351.977 52.1804 352.19C52.4604 352.403 52.6738 352.703 52.8204 353.09C52.9738 353.477 53.0504 353.94 53.0504 354.48C53.0504 355.013 52.9738 355.477 52.8204 355.87C52.6738 356.257 52.4604 356.557 52.1804 356.77C51.9071 356.983 51.5838 357.09 51.2104 357.09C50.8571 357.09 50.5538 356.993 50.3004 356.8C50.0538 356.6 49.8771 356.313 49.7704 355.94H49.8704V359.16H48.8704ZM47.7904 356.32C48.1304 356.32 48.3971 356.167 48.5904 355.86C48.7904 355.547 48.8904 355.087 48.8904 354.48C48.8904 353.88 48.7904 353.423 48.5904 353.11C48.3971 352.797 48.1304 352.64 47.7904 352.64C47.4504 352.64 47.1804 352.797 46.9804 353.11C46.7871 353.423 46.6904 353.88 46.6904 354.48C46.6904 355.087 46.7871 355.547 46.9804 355.86C47.1804 356.167 47.4504 356.32 47.7904 356.32ZM50.9504 356.32C51.2904 356.32 51.5571 356.167 51.7504 355.86C51.9504 355.547 52.0504 355.087 52.0504 354.48C52.0504 353.88 51.9504 353.423 51.7504 353.11C51.5504 352.797 51.2838 352.64 50.9504 352.64C50.6104 352.64 50.3438 352.797 50.1504 353.11C49.9571 353.423 49.8604 353.88 49.8604 354.48C49.8604 355.087 49.9571 355.547 50.1504 355.86C50.3438 356.167 50.6104 356.32 50.9504 356.32ZM56.6798 357.09C55.8665 357.09 55.2265 356.86 54.7598 356.4C54.2931 355.94 54.0598 355.303 54.0598 354.49C54.0598 353.963 54.1598 353.503 54.3598 353.11C54.5665 352.717 54.8498 352.413 55.2098 352.2C55.5765 351.98 55.9998 351.87 56.4798 351.87C56.9531 351.87 57.3498 351.97 57.6698 352.17C57.9898 352.37 58.2331 352.653 58.3998 353.02C58.5665 353.38 58.6498 353.807 58.6498 354.3V354.62H54.8498V354.04H57.9598L57.7898 354.17C57.7898 353.67 57.6765 353.283 57.4498 353.01C57.2298 352.73 56.9098 352.59 56.4898 352.59C56.0231 352.59 55.6631 352.753 55.4098 353.08C55.1565 353.4 55.0298 353.843 55.0298 354.41V354.51C55.0298 355.103 55.1731 355.55 55.4598 355.85C55.7531 356.15 56.1665 356.3 56.6998 356.3C56.9931 356.3 57.2665 356.26 57.5198 356.18C57.7798 356.093 58.0265 355.953 58.2598 355.76L58.5898 356.45C58.3565 356.657 58.0731 356.817 57.7398 356.93C57.4065 357.037 57.0531 357.09 56.6798 357.09ZM59.886 357V351.96H62.426C63.0326 351.96 63.4793 352.077 63.766 352.31C64.0593 352.537 64.206 352.86 64.206 353.28C64.206 353.607 64.096 353.877 63.876 354.09C63.6626 354.303 63.3793 354.433 63.026 354.48V354.35C63.446 354.37 63.776 354.493 64.016 354.72C64.256 354.947 64.376 355.24 64.376 355.6C64.376 356.033 64.2126 356.377 63.886 356.63C63.566 356.877 63.1093 357 62.516 357H59.886ZM60.836 356.35H62.436C62.7626 356.35 63.0126 356.283 63.186 356.15C63.3593 356.01 63.446 355.81 63.446 355.55C63.446 355.29 63.3593 355.093 63.186 354.96C63.0126 354.827 62.7626 354.76 62.436 354.76H60.836V356.35ZM60.836 354.11H62.326C62.626 354.11 62.8593 354.043 63.026 353.91C63.1926 353.777 63.276 353.593 63.276 353.36C63.276 353.12 63.1926 352.937 63.026 352.81C62.8593 352.677 62.626 352.61 62.326 352.61H60.836V354.11Z" fill="white"/>
<path d="M122.001 357.09C121.555 357.09 121.165 356.987 120.831 356.78C120.498 356.573 120.238 356.273 120.051 355.88C119.871 355.487 119.781 355.02 119.781 354.48C119.781 353.933 119.871 353.467 120.051 353.08C120.238 352.693 120.498 352.397 120.831 352.19C121.165 351.977 121.555 351.87 122.001 351.87C122.441 351.87 122.825 351.98 123.151 352.2C123.478 352.42 123.695 352.72 123.801 353.1H123.691L123.791 351.96H124.771C124.751 352.167 124.731 352.373 124.711 352.58C124.698 352.78 124.691 352.977 124.691 353.17V357H123.681V355.88H123.791C123.685 356.253 123.465 356.55 123.131 356.77C122.805 356.983 122.428 357.09 122.001 357.09ZM122.251 356.3C122.685 356.3 123.031 356.147 123.291 355.84C123.558 355.533 123.691 355.08 123.691 354.48C123.691 353.88 123.558 353.43 123.291 353.13C123.031 352.823 122.685 352.67 122.251 352.67C121.811 352.67 121.458 352.823 121.191 353.13C120.931 353.43 120.801 353.88 120.801 354.48C120.801 355.08 120.931 355.533 121.191 355.84C121.451 356.147 121.805 356.3 122.251 356.3ZM126.242 357V351.96H130.762V357H129.762V352.75H127.242V357H126.242ZM132.318 359.16V353.17C132.318 352.977 132.308 352.78 132.288 352.58C132.274 352.373 132.258 352.167 132.238 351.96H133.218L133.318 353.1H133.208C133.314 352.72 133.528 352.42 133.848 352.2C134.174 351.98 134.561 351.87 135.008 351.87C135.454 351.87 135.844 351.977 136.178 352.19C136.511 352.397 136.768 352.693 136.948 353.08C137.134 353.467 137.228 353.933 137.228 354.48C137.228 355.02 137.134 355.487 136.948 355.88C136.768 356.273 136.511 356.573 136.178 356.78C135.844 356.987 135.454 357.09 135.008 357.09C134.568 357.09 134.184 356.983 133.858 356.77C133.538 356.55 133.324 356.253 133.218 355.88H133.328V359.16H132.318ZM134.758 356.3C135.198 356.3 135.548 356.147 135.808 355.84C136.074 355.533 136.208 355.08 136.208 354.48C136.208 353.88 136.074 353.43 135.808 353.13C135.548 352.823 135.198 352.67 134.758 352.67C134.318 352.67 133.964 352.823 133.698 353.13C133.438 353.43 133.308 353.88 133.308 354.48C133.308 355.08 133.438 355.533 133.698 355.84C133.964 356.147 134.318 356.3 134.758 356.3Z" fill="white"/>
<path d="M154.219 357V351.96H155.059L156.879 355.18L158.699 351.96H159.539V357H158.649V353.09H158.869L157.119 356.19H156.639L154.889 353.09H155.109V357H154.219ZM163.025 357.09C162.578 357.09 162.188 356.987 161.855 356.78C161.522 356.573 161.262 356.273 161.075 355.88C160.895 355.487 160.805 355.02 160.805 354.48C160.805 353.933 160.895 353.467 161.075 353.08C161.262 352.693 161.522 352.397 161.855 352.19C162.188 351.977 162.578 351.87 163.025 351.87C163.465 351.87 163.848 351.98 164.175 352.2C164.502 352.42 164.718 352.72 164.825 353.1H164.715L164.815 351.96H165.795C165.775 352.167 165.755 352.373 165.735 352.58C165.722 352.78 165.715 352.977 165.715 353.17V357H164.705V355.88H164.815C164.708 356.253 164.488 356.55 164.155 356.77C163.828 356.983 163.452 357.09 163.025 357.09ZM163.275 356.3C163.708 356.3 164.055 356.147 164.315 355.84C164.582 355.533 164.715 355.08 164.715 354.48C164.715 353.88 164.582 353.43 164.315 353.13C164.055 352.823 163.708 352.67 163.275 352.67C162.835 352.67 162.482 352.823 162.215 353.13C161.955 353.43 161.825 353.88 161.825 354.48C161.825 355.08 161.955 355.533 162.215 355.84C162.475 356.147 162.828 356.3 163.275 356.3ZM167.266 357V351.96H168.186V356.03H167.906L170.946 351.96H171.786V357H170.876V352.92H171.166L168.106 357H167.266ZM169.526 351.5C169.219 351.5 168.946 351.45 168.706 351.35C168.466 351.25 168.259 351.103 168.086 350.91C167.919 350.71 167.793 350.47 167.706 350.19L168.266 349.99C168.379 350.303 168.539 350.537 168.746 350.69C168.953 350.837 169.213 350.91 169.526 350.91C169.846 350.91 170.106 350.84 170.306 350.7C170.513 350.56 170.689 350.327 170.836 350L171.356 350.19C171.196 350.643 170.956 350.977 170.636 351.19C170.323 351.397 169.953 351.5 169.526 351.5Z" fill="white"/>
<path d="M188.884 357V351.96H189.804V356.03H189.524L192.564 351.96H193.404V357H192.494V352.92H192.784L189.724 357H188.884ZM199.279 357.09C198.593 357.09 198.033 356.89 197.599 356.49C197.166 356.083 196.916 355.52 196.849 354.8H195.899V357H194.919V351.96H195.899V354.01H196.859C196.953 353.337 197.213 352.813 197.639 352.44C198.066 352.06 198.613 351.87 199.279 351.87C199.779 351.87 200.213 351.977 200.579 352.19C200.953 352.397 201.239 352.693 201.439 353.08C201.646 353.467 201.749 353.933 201.749 354.48C201.749 355.02 201.646 355.487 201.439 355.88C201.239 356.267 200.953 356.567 200.579 356.78C200.213 356.987 199.779 357.09 199.279 357.09ZM199.279 356.31C199.719 356.31 200.069 356.157 200.329 355.85C200.596 355.543 200.729 355.087 200.729 354.48C200.729 353.88 200.596 353.427 200.329 353.12C200.069 352.813 199.719 352.66 199.279 352.66C198.839 352.66 198.486 352.813 198.219 353.12C197.959 353.427 197.829 353.88 197.829 354.48C197.829 355.087 197.959 355.543 198.219 355.85C198.486 356.157 198.839 356.31 199.279 356.31ZM203.005 357V351.96H204.005V354.01H206.555V351.96H207.555V357H206.555V354.8H204.005V357H203.005ZM209.079 357V351.96H210.079V353.72H211.509C212.169 353.72 212.666 353.86 212.999 354.14C213.333 354.413 213.499 354.813 213.499 355.34C213.499 355.68 213.423 355.977 213.269 356.23C213.116 356.477 212.889 356.667 212.589 356.8C212.296 356.933 211.936 357 211.509 357H209.079ZM210.079 356.31H211.399C211.773 356.31 212.059 356.233 212.259 356.08C212.459 355.92 212.559 355.677 212.559 355.35C212.559 355.023 212.459 354.787 212.259 354.64C212.066 354.487 211.779 354.41 211.399 354.41H210.079V356.31Z" fill="white"/>
<path d="M229.987 357V351.96H230.907V356.03H230.627L233.667 351.96H234.507V357H233.597V352.92H233.887L230.827 357H229.987ZM240.382 357.09C239.695 357.09 239.135 356.89 238.702 356.49C238.268 356.083 238.018 355.52 237.952 354.8H237.002V357H236.022V351.96H237.002V354.01H237.962C238.055 353.337 238.315 352.813 238.742 352.44C239.168 352.06 239.715 351.87 240.382 351.87C240.882 351.87 241.315 351.977 241.682 352.19C242.055 352.397 242.342 352.693 242.542 353.08C242.748 353.467 242.852 353.933 242.852 354.48C242.852 355.02 242.748 355.487 242.542 355.88C242.342 356.267 242.055 356.567 241.682 356.78C241.315 356.987 240.882 357.09 240.382 357.09ZM240.382 356.31C240.822 356.31 241.172 356.157 241.432 355.85C241.698 355.543 241.832 355.087 241.832 354.48C241.832 353.88 241.698 353.427 241.432 353.12C241.172 352.813 240.822 352.66 240.382 352.66C239.942 352.66 239.588 352.813 239.322 353.12C239.062 353.427 238.932 353.88 238.932 354.48C238.932 355.087 239.062 355.543 239.322 355.85C239.588 356.157 239.942 356.31 240.382 356.31ZM243.8 357.13L243.46 356.33C243.687 356.237 243.877 356.12 244.03 355.98C244.19 355.833 244.313 355.647 244.4 355.42C244.493 355.193 244.56 354.913 244.6 354.58C244.64 354.247 244.66 353.843 244.66 353.37V351.96H248.46V357H247.46V352.75H245.59V353.4C245.59 354.16 245.53 354.79 245.41 355.29C245.29 355.79 245.097 356.187 244.83 356.48C244.57 356.767 244.227 356.983 243.8 357.13ZM249.977 357V351.96H250.977V353.72H252.407C253.067 353.72 253.563 353.86 253.897 354.14C254.23 354.413 254.397 354.813 254.397 355.34C254.397 355.68 254.32 355.977 254.167 356.23C254.013 356.477 253.787 356.667 253.487 356.8C253.193 356.933 252.833 357 252.407 357H249.977ZM250.977 356.31H252.297C252.67 356.31 252.957 356.233 253.157 356.08C253.357 355.92 253.457 355.677 253.457 355.35C253.457 355.023 253.357 354.787 253.157 354.64C252.963 354.487 252.677 354.41 252.297 354.41H250.977V356.31Z" fill="white"/>
<path d="M305.292 357.09C304.786 357.09 304.342 356.987 303.962 356.78C303.589 356.567 303.299 356.263 303.092 355.87C302.892 355.47 302.792 354.997 302.792 354.45C302.792 353.91 302.896 353.447 303.102 353.06C303.309 352.673 303.599 352.38 303.972 352.18C304.346 351.973 304.786 351.87 305.292 351.87C305.619 351.87 305.936 351.927 306.242 352.04C306.549 352.147 306.802 352.3 307.002 352.5L306.672 353.21C306.486 353.03 306.276 352.897 306.042 352.81C305.809 352.717 305.582 352.67 305.362 352.67C304.882 352.67 304.506 352.823 304.232 353.13C303.959 353.437 303.822 353.88 303.822 354.46C303.822 355.047 303.959 355.497 304.232 355.81C304.506 356.123 304.882 356.28 305.362 356.28C305.576 356.28 305.799 356.24 306.032 356.16C306.266 356.073 306.479 355.937 306.672 355.75L307.002 356.46C306.796 356.66 306.536 356.817 306.222 356.93C305.916 357.037 305.606 357.09 305.292 357.09ZM310.52 357.09C309.706 357.09 309.066 356.86 308.6 356.4C308.133 355.94 307.9 355.303 307.9 354.49C307.9 353.963 308 353.503 308.2 353.11C308.406 352.717 308.69 352.413 309.05 352.2C309.416 351.98 309.84 351.87 310.32 351.87C310.793 351.87 311.19 351.97 311.51 352.17C311.83 352.37 312.073 352.653 312.24 353.02C312.406 353.38 312.49 353.807 312.49 354.3V354.62H308.69V354.04H311.8L311.63 354.17C311.63 353.67 311.516 353.283 311.29 353.01C311.07 352.73 310.75 352.59 310.33 352.59C309.863 352.59 309.503 352.753 309.25 353.08C308.996 353.4 308.87 353.843 308.87 354.41V354.51C308.87 355.103 309.013 355.55 309.3 355.85C309.593 356.15 310.006 356.3 310.54 356.3C310.833 356.3 311.106 356.26 311.36 356.18C311.62 356.093 311.866 355.953 312.1 355.76L312.43 356.45C312.196 356.657 311.913 356.817 311.58 356.93C311.246 357.037 310.893 357.09 310.52 357.09ZM313.726 357V351.96H314.726V354.01H317.276V351.96H318.276V357H317.276V354.8H314.726V357H313.726ZM320.88 357V352.77H319.1V351.96H323.67V352.77H321.88V357H320.88Z" fill="white"/>
<path d="M372.007 357V351.96H373.007V354.01H375.557V351.96H376.557V357H375.557V354.8H373.007V357H372.007ZM380.281 357.09C379.781 357.09 379.348 356.987 378.981 356.78C378.615 356.567 378.331 356.267 378.131 355.88C377.931 355.487 377.831 355.02 377.831 354.48C377.831 353.94 377.931 353.477 378.131 353.09C378.331 352.697 378.615 352.397 378.981 352.19C379.348 351.977 379.781 351.87 380.281 351.87C380.781 351.87 381.215 351.977 381.581 352.19C381.955 352.397 382.241 352.697 382.441 353.09C382.648 353.477 382.751 353.94 382.751 354.48C382.751 355.02 382.648 355.487 382.441 355.88C382.241 356.267 381.955 356.567 381.581 356.78C381.215 356.987 380.781 357.09 380.281 357.09ZM380.281 356.3C380.721 356.3 381.071 356.147 381.331 355.84C381.591 355.533 381.721 355.08 381.721 354.48C381.721 353.88 381.591 353.43 381.331 353.13C381.071 352.823 380.721 352.67 380.281 352.67C379.848 352.67 379.501 352.823 379.241 353.13C378.981 353.43 378.851 353.88 378.851 354.48C378.851 355.08 378.978 355.533 379.231 355.84C379.491 356.147 379.841 356.3 380.281 356.3ZM383.589 357L384.379 355.64C384.506 355.42 384.666 355.243 384.859 355.11C385.059 354.97 385.263 354.9 385.469 354.9H385.649L385.639 355C385.066 355 384.619 354.87 384.299 354.61C383.979 354.35 383.819 353.977 383.819 353.49C383.819 353.003 383.979 352.627 384.299 352.36C384.619 352.093 385.089 351.96 385.709 351.96H388.069V357H387.139V355.13H386.469C386.216 355.13 385.999 355.193 385.819 355.32C385.646 355.447 385.503 355.613 385.389 355.82L384.709 357H383.589ZM385.889 354.45H387.139V352.64H385.889C385.516 352.64 385.236 352.72 385.049 352.88C384.869 353.04 384.779 353.26 384.779 353.54C384.779 353.833 384.869 354.06 385.049 354.22C385.236 354.373 385.516 354.45 385.889 354.45ZM391.825 357.09C391.065 357.09 390.459 356.853 390.005 356.38C389.559 355.907 389.335 355.21 389.335 354.29V353.42C389.335 352.48 389.535 351.723 389.935 351.15C390.342 350.577 390.969 350.19 391.815 349.99L393.655 349.55L393.945 350.36L391.885 350.84C391.525 350.92 391.229 351.07 390.995 351.29C390.762 351.51 390.585 351.77 390.465 352.07C390.352 352.37 390.295 352.69 390.295 353.03V353.49H390.145C390.225 353.183 390.352 352.923 390.525 352.71C390.705 352.49 390.925 352.32 391.185 352.2C391.452 352.073 391.749 352.01 392.075 352.01C392.509 352.01 392.889 352.11 393.215 352.31C393.542 352.51 393.795 352.8 393.975 353.18C394.162 353.553 394.255 353.997 394.255 354.51C394.255 355.043 394.155 355.503 393.955 355.89C393.755 356.277 393.472 356.573 393.105 356.78C392.745 356.987 392.319 357.09 391.825 357.09ZM391.795 356.31C392.249 356.31 392.602 356.163 392.855 355.87C393.115 355.57 393.245 355.13 393.245 354.55C393.245 353.977 393.115 353.54 392.855 353.24C392.595 352.94 392.242 352.79 391.795 352.79C391.349 352.79 390.995 352.94 390.735 353.24C390.475 353.533 390.345 353.953 390.345 354.5C390.345 355.1 390.472 355.553 390.725 355.86C390.985 356.16 391.342 356.31 391.795 356.31Z" fill="white"/>
<path d="M273.007 357.09C272.561 357.09 272.171 356.987 271.837 356.78C271.504 356.573 271.244 356.273 271.057 355.88C270.877 355.487 270.787 355.02 270.787 354.48C270.787 353.933 270.877 353.467 271.057 353.08C271.244 352.693 271.504 352.397 271.837 352.19C272.171 351.977 272.561 351.87 273.007 351.87C273.447 351.87 273.831 351.98 274.157 352.2C274.484 352.42 274.701 352.72 274.807 353.1H274.697L274.797 351.96H275.777C275.757 352.167 275.737 352.373 275.717 352.58C275.704 352.78 275.697 352.977 275.697 353.17V357H274.687V355.88H274.797C274.691 356.253 274.471 356.55 274.137 356.77C273.811 356.983 273.434 357.09 273.007 357.09ZM273.257 356.3C273.691 356.3 274.037 356.147 274.297 355.84C274.564 355.533 274.697 355.08 274.697 354.48C274.697 353.88 274.564 353.43 274.297 353.13C274.037 352.823 273.691 352.67 273.257 352.67C272.817 352.67 272.464 352.823 272.197 353.13C271.937 353.43 271.807 353.88 271.807 354.48C271.807 355.08 271.937 355.533 272.197 355.84C272.457 356.147 272.811 356.3 273.257 356.3ZM277.248 357V351.96H279.788C280.395 351.96 280.842 352.077 281.128 352.31C281.422 352.537 281.568 352.86 281.568 353.28C281.568 353.607 281.458 353.877 281.238 354.09C281.025 354.303 280.742 354.433 280.388 354.48V354.35C280.808 354.37 281.138 354.493 281.378 354.72C281.618 354.947 281.738 355.24 281.738 355.6C281.738 356.033 281.575 356.377 281.248 356.63C280.928 356.877 280.472 357 279.878 357H277.248ZM278.198 356.35H279.798C280.125 356.35 280.375 356.283 280.548 356.15C280.722 356.01 280.808 355.81 280.808 355.55C280.808 355.29 280.722 355.093 280.548 354.96C280.375 354.827 280.125 354.76 279.798 354.76H278.198V356.35ZM278.198 354.11H279.688C279.988 354.11 280.222 354.043 280.388 353.91C280.555 353.777 280.638 353.593 280.638 353.36C280.638 353.12 280.555 352.937 280.388 352.81C280.222 352.677 279.988 352.61 279.688 352.61H278.198V354.11ZM282.932 357V351.96H286.562V352.77H283.942V357H282.932Z" fill="white"/>
<path d="M342.403 357.09C341.903 357.09 341.47 356.987 341.103 356.78C340.737 356.567 340.453 356.267 340.253 355.88C340.053 355.487 339.953 355.02 339.953 354.48C339.953 353.94 340.053 353.477 340.253 353.09C340.453 352.697 340.737 352.397 341.103 352.19C341.47 351.977 341.903 351.87 342.403 351.87C342.903 351.87 343.337 351.977 343.703 352.19C344.077 352.397 344.363 352.697 344.563 353.09C344.77 353.477 344.873 353.94 344.873 354.48C344.873 355.02 344.77 355.487 344.563 355.88C344.363 356.267 344.077 356.567 343.703 356.78C343.337 356.987 342.903 357.09 342.403 357.09ZM342.403 356.3C342.843 356.3 343.193 356.147 343.453 355.84C343.713 355.533 343.843 355.08 343.843 354.48C343.843 353.88 343.713 353.43 343.453 353.13C343.193 352.823 342.843 352.67 342.403 352.67C341.97 352.67 341.623 352.823 341.363 353.13C341.103 353.43 340.973 353.88 340.973 354.48C340.973 355.08 341.1 355.533 341.353 355.84C341.613 356.147 341.963 356.3 342.403 356.3ZM346.121 357V351.96H347.121V354.02H347.991L349.561 351.96H350.661L348.781 354.44L348.531 354.12C348.725 354.14 348.891 354.19 349.031 354.27C349.171 354.343 349.308 354.453 349.441 354.6C349.575 354.747 349.711 354.94 349.851 355.18L350.901 357H349.821L348.921 355.46C348.821 355.287 348.725 355.153 348.631 355.06C348.538 354.96 348.431 354.893 348.311 354.86C348.191 354.82 348.045 354.8 347.871 354.8H347.121V357H346.121ZM352.719 357V352.77H350.939V351.96H355.509V352.77H353.719V357H352.719Z" fill="white"/>
<path d="M410.617 358.3V356.22H411.177C411.397 355.887 411.557 355.497 411.657 355.05C411.757 354.603 411.807 354.063 411.807 353.43V351.96H415.497V356.22H416.307V358.3H415.437V357H411.487V358.3H410.617ZM412.107 356.23H414.547V352.74H412.677V353.63C412.677 354.117 412.627 354.593 412.527 355.06C412.434 355.52 412.294 355.91 412.107 356.23ZM419.679 357.09C418.865 357.09 418.225 356.86 417.759 356.4C417.292 355.94 417.059 355.303 417.059 354.49C417.059 353.963 417.159 353.503 417.359 353.11C417.565 352.717 417.849 352.413 418.209 352.2C418.575 351.98 418.999 351.87 419.479 351.87C419.952 351.87 420.349 351.97 420.669 352.17C420.989 352.37 421.232 352.653 421.399 353.02C421.565 353.38 421.649 353.807 421.649 354.3V354.62H417.849V354.04H420.959L420.789 354.17C420.789 353.67 420.675 353.283 420.449 353.01C420.229 352.73 419.909 352.59 419.489 352.59C419.022 352.59 418.662 352.753 418.409 353.08C418.155 353.4 418.029 353.843 418.029 354.41V354.51C418.029 355.103 418.172 355.55 418.459 355.85C418.752 356.15 419.165 356.3 419.699 356.3C419.992 356.3 420.265 356.26 420.519 356.18C420.779 356.093 421.025 355.953 421.259 355.76L421.589 356.45C421.355 356.657 421.072 356.817 420.739 356.93C420.405 357.037 420.052 357.09 419.679 357.09ZM422.885 357V351.96H423.885V354.02H424.755L426.325 351.96H427.425L425.545 354.44L425.295 354.12C425.488 354.14 425.655 354.19 425.795 354.27C425.935 354.343 426.072 354.453 426.205 354.6C426.338 354.747 426.475 354.94 426.615 355.18L427.665 357H426.585L425.685 355.46C425.585 355.287 425.488 355.153 425.395 355.06C425.302 354.96 425.195 354.893 425.075 354.86C424.955 354.82 424.808 354.8 424.635 354.8H423.885V357H422.885Z" fill="white"/>
<path d="M12.6781 357L13.4681 355.64C13.5948 355.42 13.7548 355.243 13.9481 355.11C14.1481 354.97 14.3515 354.9 14.5581 354.9H14.7381L14.7281 355C14.1548 355 13.7081 354.87 13.3881 354.61C13.0681 354.35 12.9081 353.977 12.9081 353.49C12.9081 353.003 13.0681 352.627 13.3881 352.36C13.7081 352.093 14.1781 351.96 14.7981 351.96H17.1581V357H16.2281V355.13H15.5581C15.3048 355.13 15.0881 355.193 14.9081 355.32C14.7348 355.447 14.5915 355.613 14.4781 355.82L13.7981 357H12.6781ZM14.9781 354.45H16.2281V352.64H14.9781C14.6048 352.64 14.3248 352.72 14.1381 352.88C13.9581 353.04 13.8681 353.26 13.8681 353.54C13.8681 353.833 13.9581 354.06 14.1381 354.22C14.3248 354.373 14.6048 354.45 14.9781 354.45ZM18.6741 357V351.96H19.6741V354.01H22.2241V351.96H23.2241V357H22.2241V354.8H19.6741V357H18.6741ZM24.7483 357V351.96H27.2883C27.8949 351.96 28.3416 352.077 28.6283 352.31C28.9216 352.537 29.0683 352.86 29.0683 353.28C29.0683 353.607 28.9583 353.877 28.7383 354.09C28.5249 354.303 28.2416 354.433 27.8883 354.48V354.35C28.3083 354.37 28.6383 354.493 28.8783 354.72C29.1183 354.947 29.2383 355.24 29.2383 355.6C29.2383 356.033 29.0749 356.377 28.7483 356.63C28.4283 356.877 27.9716 357 27.3783 357H24.7483ZM25.6983 356.35H27.2983C27.6249 356.35 27.8749 356.283 28.0483 356.15C28.2216 356.01 28.3083 355.81 28.3083 355.55C28.3083 355.29 28.2216 355.093 28.0483 354.96C27.8749 354.827 27.6249 354.76 27.2983 354.76H25.6983V356.35ZM25.6983 354.11H27.1883C27.4883 354.11 27.7216 354.043 27.8883 353.91C28.0549 353.777 28.1383 353.593 28.1383 353.36C28.1383 353.12 28.0549 352.937 27.8883 352.81C27.7216 352.677 27.4883 352.61 27.1883 352.61H25.6983V354.11Z" fill="white"/>
<defs>
<filter id="filter0_d_628_21086" x="0" y="-11" width="453" height="332" filterUnits="userSpaceOnUse" color-interpolation-filters="sRGB">
<feFlood flood-opacity="0" result="BackgroundImageFix"/>
<feColorMatrix in="SourceAlpha" type="matrix" values="0 0 0 0 0 0 0 0 0 0 0 0 0 0 0 0 0 0 127 0" result="hardAlpha"/>
<feOffset dy="4"/>
<feGaussianBlur stdDeviation="7.5"/>
<feComposite in2="hardAlpha" operator="out"/>
<feColorMatrix type="matrix" values="0 0 0 0 0.383333 0 0 0 0 0.383333 0 0 0 0 0.383333 0 0 0 0.15 0"/>
<feBlend mode="normal" in2="BackgroundImageFix" result="effect1_dropShadow_628_21086"/>
<feBlend mode="normal" in="SourceGraphic" in2="effect1_dropShadow_628_21086" result="shape"/>
</filter>
<filter id="filter1_d_628_21086" x="28.4453" y="130.003" width="398.631" height="131.828" filterUnits="userSpaceOnUse" color-interpolation-filters="sRGB">
<feFlood flood-opacity="0" result="BackgroundImageFix"/>
<feColorMatrix in="SourceAlpha" type="matrix" values="0 0 0 0 0 0 0 0 0 0 0 0 0 0 0 0 0 0 127 0" result="hardAlpha"/>
<feOffset dy="4"/>
<feGaussianBlur stdDeviation="2.5"/>
<feComposite in2="hardAlpha" operator="out"/>
<feColorMatrix type="matrix" values="0 0 0 0 0.415686 0 0 0 0 0.752941 0 0 0 0 0.6 0 0 0 0.25 0"/>
<feBlend mode="normal" in2="BackgroundImageFix" result="effect1_dropShadow_628_21086"/>
<feBlend mode="normal" in="SourceGraphic" in2="effect1_dropShadow_628_21086" result="shape"/>
</filter>
<linearGradient id="paint0_linear_628_21086" x1="167.986" y1="49.7419" x2="220.072" y2="416.442" gradientUnits="userSpaceOnUse">
<stop stop-color="#01FFDB"/>
<stop offset="1" stop-color="#048086"/>
</linearGradient>
</defs>
</svg>
