<svg width="16" height="16" viewBox="0 0 16 16" fill="none" xmlns="http://www.w3.org/2000/svg">
<path d="M10.4067 8C10.4067 9.32667 9.32667 10.4067 8 10.4067C6.67333 10.4067 5.59333 9.32667 5.59333 8C5.59333 6.67333 6.67333 5.59333 8 5.59333C9.32667 5.59333 10.4067 6.67333 10.4067 8ZM8 0C3.58867 0 0 3.58867 0 8C0 12.4113 3.58867 16 8 16C9.616 16 11.174 15.5187 12.5067 14.6087L12.5293 14.5927L11.4513 13.34L11.4333 13.3513C10.4097 14.0108 9.21764 14.361 8 14.36C4.49333 14.36 1.64 11.5067 1.64 8C1.64 4.49333 4.49333 1.64 8 1.64C11.5067 1.64 14.36 4.49333 14.36 8C14.3591 8.45961 14.3088 8.91779 14.21 9.36667C14.0093 10.1927 13.4307 10.4453 12.9967 10.412C12.5607 10.3767 12.05 10.0653 12.046 9.30467V8C12.0449 6.9272 11.6183 5.89863 10.8598 5.13998C10.1013 4.38133 9.0728 3.95457 8 3.95333C6.92708 3.95439 5.89841 4.38108 5.13974 5.13974C4.38108 5.89841 3.95439 6.92708 3.95333 8C3.95439 9.07292 4.38108 10.1016 5.13974 10.8603C5.89841 11.6189 6.92708 12.0456 8 12.0467C8.53323 12.048 9.06137 11.943 9.55357 11.7379C10.0458 11.5327 10.4922 11.2316 10.8667 10.852C11.1034 11.2237 11.4307 11.5292 11.8179 11.7396C12.205 11.9501 12.6393 12.0588 13.08 12.0553C13.6627 12.0553 14.24 11.8607 14.7047 11.508C15.184 11.1433 15.542 10.6173 15.74 9.98467C15.7713 9.882 15.83 9.64867 15.83 9.64667L15.8313 9.638C15.948 9.13133 16 8.62467 16 8C16 3.58867 12.4113 0 8 0" fill="#01FFDB"/>
</svg>
