<svg width="241" height="54" viewBox="0 0 241 54" fill="none" xmlns="http://www.w3.org/2000/svg">
  <path d="M0 44L15.95 8.75H21.35L37.5 44H30.95L26.65 34.1L29.25 35.85H8.1L10.8 34.1L6.5 44H0ZM18.6 15.65L11.55 32.35L10.25 30.8H27.05L26 32.35L18.8 15.65H18.6ZM42.4 44V8.75H48.85V23.45H66.9V8.75H73.35V44H66.9V28.8H48.85V44H42.4ZM80.9707 26.35C80.9707 22.65 81.6374 19.45 82.9707 16.75C84.3374 14.05 86.2874 11.9667 88.8207 10.5C91.354 9 94.3707 8.25 97.8707 8.25C101.337 8.25 104.337 9 106.871 10.5C109.404 11.9667 111.354 14.05 112.721 16.75C114.121 19.45 114.821 22.6333 114.821 26.3C114.821 30 114.121 33.2167 112.721 35.95C111.354 38.65 109.404 40.75 106.871 42.25C104.337 43.75 101.337 44.5 97.8707 44.5C94.3707 44.5 91.354 43.75 88.8207 42.25C86.3207 40.75 84.3874 38.65 83.0207 35.95C81.654 33.2167 80.9707 30.0167 80.9707 26.35ZM87.7207 26.35C87.7207 30.3167 88.5707 33.4167 90.2707 35.65C91.9707 37.8833 94.504 39 97.8707 39C101.137 39 103.654 37.8833 105.421 35.65C107.187 33.4167 108.071 30.3167 108.071 26.35C108.071 22.35 107.187 19.25 105.421 17.05C103.687 14.85 101.171 13.75 97.8707 13.75C94.504 13.75 91.9707 14.85 90.2707 17.05C88.5707 19.25 87.7207 22.35 87.7207 26.35Z" fill="white"/>
  <path d="M124.891 28V19.9459H131.94V28H130.478V21.1455H126.342V28H124.891ZM133.453 23.9672C133.453 23.1218 133.605 22.3907 133.91 21.7738C134.222 21.1569 134.668 20.6809 135.247 20.3458C135.826 20.003 136.515 19.8317 137.315 19.8317C138.107 19.8317 138.792 20.003 139.371 20.3458C139.95 20.6809 140.395 21.1569 140.708 21.7738C141.027 22.3907 141.187 23.118 141.187 23.9558C141.187 24.8012 141.027 25.5362 140.708 26.1607C140.395 26.7776 139.95 27.2574 139.371 27.6002C138.792 27.9429 138.107 28.1142 137.315 28.1142C136.515 28.1142 135.826 27.9429 135.247 27.6002C134.676 27.2574 134.234 26.7776 133.922 26.1607C133.609 25.5362 133.453 24.805 133.453 23.9672ZM134.995 23.9672C134.995 24.8736 135.19 25.5819 135.578 26.0922C135.966 26.6024 136.545 26.8576 137.315 26.8576C138.061 26.8576 138.636 26.6024 139.04 26.0922C139.443 25.5819 139.645 24.8736 139.645 23.9672C139.645 23.0533 139.443 22.345 139.04 21.8423C138.644 21.3397 138.069 21.0883 137.315 21.0883C136.545 21.0883 135.966 21.3397 135.578 21.8423C135.19 22.345 134.995 23.0533 134.995 23.9672ZM145.843 28V19.9459H152.892V28H151.429V21.1455H147.294V28H145.843ZM154.668 28V19.9459H160.094V21.0998H156.084V23.3275H159.832V24.4928H156.084V26.8347H160.094V28H154.668ZM161.462 28V19.9459H165.038C165.921 19.9459 166.595 20.1592 167.06 20.5857C167.525 21.0122 167.757 21.5986 167.757 22.345C167.757 23.0838 167.525 23.6702 167.06 24.1043C166.595 24.5385 165.921 24.7555 165.038 24.7555H162.936V28H161.462ZM162.936 23.5902H164.866C165.354 23.5902 165.719 23.4836 165.963 23.2704C166.207 23.0495 166.329 22.741 166.329 22.345C166.329 21.949 166.207 21.6443 165.963 21.4311C165.719 21.2102 165.354 21.0998 164.866 21.0998H162.936V23.5902ZM169.071 28V19.9459H174.497V21.0998H170.487V23.3275H174.235V24.4928H170.487V26.8347H174.497V28H169.071ZM175.865 28V19.9459H179.441C180.324 19.9459 180.998 20.1592 181.463 20.5857C181.928 21.0122 182.16 21.5986 182.16 22.345C182.16 23.0838 181.928 23.6702 181.463 24.1043C180.998 24.5385 180.324 24.7555 179.441 24.7555H177.339V28H175.865ZM177.339 23.5902H179.269C179.757 23.5902 180.123 23.4836 180.366 23.2704C180.61 23.0495 180.732 22.741 180.732 22.345C180.732 21.949 180.61 21.6443 180.366 21.4311C180.123 21.2102 179.757 21.0998 179.269 21.0998H177.339V23.5902ZM181.724 28L185.368 19.9459H186.602L190.292 28H188.795L187.813 25.738L188.407 26.1378H183.574L184.191 25.738L183.209 28H181.724ZM185.973 21.5225L184.363 25.3382L184.066 24.984H187.904L187.664 25.3382L186.019 21.5225H185.973ZM191.183 28V19.9459H196.929V21.0883H192.588V23.3161H194.93C195.814 23.3161 196.503 23.5141 196.998 23.9101C197.493 24.2985 197.74 24.8774 197.74 25.6466C197.74 26.4082 197.493 26.9909 196.998 27.3945C196.503 27.7982 195.814 28 194.93 28H191.183ZM192.588 26.869H194.759C195.299 26.869 195.696 26.77 195.947 26.572C196.198 26.3663 196.324 26.0579 196.324 25.6466C196.324 25.2429 196.198 24.9421 195.947 24.7441C195.696 24.5461 195.299 24.4471 194.759 24.4471H192.588V26.869ZM198.797 23.9672C198.797 23.1218 198.949 22.3907 199.254 21.7738C199.566 21.1569 200.011 20.6809 200.59 20.3458C201.169 20.003 201.858 19.8317 202.658 19.8317C203.45 19.8317 204.136 20.003 204.714 20.3458C205.293 20.6809 205.739 21.1569 206.051 21.7738C206.371 22.3907 206.531 23.118 206.531 23.9558C206.531 24.8012 206.371 25.5362 206.051 26.1607C205.739 26.7776 205.293 27.2574 204.714 27.6002C204.136 27.9429 203.45 28.1142 202.658 28.1142C201.858 28.1142 201.169 27.9429 200.59 27.6002C200.019 27.2574 199.577 26.7776 199.265 26.1607C198.953 25.5362 198.797 24.805 198.797 23.9672ZM200.339 23.9672C200.339 24.8736 200.533 25.5819 200.922 26.0922C201.31 26.6024 201.889 26.8576 202.658 26.8576C203.404 26.8576 203.979 26.6024 204.383 26.0922C204.787 25.5819 204.989 24.8736 204.989 23.9672C204.989 23.0533 204.787 22.345 204.383 21.8423C203.987 21.3397 203.412 21.0883 202.658 21.0883C201.889 21.0883 201.31 21.3397 200.922 21.8423C200.533 22.345 200.339 23.0533 200.339 23.9672ZM209.457 28V21.1569H206.795V19.9459H213.593V21.1569H210.931V28H209.457ZM214.634 28V19.9459H216.085V23.3732H217.456L217.159 23.5674L219.535 19.9459H221.157L218.507 23.8416L217.947 23.4303C218.465 23.5065 218.895 23.6854 219.238 23.9672C219.588 24.2414 219.893 24.6298 220.152 25.1325L221.58 28H219.992L218.884 25.6809C218.693 25.2772 218.465 24.9916 218.198 24.8241C217.939 24.6565 217.608 24.5727 217.204 24.5727H216.085V28H214.634ZM222.522 28V19.9459H227.948V21.0998H223.938V23.3275H227.685V24.4928H223.938V26.8347H227.948V28H222.522ZM124.891 44V35.9459H128.421C129.297 35.9459 129.971 36.1325 130.443 36.5057C130.915 36.8713 131.152 37.3816 131.152 38.0365C131.152 38.524 131.007 38.9353 130.717 39.2704C130.428 39.6055 130.028 39.8302 129.518 39.9444V39.773C130.104 39.8568 130.558 40.0701 130.877 40.4128C131.205 40.7479 131.369 41.1934 131.369 41.7494C131.369 42.4653 131.121 43.0213 130.626 43.4174C130.131 43.8058 129.442 44 128.558 44H124.891ZM126.308 42.8804H128.387C128.882 42.8804 129.267 42.789 129.541 42.6062C129.815 42.4158 129.952 42.1074 129.952 41.6809C129.952 41.2468 129.815 40.9383 129.541 40.7555C129.267 40.5651 128.882 40.4699 128.387 40.4699H126.308V42.8804ZM126.308 39.3618H128.17C128.695 39.3618 129.084 39.2666 129.335 39.0762C129.594 38.8781 129.724 38.5887 129.724 38.2079C129.724 37.8271 129.594 37.5415 129.335 37.3511C129.084 37.1531 128.695 37.0541 128.17 37.0541H126.308V39.3618ZM132.79 44V35.9459H134.081L137.04 42.6062H136.686L139.645 35.9459H140.924V44H139.588V38.0251H139.999L137.291 44H136.412L133.704 38.0251H134.127V44H132.79ZM142.719 44V35.9459H146.295C147.178 35.9459 147.852 36.1592 148.317 36.5857C148.782 37.0122 149.014 37.5986 149.014 38.345C149.014 39.0838 148.782 39.6702 148.317 40.1043C147.852 40.5385 147.178 40.7555 146.295 40.7555H144.193V44H142.719ZM144.193 39.5902H146.124C146.611 39.5902 146.977 39.4836 147.22 39.2704C147.464 39.0495 147.586 38.741 147.586 38.345C147.586 37.949 147.464 37.6443 147.22 37.4311C146.977 37.2102 146.611 37.0998 146.124 37.0998H144.193V39.5902Z" fill="url(#paint0_linear_2429_18612)"/>
  <path d="M124 8H235.56V26M235.56 26L231.12 22M235.56 26L240 22" stroke="#009393" stroke-width="2" stroke-linecap="round"/>
  <defs>
    <linearGradient id="paint0_linear_2429_18612" x1="162.237" y1="-20.1197" x2="186.399" y2="112.457" gradientUnits="userSpaceOnUse">
      <stop stop-color="#01FFDB"/>
      <stop offset="1" stop-color="#048086"/>
    </linearGradient>
  </defs>
</svg>
