<svg width="24" height="24" viewBox="0 0 24 24" fill="none" xmlns="http://www.w3.org/2000/svg">
<path d="M22 22.492H22.502L22.5 21.99C22.4975 21.3703 22.1418 19.7627 20.6896 18.3104C19.2743 16.8952 16.6837 15.5 12 15.5C7.31424 15.5 4.72563 16.8953 3.31045 18.3104C1.85751 19.7634 1.50503 21.3707 1.50002 21.9879L1.49592 22.492H2H22ZM15.8891 9.88909C14.8576 10.9205 13.4587 11.5 12 11.5C10.5413 11.5 9.14236 10.9205 8.11091 9.88909C7.07946 8.85764 6.5 7.45869 6.5 6C6.5 4.54131 7.07946 3.14236 8.11091 2.11091C9.14236 1.07946 10.5413 0.5 12 0.5C13.4587 0.5 14.8576 1.07946 15.8891 2.11091C16.9205 3.14236 17.5 4.54131 17.5 6C17.5 7.45869 16.9205 8.85764 15.8891 9.88909ZM15.182 9.18198C16.0259 8.33807 16.5 7.19347 16.5 6C16.5 4.80653 16.0259 3.66193 15.182 2.81802C14.3381 1.97411 13.1935 1.5 12 1.5C10.8065 1.5 9.66193 1.97411 8.81802 2.81802C7.9741 3.66193 7.5 4.80653 7.5 6C7.5 7.19347 7.9741 8.33807 8.81802 9.18198C9.66193 10.0259 10.8065 10.5 12 10.5C13.1935 10.5 14.3381 10.0259 15.182 9.18198ZM23.5 22C23.5 22.4125 23.3983 22.6886 23.2715 22.8789C23.1426 23.0723 22.9671 23.2074 22.7764 23.3028C22.5837 23.3991 22.3851 23.4498 22.2303 23.4756C22.1541 23.4883 22.0917 23.4944 22.0503 23.4974C22.0353 23.4984 22.0232 23.4991 22.0144 23.4995C22.0111 23.4996 22.0082 23.4997 22.0058 23.4998L21.9984 23.5L21.9991 23.5H21.9978H2.00218H2.00089L2.0016 23.5L1.9942 23.4998C1.98544 23.4995 1.9703 23.4988 1.94969 23.4974C1.90829 23.4944 1.84589 23.4883 1.7697 23.4756C1.61495 23.4498 1.41625 23.3991 1.22361 23.3028C1.03292 23.2074 0.857447 23.0723 0.728525 22.8789C0.60169 22.6886 0.5 22.4125 0.5 22C0.5 21.1284 0.950272 19.2568 2.60355 17.6036C4.24218 15.9649 7.10545 14.5 12 14.5C16.8946 14.5 19.7578 15.9649 21.3964 17.6036C23.0497 19.2568 23.5 21.1284 23.5 22Z" stroke="#01FFDB"/>
</svg>
