<svg width="16" height="16" viewBox="0 0 16 16" fill="none" xmlns="http://www.w3.org/2000/svg">
<path d="M13.6353 15.4074H13.5345C1.89009 14.7378 0.236755 4.91259 0.00564434 1.91407C-0.0129777 1.68094 0.0145858 1.44641 0.0867554 1.22395C0.158925 1.00148 0.274282 0.795439 0.426218 0.617631C0.578153 0.439822 0.76368 0.293741 0.972169 0.187757C1.18066 0.0817725 1.40801 0.0179685 1.6412 5.55609e-07H4.90638C5.14375 -0.00022923 5.37572 0.0708211 5.57224 0.203948C5.76876 0.337075 5.92078 0.526145 6.00861 0.746667L6.90935 2.96296C6.99607 3.1784 7.0176 3.41457 6.97124 3.64213C6.92489 3.86969 6.8127 4.07862 6.64861 4.24296L5.38638 5.51704C5.58355 6.63748 6.12012 7.67032 6.92351 8.47583C7.72689 9.28133 8.75832 9.82062 9.87824 10.0207L11.1642 8.74667C11.331 8.58439 11.5419 8.47482 11.7706 8.43161C11.9992 8.3884 12.2356 8.41348 12.4501 8.50371L14.6842 9.39852C14.9014 9.48912 15.0867 9.64232 15.2165 9.83862C15.3463 10.0349 15.4147 10.2654 15.4131 10.5007V13.6296C15.4131 14.1011 15.2257 14.5533 14.8924 14.8867C14.559 15.2201 14.1068 15.4074 13.6353 15.4074ZM1.78342 1.18519C1.62626 1.18519 1.47553 1.24762 1.3644 1.35875C1.25326 1.46988 1.19083 1.62061 1.19083 1.77778V1.82519C1.46342 5.33333 3.21157 13.6296 13.5997 14.2222C13.6776 14.227 13.7556 14.2164 13.8293 14.191C13.9031 14.1656 13.9711 14.1259 14.0295 14.0741C14.0878 14.0224 14.1354 13.9596 14.1694 13.8894C14.2035 13.8193 14.2233 13.7431 14.2279 13.6652V10.5007L11.9938 9.60593L10.2931 11.2948L10.0086 11.2593C4.85305 10.6133 4.15379 5.45778 4.15379 5.40445L4.11824 5.12L5.8012 3.41926L4.91231 1.18519H1.78342Z" fill="#01FFDB"/>
</svg>
