<svg width="341" height="332" viewBox="0 0 341 332" fill="none" xmlns="http://www.w3.org/2000/svg">
<path d="M189.564 15.6123C193.071 9.55162 199.26 4.07249 206.301 0.276085C204.933 0.0887385 203.583 0.00328673 202.261 0.00328673L133.595 0C120.416 0 104.245 9.32442 97.6582 20.7423L61.833 82.7696L128.547 121.274L189.564 15.6123Z" fill="#01FFDB" fill-opacity="0.08"/>
<path d="M198.466 20.7366L173.866 63.3225L202.739 113.353L184.566 123.848L255.067 126.964L287.616 64.3382L269.443 74.833L238.209 20.7468V20.7271C234.735 14.7255 228.612 9.29576 221.674 5.51282C212.843 7.0806 202.551 13.6376 198.466 20.7372V20.7366Z" fill="#01FFDB" fill-opacity="0.08"/>
<path d="M24.8263 226.022C17.8255 226.012 9.98308 223.389 3.1795 219.195C3.69881 220.474 4.30024 221.687 4.95435 222.827L39.2844 282.294C45.8776 293.696 62.0418 303.046 75.2215 303.046L146.853 303.06L146.849 226.022L24.8263 226.022Z" fill="#01FFDB" fill-opacity="0.08"/>
<path d="M73.9894 215.757L102.876 165.739L121.049 176.234L88.5002 113.622L17.9865 116.745L36.1591 127.243L4.93889 181.336H4.92574C1.45824 187.347 -0.178534 195.374 0.0154095 203.264C5.79677 210.12 16.6163 215.751 24.8107 215.741L73.9894 215.757Z" fill="#01FFDB" fill-opacity="0.08"/>
<path d="M335.497 189.278L299.688 127.241L232.984 165.761L293.989 271.442C297.48 277.506 299.13 285.614 298.903 293.601C299.748 292.506 300.5 291.382 301.161 290.242L335.498 230.775C342.081 219.354 342.091 200.691 335.498 189.277L335.497 189.278Z" fill="#01FFDB" fill-opacity="0.08"/>
<path d="M260.512 233.99L202.744 233.98L202.754 212.997L164.799 272.494L202.764 332V311.008L265.219 310.998L265.239 311.008C272.18 311.008 279.94 308.411 286.681 304.3C289.724 295.86 289.199 283.675 285.093 276.58L260.512 233.99Z" fill="#01FFDB" fill-opacity="0.08"/>
</svg>
