<svg width="16" height="16" viewBox="0 0 16 16" fill="none" xmlns="http://www.w3.org/2000/svg">
<path d="M15.8535 2.64654L13.3535 0.14654C13.2629 0.0560257 13.1379 0 13 0C12.8621 0 12.7371 0.0560257 12.6465 0.14654L6.14654 6.64654C6.05603 6.73706 6 6.86206 6 7V9C6 9.552 6.448 10 7 10H9C9.13795 10 9.26295 9.94398 9.35346 9.85346L15.8535 3.35346C15.944 3.26294 16 3.13794 16 3C16 2.86206 15.944 2.73706 15.8535 2.64654L15.8535 2.64654ZM8.79288 8.99997H6.99991V7.207L12.9999 1.207L14.7929 2.99997L8.79288 8.99997Z" fill="#01FFDB"/>
<path d="M0.5 10C0.223549 10 0 9.77645 0 9.5C0 9.22355 0.223549 9 0.5 9H4.5C4.77645 9 5 9.22355 5 9.5C5 9.77645 4.77645 10 4.5 10H0.5Z" fill="#01FFDB"/>
<path d="M0.5 13C0.223549 13 0 12.7765 0 12.5C0 12.2235 0.223549 12 0.5 12H15.5C15.7765 12 16 12.2235 16 12.5C16 12.7765 15.7765 13 15.5 13H0.5Z" fill="#01FFDB"/>
<path d="M0.5 16C0.223549 16 0 15.7765 0 15.5C0 15.2235 0.223549 15 0.5 15H15.5C15.7765 15 16 15.2235 16 15.5C16 15.7765 15.7765 16 15.5 16H0.5Z" fill="#01FFDB"/>
</svg>
