<svg width="10" height="9" viewBox="0 0 10 9" fill="none" xmlns="http://www.w3.org/2000/svg">
<path d="M8.85045 1.10912C8.91249 1.04582 8.98654 0.995526 9.06826 0.961195C9.14997 0.926863 9.23772 0.90918 9.32636 0.90918C9.41499 0.90918 9.50274 0.926863 9.58446 0.961195C9.66618 0.995526 9.74022 1.04582 9.80227 1.10912C10.0623 1.37185 10.0659 1.79639 9.81136 2.06367L4.4359 8.41821C4.37487 8.48523 4.30081 8.53909 4.21825 8.5765C4.13568 8.61392 4.04635 8.63409 3.95573 8.63579C3.8651 8.63749 3.77508 8.62069 3.69117 8.5864C3.60726 8.55212 3.53122 8.50107 3.46772 8.43639L0.196811 5.12185C0.0706628 4.9932 0 4.82021 0 4.64003C0 4.45985 0.0706628 4.28686 0.196811 4.15821C0.258853 4.09491 0.3329 4.04462 0.414619 4.01029C0.496337 3.97595 0.584083 3.95827 0.67272 3.95827C0.761357 3.95827 0.849103 3.97595 0.930821 4.01029C1.01254 4.04462 1.08659 4.09491 1.14863 4.15821L3.92317 6.97003L8.83227 1.12912C8.83792 1.12209 8.84399 1.11542 8.85045 1.10912Z" fill="#01FFDB"/>
</svg>
