<svg width="16" height="16" viewBox="0 0 16 16" fill="none" xmlns="http://www.w3.org/2000/svg">
<path d="M14.1617 1.77449C14.261 1.67321 14.3794 1.59274 14.5102 1.53781C14.6409 1.48288 14.7813 1.45459 14.9231 1.45459C15.065 1.45459 15.2054 1.48288 15.3361 1.53781C15.4669 1.59274 15.5853 1.67321 15.6846 1.77449C16.1006 2.19486 16.1064 2.87413 15.6991 3.30177L7.09842 13.469C7.00077 13.5763 6.88227 13.6625 6.75017 13.7223C6.61807 13.7822 6.47514 13.8144 6.33014 13.8172C6.18513 13.8199 6.0411 13.793 5.90684 13.7381C5.77259 13.6833 5.65094 13.6016 5.54933 13.4981L0.315874 8.19486C0.114037 7.98902 0.000976562 7.71223 0.000976562 7.42395C0.000976562 7.13566 0.114037 6.85888 0.315874 6.65304C0.415141 6.55175 0.533617 6.47129 0.664366 6.41636C0.795115 6.36143 0.935509 6.33314 1.07733 6.33314C1.21915 6.33314 1.35954 6.36143 1.49029 6.41636C1.62104 6.47129 1.73952 6.55175 1.83878 6.65304L6.27806 11.1519L14.1326 1.80649C14.1416 1.79525 14.1514 1.78457 14.1617 1.77449Z" fill="white"/>
</svg>
