<svg width="20" height="20" viewBox="0 0 20 20" fill="none" xmlns="http://www.w3.org/2000/svg">
<circle cx="10" cy="10" r="9" stroke="#01FFDB" stroke-width="2"/>
<path d="M11.2441 4.948C11.2441 4.766 11.1461 4.668 10.9641 4.668H9.92815C9.74615 4.668 9.64815 4.766 9.64815 4.948L9.57815 11.486C9.57815 11.668 9.67615 11.766 9.85815 11.766H11.0341C11.2161 11.766 11.3141 11.668 11.3141 11.486L11.2441 4.948ZM11.3421 13.502C11.3421 13.32 11.2441 13.222 11.0621 13.222H9.69015C9.50815 13.222 9.41015 13.32 9.41015 13.502V14.72C9.41015 14.902 9.50815 15 9.69015 15H11.0621C11.2441 15 11.3421 14.902 11.3421 14.72V13.502Z" fill="#01FFDB"/>
</svg>
