<svg width="112" height="48" viewBox="0 0 112 48" fill="none" xmlns="http://www.w3.org/2000/svg">
<path d="M1 21.5L4.64433 13.4459H5.87815L9.56818 21.5H8.07161L7.08912 19.238L7.68318 19.6378H2.85073L3.46764 19.238L2.48515 21.5H1ZM5.24982 15.0225L3.639 18.8382L3.34197 18.484H7.18052L6.94061 18.8382L5.29552 15.0225H5.24982ZM13.9387 21.6142C13.1009 21.6142 12.3812 21.4467 11.7795 21.1116C11.1854 20.7688 10.7285 20.289 10.4086 19.6721C10.0887 19.0476 9.92876 18.3126 9.92876 17.4672C9.92876 16.6218 10.0887 15.8907 10.4086 15.2738C10.7285 14.6569 11.1854 14.1809 11.7795 13.8458C12.3812 13.503 13.1009 13.3317 13.9387 13.3317C14.5023 13.3317 15.0087 13.4116 15.4581 13.5716C15.9151 13.7315 16.3073 13.9676 16.6348 14.2799L16.155 15.4452C15.797 15.1557 15.4505 14.9501 15.1154 14.8282C14.7879 14.6988 14.4109 14.634 13.9844 14.634C13.1694 14.634 12.5449 14.8816 12.1108 15.3766C11.6843 15.864 11.471 16.5609 11.471 17.4672C11.471 18.3736 11.6843 19.0743 12.1108 19.5693C12.5449 20.0644 13.1694 20.3119 13.9844 20.3119C14.4109 20.3119 14.7879 20.2509 15.1154 20.1291C15.4505 19.9996 15.797 19.7864 16.155 19.4893L16.6348 20.6546C16.3073 20.9593 15.9151 21.1954 15.4581 21.3629C15.0087 21.5305 14.5023 21.6142 13.9387 21.6142ZM21.6143 21.6142C20.7766 21.6142 20.0568 21.4467 19.4551 21.1116C18.8611 20.7688 18.4041 20.289 18.0842 19.6721C17.7644 19.0476 17.6044 18.3126 17.6044 17.4672C17.6044 16.6218 17.7644 15.8907 18.0842 15.2738C18.4041 14.6569 18.8611 14.1809 19.4551 13.8458C20.0568 13.503 20.7766 13.3317 21.6143 13.3317C22.1779 13.3317 22.6844 13.4116 23.1338 13.5716C23.5907 13.7315 23.983 13.9676 24.3105 14.2799L23.8306 15.4452C23.4727 15.1557 23.1261 14.9501 22.791 14.8282C22.4635 14.6988 22.0865 14.634 21.66 14.634C20.8451 14.634 20.2206 14.8816 19.7865 15.3766C19.3599 15.864 19.1467 16.5609 19.1467 17.4672C19.1467 18.3736 19.3599 19.0743 19.7865 19.5693C20.2206 20.0644 20.8451 20.3119 21.66 20.3119C22.0865 20.3119 22.4635 20.2509 22.791 20.1291C23.1261 19.9996 23.4727 19.7864 23.8306 19.4893L24.3105 20.6546C23.983 20.9593 23.5907 21.1954 23.1338 21.3629C22.6844 21.5305 22.1779 21.6142 21.6143 21.6142ZM25.2801 17.4672C25.2801 16.6218 25.4324 15.8907 25.7371 15.2738C26.0493 14.6569 26.4949 14.1809 27.0737 13.8458C27.6525 13.503 28.3418 13.3317 29.1415 13.3317C29.9336 13.3317 30.619 13.503 31.1978 13.8458C31.7767 14.1809 32.2222 14.6569 32.5345 15.2738C32.8544 15.8907 33.0143 16.618 33.0143 17.4558C33.0143 18.3012 32.8544 19.0362 32.5345 19.6607C32.2222 20.2776 31.7767 20.7574 31.1978 21.1002C30.619 21.4429 29.9336 21.6142 29.1415 21.6142C28.3418 21.6142 27.6525 21.4429 27.0737 21.1002C26.5025 20.7574 26.0607 20.2776 25.7485 19.6607C25.4362 19.0362 25.2801 18.305 25.2801 17.4672ZM26.8224 17.4672C26.8224 18.3736 27.0166 19.0819 27.405 19.5922C27.7934 20.1024 28.3722 20.3576 29.1415 20.3576C29.8879 20.3576 30.4629 20.1024 30.8665 19.5922C31.2702 19.0819 31.472 18.3736 31.472 17.4672C31.472 16.5533 31.2702 15.845 30.8665 15.3423C30.4705 14.8397 29.8955 14.5883 29.1415 14.5883C28.3722 14.5883 27.7934 14.8397 27.405 15.3423C27.0166 15.845 26.8224 16.5533 26.8224 17.4672ZM41.4695 23.385V21.5H34.535V13.4459H35.9858V20.289H40.1214V13.4459H41.5837V20.289H42.7604V23.385H41.4695ZM43.9176 21.5V13.4459H45.2771V19.5236H45.0029L49.664 13.4459H50.7721V21.5H49.4012V15.4223H49.6754L45.0029 21.5H43.9176ZM51.6504 21.5L55.2948 13.4459H56.5286L60.2186 21.5H58.7221L57.7396 19.238L58.3336 19.6378H53.5012L54.1181 19.238L53.1356 21.5H51.6504ZM55.9003 15.0225L54.2894 18.8382L53.9924 18.484H57.831L57.5911 18.8382L55.946 15.0225H55.9003ZM68.0442 23.385V21.5H61.1097V13.4459H62.5606V20.289H66.6962V13.4459H68.1585V20.289H69.3352V23.385H68.0442ZM70.4923 21.5V13.4459H71.8518V19.5236H71.5776L76.2387 13.4459H77.3469V21.5H75.976V15.4223H76.2501L71.5776 21.5H70.4923ZM78.5679 21.5L79.9731 19.0209C80.1559 18.6934 80.3653 18.4535 80.6014 18.3012C80.8452 18.1489 81.127 18.0727 81.4468 18.0727H81.8353L81.8238 18.2441C80.9175 18.2441 80.213 18.0346 79.7103 17.6158C79.2153 17.1893 78.9678 16.599 78.9678 15.845C78.9678 15.0834 79.2115 14.4931 79.6989 14.0742C80.194 13.6554 80.8947 13.4459 81.801 13.4459H85.3996V21.5H83.9373V18.2784H82.8634C82.5588 18.2784 82.3113 18.3241 82.1209 18.4155C81.9305 18.5068 81.7629 18.682 81.6182 18.941L80.1787 21.5H78.5679ZM82.0409 17.2045H83.9373V14.5883H82.0409C80.9366 14.5883 80.3844 15.0225 80.3844 15.8907C80.3844 16.7666 80.9366 17.2045 82.0409 17.2045ZM1.89109 37.5V29.4459H8.93985V37.5H7.47755V30.6455H3.34197V37.5H1.89109ZM10.7159 37.5V29.4459H16.1424V30.5998H12.1325V32.8275H15.8796V33.9928H12.1325V36.3347H16.1424V37.5H10.7159ZM17.5102 37.5V29.4459H21.086C21.9694 29.4459 22.6435 29.6592 23.1081 30.0857C23.5726 30.5122 23.8049 31.0986 23.8049 31.845C23.8049 32.5838 23.5726 33.1702 23.1081 33.6043C22.6435 34.0385 21.9694 34.2555 21.086 34.2555H18.9839V37.5H17.5102ZM18.9839 33.0902H20.9146C21.402 33.0902 21.7676 32.9836 22.0113 32.7704C22.255 32.5495 22.3769 32.241 22.3769 31.845C22.3769 31.449 22.255 31.1443 22.0113 30.9311C21.7676 30.7102 21.402 30.5998 20.9146 30.5998H18.9839V33.0902ZM25.1189 37.5V29.4459H30.5454V30.5998H26.5355V32.8275H30.2827V33.9928H26.5355V36.3347H30.5454V37.5H25.1189ZM31.9132 37.5V29.4459H35.489C36.3725 29.4459 37.0465 29.6592 37.5111 30.0857C37.9757 30.5122 38.208 31.0986 38.208 31.845C38.208 32.5838 37.9757 33.1702 37.5111 33.6043C37.0465 34.0385 36.3725 34.2555 35.489 34.2555H33.3869V37.5H31.9132ZM33.3869 33.0902H35.3176C35.8051 33.0902 36.1706 32.9836 36.4143 32.7704C36.6581 32.5495 36.7799 32.241 36.7799 31.845C36.7799 31.449 36.6581 31.1443 36.4143 30.9311C36.1706 30.7102 35.8051 30.5998 35.3176 30.5998H33.3869V33.0902ZM37.7718 37.5L41.4161 29.4459H42.6499L46.34 37.5H44.8434L43.8609 35.238L44.455 35.6378H39.6225L40.2394 35.238L39.2569 37.5H37.7718ZM42.0216 31.0225L40.4108 34.8382L40.1137 34.484H43.9523L43.7124 34.8382L42.0673 31.0225H42.0216ZM47.2311 37.5V29.4459H52.9774V30.5883H48.6362V32.8161H50.9782C51.8617 32.8161 52.5509 33.0141 53.046 33.4101C53.541 33.7985 53.7886 34.3774 53.7886 35.1466C53.7886 35.9082 53.541 36.4909 53.046 36.8945C52.5509 37.2982 51.8617 37.5 50.9782 37.5H47.2311ZM48.6362 36.369H50.8068C51.3476 36.369 51.7436 36.27 51.995 36.072C52.2463 35.8663 52.372 35.5579 52.372 35.1466C52.372 34.7429 52.2463 34.4421 51.995 34.2441C51.7436 34.0461 51.3476 33.9471 50.8068 33.9471H48.6362V36.369ZM54.8448 33.4672C54.8448 32.6218 54.9971 31.8907 55.3017 31.2738C55.614 30.6569 56.0595 30.1809 56.6384 29.8458C57.2172 29.503 57.9065 29.3317 58.7062 29.3317C59.4982 29.3317 60.1837 29.503 60.7625 29.8458C61.3414 30.1809 61.7869 30.6569 62.0992 31.2738C62.419 31.8907 62.579 32.618 62.579 33.4558C62.579 34.3012 62.419 35.0362 62.0992 35.6607C61.7869 36.2776 61.3414 36.7574 60.7625 37.1002C60.1837 37.4429 59.4982 37.6142 58.7062 37.6142C57.9065 37.6142 57.2172 37.4429 56.6384 37.1002C56.0672 36.7574 55.6254 36.2776 55.3132 35.6607C55.0009 35.0362 54.8448 34.305 54.8448 33.4672ZM56.387 33.4672C56.387 34.3736 56.5813 35.0819 56.9697 35.5922C57.3581 36.1024 57.9369 36.3576 58.7062 36.3576C59.4525 36.3576 60.0276 36.1024 60.4312 35.5922C60.8349 35.0819 61.0367 34.3736 61.0367 33.4672C61.0367 32.5533 60.8349 31.845 60.4312 31.3423C60.0352 30.8397 59.4602 30.5883 58.7062 30.5883C57.9369 30.5883 57.3581 30.8397 56.9697 31.3423C56.5813 31.845 56.387 32.5533 56.387 33.4672ZM65.5052 37.5V30.6569H62.8433V29.4459H69.6408V30.6569H66.9789V37.5H65.5052ZM75.583 37.5V34.3469C75.3621 34.4459 75.0841 34.5259 74.749 34.5868C74.4139 34.6477 74.0788 34.6782 73.7437 34.6782C72.6622 34.6782 71.832 34.4002 71.2532 33.8442C70.682 33.2883 70.3964 32.4467 70.3964 31.3195V29.4459H71.8587V31.2509C71.8587 32.0126 72.0262 32.5685 72.3613 32.9189C72.7041 33.2616 73.2182 33.433 73.9036 33.433C74.193 33.433 74.4786 33.4063 74.7604 33.353C75.0499 33.2997 75.324 33.2121 75.583 33.0902V29.4459H77.0453V37.5H75.583ZM78.8151 37.5V29.4459H80.1745V35.5236H79.9004L84.5615 29.4459H85.6696V37.5H84.2987V31.4223H84.5729L79.9004 37.5H78.8151ZM87.439 37.5V29.4459H88.8899V32.8732H90.2608L89.9638 33.0674L92.34 29.4459H93.9623L91.3118 33.3416L90.7521 32.9303C91.27 33.0065 91.7003 33.1854 92.043 33.4672C92.3933 33.7414 92.698 34.1298 92.9569 34.6325L94.385 37.5H92.797L91.6888 35.1809C91.4984 34.7772 91.27 34.4916 91.0034 34.3241C90.7444 34.1565 90.4131 34.0727 90.0095 34.0727H88.8899V37.5H87.439ZM94.9189 33.4672C94.9189 32.6218 95.0712 31.8907 95.3758 31.2738C95.6881 30.6569 96.1337 30.1809 96.7125 29.8458C97.2913 29.503 97.9806 29.3317 98.7803 29.3317C99.5724 29.3317 100.258 29.503 100.837 29.8458C101.415 30.1809 101.861 30.6569 102.173 31.2738C102.493 31.8907 102.653 32.618 102.653 33.4558C102.653 34.3012 102.493 35.0362 102.173 35.6607C101.861 36.2776 101.415 36.7574 100.837 37.1002C100.258 37.4429 99.5724 37.6142 98.7803 37.6142C97.9806 37.6142 97.2913 37.4429 96.7125 37.1002C96.1413 36.7574 95.6995 36.2776 95.3873 35.6607C95.075 35.0362 94.9189 34.305 94.9189 33.4672ZM96.4611 33.4672C96.4611 34.3736 96.6554 35.0819 97.0438 35.5922C97.4322 36.1024 98.011 36.3576 98.7803 36.3576C99.5267 36.3576 100.102 36.1024 100.505 35.5922C100.909 35.0819 101.111 34.3736 101.111 33.4672C101.111 32.5533 100.909 31.845 100.505 31.3423C100.109 30.8397 99.5343 30.5883 98.7803 30.5883C98.011 30.5883 97.4322 30.8397 97.0438 31.3423C96.6554 31.845 96.4611 32.5533 96.4611 33.4672ZM104.174 37.5V29.4459H107.704C108.58 29.4459 109.254 29.6325 109.726 30.0057C110.198 30.3713 110.434 30.8816 110.434 31.5365C110.434 32.024 110.29 32.4353 110 32.7704C109.711 33.1055 109.311 33.3302 108.801 33.4444V33.273C109.387 33.3568 109.84 33.5701 110.16 33.9128C110.488 34.2479 110.651 34.6934 110.651 35.2494C110.651 35.9653 110.404 36.5213 109.909 36.9174C109.414 37.3058 108.724 37.5 107.841 37.5H104.174ZM105.59 36.3804H107.67C108.165 36.3804 108.549 36.289 108.823 36.1062C109.098 35.9158 109.235 35.6074 109.235 35.1809C109.235 34.7468 109.098 34.4383 108.823 34.2555C108.549 34.0651 108.165 33.9699 107.67 33.9699H105.59V36.3804ZM105.59 32.8618H107.453C107.978 32.8618 108.366 32.7666 108.618 32.5762C108.877 32.3781 109.006 32.0887 109.006 31.7079C109.006 31.3271 108.877 31.0415 108.618 30.8511C108.366 30.6531 107.978 30.5541 107.453 30.5541H105.59V32.8618Z" fill="#009393"/>
<path d="M1.5 1H102V19M102 19L98 15M102 19L106 15" stroke="#009393" stroke-width="2" stroke-linecap="round"/>
</svg>
